<svg xmlns="http://www.w3.org/2000/svg" viewBox="0 0 401.7 57.9"><path d="M87.6 47h-5.3c-.7 0-.8-.1-.8-1V33c0-2-.5-3.3-2.6-3.3a7.7 7.7 0 0 0-4.7 1.9V46c0 .8-.1 1-1 1H68c-.6 0-.7-.2-.7-1V14.8c0-1 .4-1.3 1-1.4l4-.6a3.9 3.9 0 0 1 .7 0c.5 0 .8.3.8 1v11.7a11.2 11.2 0 0 1 6.9-2.4c5 0 7.2 3.3 7.2 8.5V46c0 .8-.1 1-.7 1zm24.6-9.8H99.5a5.7 5.7 0 0 0 5.9 4.7 14.7 14.7 0 0 0 5.7-1.2 1.2 1.2 0 0 1 .5-.1.7.7 0 0 1 .7.7 31.2 31.2 0 0 1 .9 3.7c0 .6-.4.8-1 1a20.2 20.2 0 0 1-8.2 1.6c-7.2 0-11.8-4.7-11.8-12.3C92.4 28 97 23 104 23a9.2 9.2 0 0 1 7 3c2.3 2.5 2.7 5.8 2.7 9v.6c0 1-.5 1.4-1.6 1.4zm-8.5-8.7c-2.3 0-3.8 2-4 4h7.6c0-2-1-4-3.5-4zM139 47h-2.4c-2.7 0-3.8-.8-4.4-2.2h-.1a9.5 9.5 0 0 1-6.4 2.8c-6.5 0-9.6-5.4-9.6-11.8 0-8.4 5-12.7 10-12.7a6.7 6.7 0 0 1 5.5 2.7l.1-1a1 1 0 0 1 1-1h4a1 1 0 0 1 1.1 1.1v16.4c0 .5.2.8.7.8h.4c.6 0 1 .2 1 1v3a1 1 0 0 1-1.1 1.1zm-7.7-16.3a6 6 0 0 0-3.7-1.6c-2.2 0-4.3 2-4.3 6.3 0 3 .7 6.5 4.2 6.5a5.6 5.6 0 0 0 3.8-2zm18 16.3H145a1.1 1.1 0 0 1-1.2-1.3v-31c0-1 .4-1.2 1-1.3l4.3-.6h.5c.6 0 1 .4 1 1.2v31.6c0 1-.5 1.3-1.2 1.3zm21-.7a13.7 13.7 0 0 1-5.8 1.2c-2.5 0-4.6-.6-5.8-2-1.5-1.8-1.5-3.8-1.5-7.7v-9h-1.8c-1 0-1.3-.3-1.3-1.6v-2a1.1 1.1 0 0 1 1-1.2h2v-5c0-1 .6-1 1.4-1.2l4-.6h.3c.7 0 1 .4 1 1.2V24h5c.6 0 1 .3 1 1v2.8a1 1 0 0 1-1.1 1.1h-5v9c0 2.5.3 4 2.3 4a9 9 0 0 0 2.9-.6 1.9 1.9 0 0 1 .6-.1c.4 0 .5.2.6.7l.5 3a1.4 1.4 0 0 1 0 .4c0 .5-.2.8-.7 1zm24.4.7h-5.3c-.7 0-.8-.1-.8-1V33c0-2-.5-3.3-2.6-3.3a7.7 7.7 0 0 0-4.7 1.9V46c0 .8-.1 1-1 1H175c-.6 0-.7-.2-.7-1V14.8c0-1 .4-1.3 1-1.4l4-.6a3.9 3.9 0 0 1 .7 0c.5 0 .8.3.8 1v11.7a11.2 11.2 0 0 1 6.9-2.4c5 0 7.2 3.3 7.2 8.5V46c0 .8-.1 1-.7 1zm25.6-22l-9 24.5c-2 5.7-4.8 7.8-10.7 7.8a12.3 12.3 0 0 1-2.7-.3c-.6-.1-.8-.4-.8-1a3.1 3.1 0 0 1 0-.6l.4-3c.1-1 .4-1 1-1h.3l1.6.1c3 0 4-1 5-3l.6-1.4-8.4-22a2.2 2.2 0 0 1-.1-.5.8.8 0 0 1 .8-.8h5.5a1.3 1.3 0 0 1 1.4 1l4.3 14 4-13.7a1.6 1.6 0 0 1 1.7-1.4h4.7a.8.8 0 0 1 .8.8 2.6 2.6 0 0 1-.1.5zm16.5-.6L236 29c-.1.5-.3.8-.7.8h-.2a5.1 5.1 0 0 0-1.2-.1 5.9 5.9 0 0 0-4.2 1.9v14.2c0 1-.4 1.3-1.3 1.3H224c-.8 0-1.3-.4-1.3-1.3V25c0-1 .5-1.4 1.3-1.4h3.7c1 0 1.3.2 1.3 1V26c1.6-2 3-3 5.7-3a6.3 6.3 0 0 1 1.3.2.6.6 0 0 1 .5.6v.1a1.5 1.5 0 0 1 0 .4zm20.5 12.8h-12.7a5.7 5.7 0 0 0 5.9 4.7 14.7 14.7 0 0 0 5.7-1.2 1.2 1.2 0 0 1 .5-.1.7.7 0 0 1 .7.7 31.4 31.4 0 0 1 .9 3.7c0 .6-.4.8-1 1a20.3 20.3 0 0 1-8.2 1.6c-7.2 0-11.8-4.7-11.8-12.3C237.3 28 242 23 249 23a9.2 9.2 0 0 1 7 3c2.3 2.5 2.7 5.8 2.7 9v.6c0 1-.5 1.4-1.6 1.4zm-8.5-8.7c-2.3 0-3.8 2-4 4h7.6c0-2-1-4-3.5-4zM279 46a14.5 14.5 0 0 1-6.9 1.4c-7 0-11-4.3-11-12s4.4-12.6 11.6-12.6a15 15 0 0 1 6.3 1.3.8.8 0 0 1 .6.9 2.1 2.1 0 0 1-.1.5l-.7 3.4c-.1.5-.3.7-.6.7a1.9 1.9 0 0 1-.6-.2 10.4 10.4 0 0 0-4-.9c-3.5 0-5.4 2.5-5.4 6.6 0 4.3 2 6.7 5 6.7a9.8 9.8 0 0 0 4.5-1 2 2 0 0 1 .5-.1c.4 0 .5.3.6.6a26.1 26.1 0 0 1 1 3.8c0 .5-.4.7-.7 1zm8-25a3.6 3.6 0 1 1 3.6-3.6A3.6 3.6 0 0 1 287 21zm2 26h-4c-1 0-1.4-.3-1.4-1.4V25c0-1 .6-1.2 1.4-1.2h4c1 0 1.3.2 1.3 1.2v20.6c0 1-.4 1.4-1.3 1.4zm26-2.7a8.7 8.7 0 0 1-7 3.3 7.3 7.3 0 0 1-5.1-1.9v10c0 1-.5 1.5-1.4 1.5h-4c-.8 0-1.3-.5-1.3-1.4V25c0-1 .5-1.3 1.3-1.3h3.5c1 0 1.3.2 1.4 1l.1 1a8.6 8.6 0 0 1 12.6.3c2 2.2 3 5.6 3 9a14.8 14.8 0 0 1-2.9 9.4zm-5.2-13.7a3.6 3.6 0 0 0-3.2-1.7 5.9 5.9 0 0 0-3.7 1.7v9.7a5.5 5.5 0 0 0 3.6 1.5 3.8 3.8 0 0 0 3-1.6 8 8 0 0 0 1.3-5 8.9 8.9 0 0 0-1-4.7zm30.7 6.6h-12.7a5.7 5.7 0 0 0 5.9 4.7 14.7 14.7 0 0 0 5.7-1.2 1.2 1.2 0 0 1 .5-.1.7.7 0 0 1 .7.7 31.4 31.4 0 0 1 .9 3.7c0 .6-.4.8-1 1a20.3 20.3 0 0 1-8.2 1.6c-7.2 0-11.8-4.7-11.8-12.3 0-7.4 4.8-12.2 11.7-12.2a9.2 9.2 0 0 1 7 3c2.3 2.5 2.7 5.8 2.7 9v.6c0 1-.5 1.4-1.6 1.4zm-8.5-8.7c-2.3 0-3.8 2-4 4h7.6c0-2-1-4-3.5-4zm20.5 19a19.4 19.4 0 0 1-7.6-1.8.9.9 0 0 1-.6-.9 2.6 2.6 0 0 1 .1-.6l1-3c.2-.6.4-1 .7-1a1.8 1.8 0 0 1 .7.2 16.2 16.2 0 0 0 6 1.5c1.5 0 2.4-.6 2.4-1.7 0-1-.5-1.4-2-2l-4-1.6a7 7 0 0 1-4.6-6.7c0-5 4.6-7 8.7-7a16.2 16.2 0 0 1 7.1 1.5c.4.2.6.4.6.8a2.6 2.6 0 0 1-.1.5l-1 3.3a.7.7 0 0 1-.8.6 2.2 2.2 0 0 1-.5-.1 15.1 15.1 0 0 0-5-1.1c-1.5 0-2.2 1-2.2 1.5 0 .6.2 1.2 1.7 1.8l4.6 2a6.3 6.3 0 0 1 4.1 6.1c0 5.5-4.6 7.6-9 7.6z" fill="#464646"/><path d="M33.4 31.4l-.7-.8q-2-2-3.8-4.2a1.9 1.9 0 0 0-.3-.3l-1.4-1a1.1 1.1 0 0 0-1.3 0 1.3 1.3 0 0 0-.5 1.2 7.3 7.3 0 0 0 .8 2.8 22 22 0 0 0 2.6 4.2l2.8 3.4q.7.8 1.5 1.6c0 0 0 .1.1.1a.5.5 0 0 0-.1.1l-.1.3a17 17 0 0 1-.7 2.3c-.2.6-.5 1.2-.7 1.8a18.6 18.6 0 0 1-1.2 2.2c0 .1-.1.2-.2.2a3.2 3.2 0 0 1-.2-.9l-.3-2.3a3.4 3.4 0 0 0-1.1-2.1l-3.2-2.8q-1.5-1.3-3-2.6l-2.6-2.4-.1-.1a.3.3 0 0 0-.4 0c-.1.1-.1.2 0 .4l1 1q2.4 2.7 4.8 5.4a1 1 0 0 1 .1.2.3.3 0 0 1 0 .3.3.3 0 0 1-.3.1 1.6 1.6 0 0 1-.3-.2Q22.3 37 20 34.8q-.7-.7-1.4-1.4a1.6 1.6 0 0 0-.1-.1.2.2 0 0 0-.4 0 .2.2 0 0 0 0 .4l.3.4q2.7 3 5.3 6c.1.1.2.2.2.3a.2.2 0 0 1 0 .3.3.3 0 0 1-.3 0 1.3 1.3 0 0 1-.3-.2q-.6-.6-1.2-1-1.8-1.7-3.6-3.5l-1-1a.5.5 0 0 0-.5-.2c-.1 0-.2.1-.2.2a.5.5 0 0 0 .2.4q.7.7 1.3 1.4 2 2 4 4.2l.4.4.1.1c.1.1.2.3.1.4a.5.5 0 0 1-.4.3.3.3 0 0 1-.3-.1l-.2-.2q-2.6-2.5-5.2-5l-.6-.6a.6.6 0 0 0-.5-.2.6.6 0 0 0 .1.6l3.2 4 4 5a4.2 4.2 0 0 0 2.5 1.5c.7.1 1.4.2 2 .3a3.2 3.2 0 0 1 1.3.3.4.4 0 0 1 0 .1l-1 1.2c-.1.2-.3.3-.5.4l-1 .8c-.2.2-.5.4-.8.6l-1.5 1-1.2.7-1 .5c-.6.2-1.2.5-1.7.7a17.6 17.6 0 0 1-2.5.7c-.4.1-1 .2-1.3.2l-.7.1c-.3 0-.6.1-1 .1h-1c0 0 0 0-.1 0l-1.3-.4a14 14 0 0 1-4-2 16.5 16.5 0 0 1-5.5-6.6A16.7 16.7 0 0 1 1.6 41a16 16 0 0 1-.2-3.5 16.8 16.8 0 0 1 11.9-15.1 16.1 16.1 0 0 1 3-.6 16.3 16.3 0 0 1 2.1-.1 16.8 16.8 0 0 1 4.3.6l.3.1h.2a15.9 15.9 0 0 1 2.4 1 18.4 18.4 0 0 1 2.2 1.4c.3.2.7.5 1 .8q.2.2.5.4l1.7 1.4c.5.4 1 .8 1.3 1.2 0 0 .1.1.1.1l.6.6a.3.3 0 0 1 0 .1l.2 1.2c0 .3.1.5.1.8z" fill="#8dc641"/><path d="M29 25.6l-1-.8a18.4 18.4 0 0 0-2.2-1.4 15.9 15.9 0 0 0-2.4-1H23a16.1 16.1 0 0 1-.5-2.1l-.2-1.6c0-.4 0-1 0-1.3a16.8 16.8 0 0 1 12-15.9 14.7 14.7 0 0 1 3.3-.6c.6 0 1.2-.1 1.7-.1a16.7 16.7 0 0 1 10.3 3.8 16.4 16.4 0 0 1 4.6 5.9 13.4 13.4 0 0 1 .9 2.7c.2.8.3 1.5.5 2.3a1.3 1.3 0 0 1 0 .2.8.8 0 0 0-.1.1l-.3.5-1.4 2a21.1 21.1 0 0 1-1.4 1.6c-.1.1-.2.3-.4.4l-.6.6-.5.4-1.2 1a20.8 20.8 0 0 1-3 1.9 1.5 1.5 0 0 0-.2.1 17.4 17.4 0 0 0-1.3-1.4 12.3 12.3 0 0 0-3.5-2.4 8 8 0 0 0-2.2-.7 4.5 4.5 0 0 0-2.4.3 3 3 0 0 0-1.8 2.2 4.7 4.7 0 0 0-.1 1.9 8.6 8.6 0 0 0 .8 2.7c0 0 0 .1 0 .1q-.8 0-1.5 0c0 0-.1 0-.1 0l-1-.1H33l-1-.2-1.3-.2-1.6-.4c-.1 0-.1-.1-.2 0z" fill="#7ab142"/><path d="M46.6 24a1.5 1.5 0 0 1 .2-.1 20.8 20.8 0 0 0 3-1.9c.4-.3.8-.6 1.2-1l.5-.4c.2-.2.4-.4.6-.6.1-.1.2-.3.4-.4a21.1 21.1 0 0 0 1.4-1.6c.5-.6 1-1.3 1.4-2l.3-.5a.8.8 0 0 1 .1-.1l.2 1 .4 2.6c.1.8.2 1.6.3 2.5q.1 1.3.2 2.5l.1 2q.1 1.6.2 3v1.8q.1 2.5.2 5v3c0 .1 0 .1 0 .2H57h-1l-.7-.6q-2.5-2.3-5-4.6l-.6-.5a2.8 2.8 0 0 1-1-2c-.1-.8-.1-1.6-.2-2.4a7.6 7.6 0 0 0-.7-2.5 12.6 12.6 0 0 0-1.4-2.3l-.1-.2z" fill="#67a133"/><path d="M53.5 39.4l1 1q1.4 1.6 3 3.2a.4.4 0 0 1 .1.3v8V56v.2a.9.9 0 0 1-.1-.1q-.7-.6-1.3-1a.5.5 0 0 1-.1-.1.4.4 0 0 0 0-.2c-.2-.3-.4-.5-.6-.8q-.2-.3-.5-.6-.5-.5-1-1l-.5-.6-.7-1-.5-.6-.6-.7-.5-.6-.6-.7-.6-.7-.6-.7-.7-.7-1-1.2-.3-.4-.6-.8-.7-.8c-.1-.1-.2-.3-.4-.4l-.6-.7a.8.8 0 0 0-.1-.1q-.5-.5-1-1-.5-.6-1-1.2l-1-1-.5-.5c.1-.1.1 0 .2 0l1.8.5 2.3.5 1.6.3 1.3.1h.6l1 .1h3.5z" fill="#579228"/><path d="M53.5 39.4H50l-1-.1h-.6c-.4 0-1-.1-1.3-.1l-1.6-.3-2.3-.5-1.8-.5c-.1 0-.1-.1-.2 0l-.6-.7q-.5-.5-1-1-.6-.6-1.2-1.3-.4-.4-.8-.8l-1-1q-1.6-1.6-3.2-3.2a2.5 2.5 0 0 0-.3-.2.3.3 0 0 0 0-.1l-.6-.6-.1-.1-1.3-1.2-1.7-1.4q-.2-.2-.5-.4c.1-.1.1 0 .2 0 .5.1 1 .3 1.6.4l1.3.2c.4.1.7.1 1 .2h.6l1 .1c0 0 .1 0 .1 0q.8 0 1.5 0c.2.4.4.7.6 1a13.4 13.4 0 0 0 5.1 4.7 8.6 8.6 0 0 0 2.7.9 19 19 0 0 0 2.3.2 2.6 2.6 0 0 1 1.9.8q.7.8 1.5 1.6 1.5 1.7 3 3.5c0 0 .1.1.1.1z" fill="#67a133"/><path d="M42.4 46.2l.7.6 1.7 1.8 5.5 6.2 1.5 1.8v.1a1.1 1.1 0 0 1-.1 0q-3.5 0-7 0h-3a1 1 0 0 1-.8-.3l-4.2-4.2c0 0-.1-.1-.1-.2a1.1 1.1 0 0 1 .1-.1c.1-.1.3-.2.4-.3l1.4-1.2q.6-.5 1-1l.8-1 1-1 1-1.2a1.2 1.2 0 0 1 .1-.1z" fill="#69ad29"/><path d="M42.4 46.2a1.2 1.2 0 0 0-.1.1l-1 1.2-1 1-.8 1q-.5.5-1 1c-.5.4-1 .8-1.4 1.2l-.4.3a1.1 1.1 0 0 0-.1.1h-.2q-2-2-4.2-4l-1-.8a3.8 3.8 0 0 1-.9-1.3c0-.1-.1-.2-.1-.3.1 0 .1-.1.2-.2a18.6 18.6 0 0 0 1.2-2.2c.3-.6.5-1.2.7-1.8a17 17 0 0 0 .7-2.3c0-.1 0-.2.1-.3a.5.5 0 0 1 .1-.1l1 1A30.5 30.5 0 0 0 39 44l2.3 1.6c.4.3.8.6 1 1zm-28.7 8.2h.1 1l1-.1.7-.1c.4-.1 1-.1 1.3-.2a17.6 17.6 0 0 0 2.5-.7c.6-.2 1.2-.5 1.7-.7l1-.5 1.2-.7 1.5-1c.3-.2.5-.4.8-.6l1-.8.5-.4 1-1.2a.4.4 0 0 0 0-.1 2.5 2.5 0 0 1 .9.6l1.6 1.8q1.5 1.7 3 3.4c0 .1.1.1.1.2a1.9 1.9 0 0 0-.2.1c-.2.1-.3.2-.5.3l-1.4.6a33 33 0 0 1-1.9.7 24.2 24.2 0 0 1-3 .8c-.4.1-.8.1-1.3.2-.1 0-.2 0-.3.1h-1.7q-.8-.1-1.6-.1l-2.3-.2-1.8-.2-3-.5c-.6-.1-1.2-.3-2-.4a1 1 0 0 1-.1 0z" fill="#7ab933"/><path d="M33 29.5a2.5 2.5 0 0 1 .3.2q1.6 1.6 3.2 3.2l1 1q.4.4.8.8.6.6 1.2 1.3.5.5 1 1l.6.7c.1.2.3.3.5.5l1 1q.6.6 1 1.2.5.5 1 1a.8.8 0 0 1 .1.1.3.3 0 0 0-.1.1q-.4.8-.8 1.6-.4-.5-.8-1L38.5 37l-5-5.6c0 0-.1-.1-.1-.1l-.1-.8c-.1-.4-.2-.8-.2-1.2z" fill="#7ab934"/><path d="M44 43.6q.4-.8.8-1.6a.3.3 0 0 1 .1-.1l.6.7c.1.1.2.3.4.4l.7.8.6.8c.1.1.2.2.3.4l1 1.2c.2.2.4.5.7.7l.6.7.6.7.6.7.5.6.6.7.5.6.7 1 .5.6q.5.5 1 1 .2.3.5.6l.6.8a.4.4 0 0 1 0 .2c-.3-.2-.6-.5-.8-.7L49 49a51 51 0 0 1-4.9-5.2c0 0-.1-.1-.1-.1z" fill="#6aad29"/><path d="M26 56c.1-.1.2-.1.3-.1l1.3-.2a24.2 24.2 0 0 0 3-.8 33 33 0 0 0 1.9-.7l1.4-.6c.2-.1.4-.2.5-.3a1.9 1.9 0 0 1 .2-.1l1 1q1 1 2 2.2l.1.1a.9.9 0 0 1-.1 0q-1.8-.1-3.7-.1h-1l-3-.1-3.3-.2a.5.5 0 0 1-.1 0z" fill="#6aae29"/><path d="M56.2 39h1c.1 0 .1 0 .2 0V40c0 0-.1 0-.1 0q-.5-.5-1-1z" fill="#5c952e"/><path d="M57.4 40h-.1q-.5-.5-1-1l-.7-.6q-2.5-2.3-5-4.6l-.6-.5a2.8 2.8 0 0 1-1-2c-.1-.8-.1-1.6-.2-2.4a7.6 7.6 0 0 0-.7-2.5 12.6 12.6 0 0 0-1.4-2.3l-.1-.2a17.4 17.4 0 0 0-1.3-1.4 12.3 12.3 0 0 0-3.5-2.4 8 8 0 0 0-2.2-.7 4.5 4.5 0 0 0-2.4.3 3 3 0 0 0-1.8 2.2 4.7 4.7 0 0 0-.1 1.9 8.6 8.6 0 0 0 .8 2.7v.1c.2.4.4.7.6 1a13.4 13.4 0 0 0 5.1 4.7 8.6 8.6 0 0 0 2.7.9 19 19 0 0 0 2.3.2 2.6 2.6 0 0 1 1.9.8q.7.8 1.5 1.6 1.5 1.7 3 3.5l.1.1 1 1q1.4 1.6 3 3.2a.6.6 0 0 1 .1.1zm0 16.2a.9.9 0 0 1-.1-.1q-.7-.6-1.3-1a.5.5 0 0 1-.1-.1c-.3-.2-.6-.5-.8-.7L49 49a51 51 0 0 1-4.9-5.2l-.1-.1q-.4-.5-.8-1L38.5 37l-5-5.6-.1-.1-.7-.8q-2-2-3.8-4.2a1.9 1.9 0 0 0-.3-.3l-1.4-1a1.1 1.1 0 0 0-1.3 0 1.3 1.3 0 0 0-.5 1.2 7.3 7.3 0 0 0 .8 2.8 22 22 0 0 0 2.6 4.2l2.8 3.4q.7.8 1.5 1.6s0 .1.1.1l1 1a30.5 30.5 0 0 0 4.8 4.2l2.3 1.6c.4.3.8.6 1 1l.7.6 1.7 1.8 5.5 6.2 1.5 1.8v.1H57zm-16 .5h0a1 1 0 0 1-.7-.3l-4.2-4.2s-.1-.1-.1-.2h-.2q-2-2-4.2-4l-1-.8a3.8 3.8 0 0 1-.9-1.3c0-.1-.1-.2-.1-.3a3.2 3.2 0 0 1-.2-.9l-.3-2.3a3.4 3.4 0 0 0-1.1-2.1l-3.2-2.8q-1.5-1.3-3-2.6l-2.6-2.4-.1-.1a.3.3 0 0 0-.4 0c-.1.1-.1.2 0 .4l1 1q2.4 2.7 4.8 5.4a1 1 0 0 1 .1.2.3.3 0 0 1 0 .3.3.3 0 0 1-.3.1 1.6 1.6 0 0 1-.3-.2Q22.3 37 20 34.8q-.7-.7-1.4-1.4a1.6 1.6 0 0 0-.1-.1.2.2 0 0 0-.4 0 .2.2 0 0 0 0 .4l.3.4q2.7 3 5.3 6c.1.1.2.2.2.3a.2.2 0 0 1 0 .3.3.3 0 0 1-.3 0 1.3 1.3 0 0 1-.3-.2q-.6-.6-1.2-1-1.8-1.7-3.6-3.5l-1-1a.5.5 0 0 0-.5-.2c-.1 0-.2.1-.2.2a.5.5 0 0 0 .2.4q.7.7 1.3 1.4 2 2 4 4.2l.4.4.1.1c.1.1.2.3.1.4a.5.5 0 0 1-.4.3.3.3 0 0 1-.3-.1L22 42q-2.6-2.5-5.2-5l-.6-.6a.6.6 0 0 0-.5-.2.6.6 0 0 0 .1.6l3.2 4 4 5a4.2 4.2 0 0 0 2.5 1.5l2 .3a3.2 3.2 0 0 1 1.3.3 2.5 2.5 0 0 1 .9.6l1.6 1.8q1.5 1.7 3 3.4c0 .1.1.1.1.2l1 1q1 1 2 2.2h.1a.9.9 0 0 1-.1 0z" fill="#fff"/><path d="M391.8 25.3v.5a14.4 14.4 0 0 1-.3 2.6 18.2 18.2 0 0 1-.6 2.7 14.6 14.6 0 0 1-1 2.3 8.8 8.8 0 0 1-2.1 2.5 7.7 7.7 0 0 1-3.6 1.8 7.2 7.2 0 0 1-2 .1 6.9 6.9 0 0 1-1.6-.4 6.5 6.5 0 0 1-1.4-.7 4.9 4.9 0 0 1-1.3-1.3 7.5 7.5 0 0 1-.7-1.2 8.6 8.6 0 0 1-.7-2 12.4 12.4 0 0 1-.2-1.3 6.9 6.9 0 0 1-.1-1.1l.2-2a22.8 22.8 0 0 1 1.2-4.7 4.8 4.8 0 0 1 .5-1.2 5.4 5.4 0 0 0 .3-.7 8.5 8.5 0 0 1 2-2.5 4 4 0 0 1 1.3-.9 5.2 5.2 0 0 1 2-.8 5.8 5.8 0 0 1 2.5-.1 6.2 6.2 0 0 1 2.2.8 5.9 5.9 0 0 1 2.1 2.1 8.9 8.9 0 0 1 1.2 3.7c0 .3.1.6.1 1v1zm-3.4-.8v-.8a7.1 7.1 0 0 0-.4-2.3 2.8 2.8 0 0 0-.7-1 1.7 1.7 0 0 0-.7-.4 2 2 0 0 0-1.3.1 5.3 5.3 0 0 0-1.9 1.3 9.9 9.9 0 0 0-1.4 1.9 11.9 11.9 0 0 0-1.5 5.5 10.8 10.8 0 0 0 .1 2 11.3 11.3 0 0 0 .3 1.4 3.7 3.7 0 0 0 .6 1.3 2.3 2.3 0 0 0 2.6.9 4.2 4.2 0 0 0 1.7-1 7.4 7.4 0 0 0 1.7-2.5 12.9 12.9 0 0 0 .9-3.5 19.3 19.3 0 0 0 .2-2.8zm4 13l.5-2.4.5-2.3.5-2.3q.2-1 .5-2.3.2-1.2.5-2.3l.5-2.3c.2-.8.3-1.5.4-2.3a2 2 0 0 0-.3-.1H394h-.5a.7.7 0 0 1-.1-.2l.4-2a3.2 3.2 0 0 1 .4-.2l3.7-1 1-.4 1.8-.6a2.5 2.5 0 0 1 .4-.1.7.7 0 0 1 .1.6l-1 3.8q-.4 1.8-.7 3.5-.4 1.8-.7 3.5-.5 2.3-1 4.6-.5 2.3-1 4.5l-.1.1a7.6 7.6 0 0 1-1.4 0h-1-1.5zm-23.4 0a9.8 9.8 0 0 1 .3-1.5l.3-1.5.3-1.4.3-1.5.3-1.5.3-1.4.3-1.5.3-1.5.3-1.4.3-1.5a6.4 6.4 0 0 0 .2-1.5c-1-.1-1.7 0-2.5-.1a10.4 10.4 0 0 1 .4-2.1c.1 0 .3-.1.4-.2l4-1.2 1.6-.5 1.2-.3a.4.4 0 0 1 .2 0 .5.5 0 0 1 0 .4l-1.2 5.6-1 5.7-1 5-.7 3.4h0a.3.3 0 0 1-.3.3 1.6 1.6 0 0 1-.2 0q-1.8 0-3.6 0h-.3zm-1 6.8a7.8 7.8 0 0 1 0-1.4 2.8 2.8 0 0 1 .3-.1h.4q15.5 0 31 0a2.3 2.3 0 0 1 .7 0 6.6 6.6 0 0 1 0 1.4 3 3 0 0 1-.3.1h-.4q-15.5 0-31 0a2.5 2.5 0 0 1-.8-.1z" fill="#464646"/></svg>