<svg xmlns="http://www.w3.org/2000/svg" xmlns:xlink="http://www.w3.org/1999/xlink" viewBox="0 0 3610 705"><clipPath id="A"><path d="M0 0h4575.65v1000H0z"/></clipPath><g fill="#464546"><path d="M959.358 400.17l-24.5 141.5c-3 16.5-16 17-29 17-22.5 0-34.5-1.5-30.5-24 1.5-10 6-28 11.5-60 3-21 7-49.5 5-52.5-5.5-8.5-37-5-36.5-5-16 0-27.5 1.5-30.5 22-4 25-7.5 59.5-11.5 85.5-1.5 9-3.5 17.5-5.5 26-6.5 2.5-13.5 2.5-20 2.5-9.5 0-30.5-.5-28.5-13.5l11.5-73c2-16 3-32.5-9-41-11.5-7.5-3-24 5-37 12 2.5 18.5-17.5 20.5-30.5 2-12.5 6.5-49.5 8.5-63 5.5-33 12.5-46.5 43-46.5 12 0 22.5 1.5 19.5 18-3.5 23-14.5 68-18 91-4.5 26 6.5 24 22 24 26 0 46 8 49.5-13.5l14.5-82.5c3.5-20.5 10-38 33-38 8.5 0 25.5 0 30 7-7.5 31-23 104-30 145.5z"/><use xlink:href="#H"/><path d="M1393.354 464.17c-5 32.5-51 93-87 93-50.5 0-47.5-44.5-44-70-10 4.5-27.5 65-73.5 65-42.5 0-42-55.5-37-87.5 7-45.5 35-105.5 90.5-105.5 36.5 0 29.5 40.5 40.5 43 1-3.5 2-7.5 2.5-11.5 2.5-16 4.5-30 26.5-30 28 0 25.5 10 21.5 34.5-4.5 28-11.5 55.5-16 83.5-2 12.5-8 37.5 10 37.5 29.5 0 49-38.5 60-56 2.5-4 7-3 6 4zm-188.5-4.5c-1.5 11.5-6 53 10.5 53 23 0 42.5-60 45-78 2-12.5 4.5-49-14-49-26 0-38.5 56-41.5 74z"/><path d="M1521.353 476.67c-6 37.5-44.5 80-83.5 80-74 0-55.5-80.5-47-133 2.5-17 8-37 11-54 2.5-17.5 15-82 22-114.5 6.5-15.5 14-15 26.5-15 25.5 0 26.5 12 23 35-9.5 59-26.5 118-35.5 177-4 24-10.5 72 23.5 72 27.5 0 47-47.5 57-62.5 3.5 4 4 9.5 3 15z"/><use xlink:href="#I"/><use xlink:href="#J"/><path d="M1970.347 460.67c-11 23-33 75.5-57.5 88.5-25 12.5-46 4-55-17.5-11-25.5 10.5-113.5 15-145.5 5-38.5 50-23.5 52-12 2.5 13-36 133.5-11 134.5 21 1 52-99.5 58-115.5 4.5-12.5 8.5-24 20.5-27 9-2.5 42.5-7.5 45.5 2 2 6-13 70-15 81-5 21.5-27.5 150.5-29 172.5-1 22.5-4.5 47-21 52.5-44 15-39.5-18-30.5-62 6.5-28.5 6.5-34 12-63l16-88.5zm140 46c-3 21.5-7 51-35.5 51-32 0-34.5-7.5-30-38 5.5-34.5 23.5-125 27-147.5 3-18 20-116.5 36-119.5 10-2 20-4 30-4 18.5 0 17 14.5 14.5 29.5-2.5 16.5-7.5 33-10 49 0 2.5-2.5 16.5 2 16.5 6 0 64.5-82.5 87-97 .5-.5 1-.5 2-.5 9 0 23.5 28 22 37-3.5 22.5-80 80.5-83 99.5-3 18.5 69 148 67.5 157-2 12.5-47.5 27.5-54 14-10-19-56-128-62.5-129.5l-13 82.5zm289-38c-5 33.5-41.5 87-79.5 87-51 0-52.5-32.5-45.5-77 4.5-26 10-51.5 15.5-77.5s3.5-39 37-39c26 0 22.5 15 19.5 36.5-3.5 22.5-10.5 45-14 67.5-2 14.5-9.5 54 12.5 54 35.5 0 37.5-69.5 54-70.5 2 6 2 12.5.5 19zm-70-133.5c-14 0-26.5-29-24.5-41.5 3-19 26.5-32.5 44-32.5 16.5 0 23.5 12.5 21 28s-23 46-40.5 46z"/><use xlink:href="#I" x="876.991"/><path d="M2654.342 466.67c-6.5 41.5-50.5 90-95 90-43 0-76-27-66-89.5 8.5-52.5 31-106.5 97.5-106.5 26 0 37 13.5 33 39.5-1.5 9-6.5 27-19.5 27-8 0-7-7.5-6-14 1.5-9 6-24-6.5-24-28 0-41.5 54-45 74-3.5 22-5 64 24 64 50.5 0 73.5-60.5 81.5-67.5.5 2 3 2.5 2 7z"/><use xlink:href="#J" x="1022.988"/><use xlink:href="#H" x="1895.477"/><path d="M3292.33 471.17c-4 23-27 57-43.5 70-11 8-28.5 14.5-44.5 14.5-27 0-46.5-13.5-38.5-64 3-19 8-41.5 11-60.5 4.5-27.5 1.5-41.5-8-41.5-15.5 0-48.5 80-60 121.5-8 27-9 43-48 43-21.5 0-26.5-8.5-20-48 4.5-29.5 9-48 13-73.5 2-13 2.5-23.5 4.5-36 4-23 9-37 31-37 29.5 0 32 7 29 25.5-1.5 10.5-6 23.5-7.5 36-1.5 6.5-1.5 13-.5 19 11.5-2.5 15-17 27.5-38 15-27 32-41 65-41s36.5 14 30.5 52.5c-3 18-8 38.5-11 55.5-4.5 28-2 44.5 15.5 44.5 25 0 41-48.5 53.5-53.5 1 3 1.5 6.5 1 11z"/><path d="M3376.447 304.622l-35.743 175.683h-32.94l28.735-142.5h-23.362l2.803-14.484 60.507-18.7zm119.848 116.108c-2.805 10.747-6.776 20.092-11.682 28.268-38.547 62.6-141.807 41.35-104.195-81.3 3.738-12.15 7-18.924 12.15-28.27 36.912-63.3 135.5-42.986 103.728 81.3zm-92.28-27.8c-12.85 93.448 61.208 82.233 71.72 2.803 15.653-112.372-62.377-68.685-71.72-2.803zm178.013-88.308l-35.743 175.683h-32.94l28.735-142.5h-23.362l2.803-14.484 60.507-18.7z" stroke="#464546" stroke-width="5" stroke-miterlimit="10"/><path d="M3297.155 541.826v-13.598h284.873v13.598h-284.873z"/></g><g fill="#8dc641" stroke="#8dc641" stroke-miterlimit="10" stroke-width="2"><path d="M936.837 614.474h-15.77v-5.48h37.885v5.48h-15.77v47.547h-6.342v-47.547z"/><use xlink:href="#K"/><use xlink:href="#L"/><use xlink:href="#K" x="123.828"/><use xlink:href="#L" x="123.828"/><use xlink:href="#M"/><path d="M1244.915 609.128l3.054-.2 4.615-.166c3.763 0 6.983.476 9.662 1.428.907.3 1.804.74 2.7 1.295a13.83 13.83 0 0 1 2.922 2.49c1.018 1.15 1.804 2.446 2.357 3.885.642 1.683.963 3.53.963 5.545 0 3.276-.83 6.143-2.5 8.6-.643.952-1.406 1.826-2.3 2.623a16.76 16.76 0 0 1-2.225 1.693c-1.395 1.02-2.9 1.716-4.516 2.092v.133l13.746 17.896 4.217 5.445v.133h-7.604l-16.734-22.512h-2.258v22.512h-6.1l.002-52.892zm19.856 14.676c0-6.3-3.675-9.463-11.023-9.463-1.174 0-2.08.044-2.723.133v20.02c.154.022.432.033.83.033l1.162.033c2.103 0 4.05-.4 5.844-1.23 1.704-.82 3.043-1.893 4.018-3.22 1.262-1.704 1.893-3.785 1.893-6.242l-.001-.065zm35.1-9.33h-15.77v-5.48h37.885v5.48h-15.77v47.547h-6.342v-47.547z"/><use xlink:href="#N"/><path d="M1433.78 633.067h16.336v5.48h-16.336v23.475h-6.3v-53.025h24.006v5.545h-17.697v18.526zm70.28-18.593h-15.77v-5.48h37.885v5.48h-15.77v47.547h-6.342v-47.547z"/><use xlink:href="#K" x="567.222"/><use xlink:href="#L" x="567.223"/><use xlink:href="#K" x="691.05"/><use xlink:href="#N" x="358.774"/><path d="M1789.732 608.497h.664l16.8 32.64 2.9 5.7 1.527 3.154h.066l1.428-3.088 2.922-5.7 17.332-32.705h.697l5.9 53.523h-6.375l-2.2-20.818c-.753-7.282-1.185-12.606-1.295-15.97h-.133c-1.02 2.413-2.2 4.947-3.52 7.604l-1.926 3.785-2.092 3.984-4.482 8.6-6.275 11.654h-.73l-6.176-11.72-4.45-8.6-2.025-4.084c-.73-1.438-1.373-2.756-1.926-3.95-1.328-2.812-2.4-5.28-3.188-7.404h-.133l-.498 6.873-.93 9.23-2.258 20.818h-6.1l6.475-53.522z"/><use xlink:href="#O"/><path d="M2081.402 646.913c0 5.578-2.513 9.772-7.537 12.584-2.878 1.683-7.117 2.523-12.717 2.523l-3.154-.1-3.785-.232v-52.494l2.4-.2c2.258-.1 4.27-.166 6.043-.166 3.188 0 5.932.432 8.234 1.295.907.376 1.748.808 2.523 1.295 1.04.664 1.947 1.438 2.723 2.324a11.74 11.74 0 0 1 2.158 3.619c.598 1.57.896 3.3.896 5.213 0 6.3-2.934 10.204-8.8 11.688v.166c3.1.465 5.666 1.76 7.703 3.885 2.213 2.302 3.32 5.146 3.32 8.533v.066h.001zm-8.632-24.006c0-2.723-.93-4.858-2.8-6.408-1.705-1.438-3.93-2.158-6.674-2.158-1.218 0-2.236.044-3.055.133v17.432a14.36 14.36 0 0 0 .764.066h.863c1.66 0 3.2-.2 4.648-.63a8.54 8.54 0 0 0 4.283-2.789c1.306-1.57 1.96-3.43 1.96-5.578v-.067h.001zm2.058 23.74c0-2.147-.653-4.007-1.96-5.578-1.13-1.372-2.635-2.4-4.516-3.055-1.86-.554-3.675-.83-5.445-.83l-2.656.1v18.96c0 .044.02.066.066.066l1.328.133h1.195c2.368 0 4.404-.365 6.1-1.096a10.27 10.27 0 0 0 3.72-2.723c1.438-1.683 2.158-3.652 2.158-5.9v-.066h.001zm22.072-37.652h24.006v5.545H2103.2v17.697h16.336v5.445H2103.2v18.693h18.428v5.645h-24.736l-.001-53.025z"/><use xlink:href="#M" x="943.879"/><path d="M2199.685 614.474h-15.77v-5.48h37.885v5.48h-15.77v47.547h-6.342l-.001-47.547zm56.215 34.366c0 3.72-1.373 6.896-4.117 9.53-3.033 2.944-7.095 4.416-12.186 4.416-2.944 0-5.6-.4-7.97-1.23l.266-5.943 2.457.83c1.638.398 3.408.598 5.312.598 2.6 0 4.792-.74 6.607-2.225 1.926-1.57 2.9-3.63 2.9-6.176 0-3-1.494-5.82-4.482-8.434l-3.287-2.8a94.46 94.46 0 0 1-3.02-2.723c-3.852-3.785-5.777-7.847-5.777-12.186 0-3.785 1.34-6.973 4.018-9.562 2.9-2.833 6.773-4.25 11.62-4.25 2.523 0 4.537.232 6.043.697-.133 1.903-.222 3.83-.266 5.777h-.133c-.775-.288-1.527-.465-2.258-.53-.775-.2-1.727-.3-2.855-.3-2.8 0-5.07.73-6.84 2.2-1.838 1.46-2.756 3.387-2.756 5.777 0 2.48.996 4.792 2.988 6.94.752.774 1.826 1.76 3.22 2.955l3.785 3.287c2.28 2.125 3.918 4.073 4.914 5.844 1.217 2.2 1.826 4.67 1.826 7.438v.07zm48.298 13.18h-6.3v-53.025h6.3v53.025zm58.82.665h-.764l-30.05-34.896-4.217-5.213h-.133l.066 4.914v34.53h-5.844v-53.8h.664l28.555 33.37 5.744 6.873h.133l-.066-5.113v-34.365h5.9l.001 53.7zm55.236-48.21h-15.77v-5.48h37.885v5.48h-15.77v47.547h-6.342l-.001-47.547z"/><use xlink:href="#K" x="1481.418"/><use xlink:href="#L" x="1481.418"/><path d="M2577.204 608.995h6.3V633l17.365-21.383 1.96-2.623h7.404v.133l-4.78 5.9-16.004 19.158 18.693 22.512 3.52 4.184.896.996V662h-8.035l-6.176-7.604-14.842-17.83V662h-6.3l.001-53.026zm53.484 53.025h-6.3v-53.025h6.3v53.025zm28.78-47.546h-15.77v-5.48h37.885v5.48h-15.77v47.547h-6.342v-47.547zm32.135 20.752c0-8.2 2.756-14.775 8.268-19.756 5.38-4.825 12.33-7.238 20.852-7.238a46.05 46.05 0 0 1 3.088.1l2.258.166c1.814.243 3.342.52 4.582.83l-.232 5.9h-.2c-.73-.222-1.705-.454-2.922-.697-1.815-.354-3.918-.53-6.3-.53-6.906 0-12.374 1.915-16.402 5.744-4.073 3.852-6.1 9.075-6.1 15.672 0 6.375 2.06 11.577 6.176 15.605 4.072 3.962 9.264 5.943 15.572 5.943 2.567 0 4.836-.2 6.807-.598.465-.1.974-.222 1.527-.398l1.527-.498.266 5.777c-1.262.442-2.8.808-4.615 1.096a46.46 46.46 0 0 1-6.309.432c-7.792 0-14.3-2.4-19.5-7.205-5.557-5.1-8.334-11.854-8.334-20.287v-.067h-.002z"/><use xlink:href="#K" x="1774.355"/><use xlink:href="#O" x="948.38"/><path d="M2884.592 662.685h-.764l-30.05-34.896-4.217-5.213h-.133l.066 4.914v34.53h-5.844v-53.8h.664l28.555 33.37 5.744 6.873h.133l-.066-5.113v-34.365h5.9v53.7z"/></g><g clip-path="url(#A)" transform="matrix(1.042372 0 0 1.042372 -327.419952 -171.818008)"><path d="M591.612 451.975c45.367 97.3 388.434 373.034 388.434 373.034s9.287-440.038-36.08-537.338c-45.378-97.3-161.032-139.393-258.336-94.03-97.297 45.374-139.39 161.035-94.018 258.333" fill="#79b042"/><filter id="B"><feBlend mode="multiply" in2="BackgroundImage" in="SourceGraphic"/></filter><g opacity=".3" filter="url(#B)"><clipPath id="C"><path transform="matrix(1 0 0 -1 0 1000)" d="M584.725 174.99H980.82v478.864H584.725z"/></clipPath><g clip-path="url(#C)"><path transform="matrix(1 0 0 -1 919.6455 397.94819)" d="M0 0c-89.66-89.66-230.978-101.97-334.92-37.078 2.034-5.696 4.277-11.36 6.888-16.948C-282.666-151.325 60.4-427.06 60.4-427.06s6.853 326.088-20.2 478.864C29.193 33.264 15.816 15.816 0 0" fill="#79b042"/></g></g><g opacity=".3" filter="url(#B)"><clipPath id="D"><path transform="matrix(1 0 0 -1 0 1000)" d="M584.725 174.99h396.09v389.983h-396.09z"/></clipPath><g clip-path="url(#D)"><path transform="matrix(1 0 0 -1 655.9844 521.5127)" d="M0 0c-24.143 24.143-43.98 51.15-59.707 79.947-3.867 2.156-7.78 4.18-11.553 6.54 2.034-5.697 4.278-11.362 6.888-16.95 45.367-97.3 388.434-373.034 388.434-373.034s1.984 94.904-.423 206.278C209.765-119.115 86.72-86.72 0 0" fill="#79b042"/></g></g><path d="M607.01 436.576c97.296 45.37 373.035 388.433 373.035 388.433s-440.044 9.292-537.34-36.078c-97.304-45.375-139.398-161.03-94.03-258.337C394.05 433.3 509.71 391.206 607.01 436.576" fill="#8dc641"/><g opacity=".3" filter="url(#B)"><clipPath id="E"><path transform="matrix(1 0 0 -1 0 1000)" d="M471.038 174.216h509.008V491.59H471.038z"/></clipPath><g clip-path="url(#E)"><path transform="matrix(1 0 0 -1 636.332 730.30667)" d="M0 0c-45.082-45.082-105.13-67.768-165.294-68.104 134.17-34.478 509.008-26.598 509.008-26.598s-162.46 202.12-281.987 316.6C79.896 144.578 59.335 59.334 0 0" fill="#8dc641"/></g></g><g opacity=".3" filter="url(#B)"><clipPath id="F"><path transform="matrix(1 0 0 -1 0 1000)" d="M615.125 174.222h364.92V347.03h-364.92z"/></clipPath><g clip-path="url(#F)"><path transform="matrix(1 0 0 -1 776.5381 738.0215)" d="M0 0c-44.88-44.882-102.022-71.423-161.413-79.66 160.894-11.603 364.92-7.327 364.92-7.327S137.122-4.416 58.032 85.052C44.396 54.038 25.094 25.093 0 0" fill="#8dc641"/></g></g><g fill="#fff"><path d="M762.796 824.73c7.318.327 23.305.916 29.586.252 0 0-2.186.001 0 0l-81.9-80.296-34.284-32.988c-7.878-7.132-12.495-15.652-13.774-26.28l-3.048-25.368c-1.26-10.915-5.734-20.133-13.7-27.416-4.563-4.2-9.423-8.06-14.038-12.183l-87.344-78.14c-1.697-1.5-3.658-3.563-6.06-1.07-2.316 2.407.043 4.028 1.4 5.54l65.946 72.777c2.428 2.698 1.953 5.73-1.273 6.446-1.387.3-3.453-.946-4.612-2.1L530.55 555.42c-1.673-1.654-3.394-3.677-5.917-1.246-2.397 2.312-.4 4.068 1.017 5.648l36.118 40.243 29.72 32.6c1.945 2.118 3.04 4.343-.22 6.003-1.043.533-3.477-.657-4.605-1.74l-67.748-65.586c-1.344-1.3-2.587-2.932-4.243-3.616-1.28-.53-3.466-.3-4.6.523-.7.523-.66 2.94-.168 4.16.567 1.392 1.948 2.453 3.048 3.594l65.077 68.252c3.326 3.484 2.887 6.2-1.173 8.4-3.143 1.7-4.623-.672-6.313-2.314l-69.443-67.55c-1.096-1.05-3.438-.828-5.2-1.2.18 1.795-.304 4.127.634 5.273l43.328 52.312 42.568 50.7c7.14 8.802 16.144 14.414 27.03 16.882 8.667 1.955 17.63 2.935 26.536 3.864 9.6 1.003 17.892 4.34 24.284 11.318l30.658 34.104 59.4 68.006c5.07.483 7.378.73 12.115.56m31.682-188.21l-48.708-55.677-96.643-108.3c-5.25-3.724-11.537-8.514-18.162-12.808-9.977-6.48-20.842 2.285-20.536 12.417.2 6.405.954 13.03 2.998 18.955 9.076 26.425 24.275 49.353 41.16 70.943 14.023 17.934 29.496 34.713 44.632 51.74 22.4 25.17 46.767 48.177 75.28 66.543 18.256 11.75 36.054 24.273 50.835 40.103 22.72 24.332 44.796 49.28 66.485 74.534l25.928 30.858c14.046.45 13.327.766 40.346.274 10.018-.137 15.32.06 22.304-.983.312-2.023.05-2.648.096-5.155l-27.65-23.758-44.334-39.296c-24.048-21.16-47.488-42.972-68.72-66.976-15.474-17.478-30.085-35.727-45.3-53.414m40.137-212.566c-12.465-10.876-26.204-19.768-41.922-25.537-11.18-4.1-22.727-6.55-34.975-4.76-14.904 2.183-25.565 10.027-30.682 24.687-2.703 7.777-2.943 15.712-2.027 23.63 1.74 14.9 7.2 28.35 14.604 40.97 11.486 19.527 26.6 35.72 45.015 48.786 11.844 8.404 24.6 15.23 38.986 18.6 11.802 2.752 23.932 3.953 36.173 4.424 2.762.105 5.538.583 8.216 1.23 7.143 1.732 12.258 6.454 16.95 11.625l28.103 31.266 48.47 54.937 19.966 22.065c1.446 1.63-1.443-1.632 0 0 .216-15.297.452-16.94-.567-41.5l-71.448-67.603c-4.603-4.352-9.057-8.9-13.935-12.924-7.246-6-11.055-13.717-11.783-23.17l-2.053-26.68c-1.522-14.44-6.8-27.482-13.83-39.78-8.76-15.358-20-28.658-33.262-40.244"/></g></g><defs ><path id="H" d="M1166.357 468.17c-8 50.5-54 87-103 87-56 0-84.5-44-76-97.5 7-45.5 46.5-95.5 96.5-95.5 34.5 0 51 21 45.5 55-4.5 27.5-24.5 51.5-54.5 51.5-18.5 0-22-6-27.5-13-11.5 28-4 70 30.5 70 57.5 0 74.5-52.5 86.5-70 1.5 4.5 2.5 7.5 2 12.5zm-114.5-41c-1.5 7-.5 14 7.5 14 20 0 35.5-23 38.5-40.5 1.5-8.5.5-22-10.5-22-18.5 0-33.5 34.5-35.5 48.5z"/><path id="I" d="M1593.853 533.17c-22.5 21.5-57.5 30-73.5 13.5-7-6.5-15.5-10.5-15-30.5 1.5-37.5 9.5-59 13.5-93.5l6.5-42.5c-14 1-21.5 1-26-8.5-2-3.5-.5-7 2.5-8 9-2.5 19-2.5 26-1.5 5-20 9.5-45 25.5-45 26.5 0 34.5 0 32.5 15.5l-3.5 28c7.5.5 16.5.5 28.5.5 11 0 9.5 18-4 20-11.5 1.5-25 1-31.5 0-1 41-34.5 147-.5 140 24-5 43-53.5 55-59.5 5.5 19-18 54-36 71.5z"/><path id="J" d="M1872.35 474.17c-7 44-45.5 83-91 83-53.5 0-37.5-63-31.5-99 2-14 18.5-68-4-68-34 0-64.5 141.5-83 162.5-4.5 5-16.5 5.5-22 5.5-14 0-31-4.5-31.5-20.5-1.5-34 10.5-79.5 16-115 2.5-14.5 7.5-29 10-43l20-116c3.5-17 13-23.5 29-23.5 38 0 29.5 22 24.5 54.5-7 42-19.5 84-26 126.5-1.5 6.5.5 7.5 6.5 9 16-23.5 18-71 84-71 52.5 0 42.5 41 36 82-3 18.5-20 78.5 9 78.5 29.5 0 40.5-54.5 52-58 2.5 3.5 2.5 8 2 12.5z"/><path id="K" d="M1011.338 662.02h-6.342v-24.27h-26.73v24.27h-6.3v-53.025h6.3v23.242h26.73v-23.242h6.342v53.025z"/><path id="L" d="M1029.194 608.995h24.006v5.545h-17.697v17.697h16.336v5.445h-16.336v18.693h18.428v5.645h-24.736l-.001-53.025z"/><path id="M" d="M1199.965 647.112l-2.855 6.973-2.158 5.213-.266.664-.2.564-.564 1.494h-6.54l22.512-53.922h.797l21.715 53.922h-6.94l-.332-1.062-5.512-13.846h-19.658zm17.597-5.28v-.2l-5.6-14.775-1.86-5.38h-.133l-1.96 5.38-5.943 14.975 15.505-.001z"/><path id="N" d="M1412.538 635.292c0 7.66-2.557 14.134-7.67 19.424-5.225 5.423-11.754 8.135-19.6 8.135-7.482 0-13.824-2.656-19.025-7.97-5.18-5.27-7.77-11.6-7.77-19.025 0-7.813 2.634-14.354 7.902-19.623 5.3-5.3 11.908-7.936 19.855-7.936 7.525 0 13.8 2.6 18.826 7.77 4.98 5.157 7.47 11.544 7.47 19.158v.066h.001zm-6.674.2c0-6.043-1.938-11.112-5.8-15.207-3.896-4.14-8.755-6.2-14.576-6.2-5.756 0-10.58 2.08-14.477 6.242-3.852 4.117-5.777 9.197-5.777 15.24 0 5.888 1.947 10.913 5.844 15.074 3.94 4.228 8.787 6.342 14.543 6.342 5.82 0 10.67-2.08 14.543-6.242 3.807-4.095 5.7-9.153 5.7-15.174v-.066z"/><path id="O" d="M1855.17 608.995h24.006v5.545h-17.697v17.697h16.336v5.445h-16.336v18.693h18.428v5.645h-24.736v-53.025z"/></defs></svg>