<svg xmlns="http://www.w3.org/2000/svg" viewBox="0 0 401.7065 57.8607">
	<defs>
		<style>.cls-1{fill:#464646;}.cls-2{fill:#8dc641;}.cls-3{fill:#7ab142;}.cls-4{fill:#67a133;}.cls-5{fill:#579228;}.cls-6{fill:#69ad29;}.cls-7{fill:#7ab933;}.cls-8{fill:#7ab934;}.cls-9{fill:#6aad29;}.cls-10{fill:#6aae29;}.cls-11{fill:#5c952e;}.cls-12{fill:#fff;}</style>
	</defs>
	<title>Healthyrecipe101_logo</title>
	<g id="healthyrecipes">
		<path class="cls-1" d="M87.564,46.9454H82.2562c-.68,0-.8161-.0954-.8161-.9529V32.8456c0-2.0008-.5447-3.3342-2.5858-3.3342a7.68,7.68,0,0,0-4.7177,1.8576V45.9925c0,.81-.1363.9529-.9076.9529H68.0581c-.59,0-.7258-.1908-.7258-.8575V14.792c0-1,.4078-1.2858,1.1336-1.3812l4.1282-.5713a3.9428,3.9428,0,0,1,.7258-.0478c.5446,0,.8167.2857.8167,1v11.67a11.1934,11.1934,0,0,1,6.9406-2.3813c4.9443,0,7.2126,3.3343,7.2126,8.4785V45.9925C88.29,46.8023,88.1989,46.9454,87.564,46.9454Z"/>
		<path class="cls-1" d="M112.239,37.2283H99.538a5.703,5.703,0,0,0,5.8513,4.6677,14.7019,14.7019,0,0,0,5.7161-1.2386,1.1662,1.1662,0,0,1,.5441-.1425.7461.7461,0,0,1,.7258.6667,31.1839,31.1839,0,0,1,.8621,3.7153c0,.62-.4083.81-.8621,1.0484a20.2469,20.2469,0,0,1-8.21,1.6192c-7.2126,0-11.7946-4.6678-11.7946-12.2893,0-7.3835,4.7631-12.2421,11.7491-12.2421a9.168,9.168,0,0,1,7.0315,3.0486c2.2677,2.5244,2.7215,5.8115,2.7215,9.1458v.619C113.8724,36.99,113.3732,37.2283,112.239,37.2283Zm-8.5279-8.67c-2.2683,0-3.7653,1.9054-4.0828,4.1441h7.5755C107.2038,30.6546,106.07,28.5584,103.7111,28.5584Z"/>
		<path class="cls-1" d="M139.0029,46.9454h-2.4046c-2.676,0-3.7647-.81-4.3548-2.191h-.09a9.4848,9.4848,0,0,1-6.3511,2.81c-6.5322,0-9.5717-5.43-9.5717-11.7657,0-8.4313,4.99-12.718,9.98-12.718a6.68,6.68,0,0,1,5.5344,2.6675l.1357-1.0484a1.0236,1.0236,0,0,1,1.0433-.9524h4.0828a1.026,1.026,0,0,1,1.0887,1.1433V41.3247c0,.4765.1817.81.68.81h.3629c.6355,0,.953.2379.953.9524V45.85A1.0119,1.0119,0,0,1,139.0029,46.9454Zm-7.7118-16.3385a6.0271,6.0271,0,0,0-3.6745-1.62c-2.2228,0-4.3094,1.9054-4.3094,6.3351,0,2.9538.7259,6.4789,4.1737,6.4789a5.5754,5.5754,0,0,0,3.81-2.0008Z"/>
		<path class="cls-1" d="M149.3436,46.9454h-4.4a1.1469,1.1469,0,0,1-1.2245-1.2863V14.7443c0-.9524.4078-1.2381,1.0882-1.3335l4.31-.6191h.4532c.6355,0,.953.4283.953,1.19v31.63C150.5232,46.5166,150.0694,46.9454,149.3436,46.9454Z"/>
		<path class="cls-1" d="M170.21,46.3264a13.6928,13.6928,0,0,1-5.8064,1.2381c-2.54,0-4.5814-.6191-5.8064-2.1434-1.4516-1.81-1.5419-3.763-1.5419-7.6692V28.6061H155.24c-1.0881,0-1.27-.2857-1.27-1.572V24.9862a1.0975,1.0975,0,0,1,1.0433-1.2387H157.1V18.7458c0-.9529.59-1.1432,1.4068-1.2386l4.0822-.5713h.2726c.68,0,1.0433.381,1.0433,1.2386v5.573h4.8989c.6349,0,1.0887.2857,1.0887,1v2.763a1.012,1.012,0,0,1-1.0887,1.0955h-4.9444V37.895c0,2.4767.3175,4.001,2.3132,4.001a9.0471,9.0471,0,0,0,2.9032-.5713,1.9183,1.9183,0,0,1,.6355-.1431c.3629,0,.5441.238.6349.6667l.5441,3.0486a1.3833,1.3833,0,0,1,.0454.4288C170.9354,45.85,170.7088,46.0879,170.21,46.3264Z"/>
		<path class="cls-1" d="M194.5689,46.9454h-5.3078c-.68,0-.8161-.0954-.8161-.9529V32.8456c0-2.0008-.5446-3.3342-2.5857-3.3342a7.68,7.68,0,0,0-4.7177,1.8576V45.9925c0,.81-.1363.9529-.9076.9529h-5.1715c-.5895,0-.7258-.1908-.7258-.8575V14.792c0-1,.4084-1.2858,1.1342-1.3812l4.1282-.5713a3.94,3.94,0,0,1,.7258-.0478c.5441,0,.8167.2857.8167,1v11.67a11.1931,11.1931,0,0,1,6.94-2.3813c4.9444,0,7.2126,3.3343,7.2126,8.4785V45.9925C195.2947,46.8023,195.2039,46.9454,194.5689,46.9454Z"/>
		<path class="cls-1" d="M220.1521,25.081,211.171,49.5653c-2.0865,5.6684-4.8086,7.7646-10.7059,7.7646a12.2921,12.2921,0,0,1-2.7215-.2857c-.59-.1431-.8166-.3816-.8166-.9053a3.0666,3.0666,0,0,1,.0454-.619l.4083-3.0015c.1358-.9047.3629-1.0478.8616-1.0478h.3174c.59.0477,1.1342.1431,1.6334.1431,3.0844,0,3.9465-1.0006,4.8534-3.0486l.6355-1.4288-8.4376-22.1024a2.1972,2.1972,0,0,1-.0908-.4765.7936.7936,0,0,1,.8166-.81h5.489A1.2871,1.2871,0,0,1,204.82,24.7l4.31,14.1475,3.9913-13.7187A1.5952,1.5952,0,0,1,214.8,23.7475h4.6717a.7571.7571,0,0,1,.7713.81A2.5588,2.5588,0,0,1,220.1521,25.081Z"/>
		<path class="cls-1" d="M236.7082,24.4143l-.68,4.4775c-.0909.5242-.3169.7621-.7258.7621h-.2272a5.104,5.104,0,0,0-1.2244-.1425,5.8565,5.8565,0,0,0-4.1731,1.8576V45.6119c0,.857-.3635,1.3335-1.27,1.3335h-4.2639c-.8167,0-1.271-.4288-1.271-1.3335V25.1287c0-1.1432.544-1.3812,1.3153-1.3812h3.6744c.8621,0,1.271.238,1.3165.9524l.09,1.43c1.6333-2.0485,2.9941-3.0486,5.6713-3.0486a6.2929,6.2929,0,0,1,1.27.19.6468.6468,0,0,1,.5441.6191v.0954A1.5377,1.5377,0,0,1,236.7082,24.4143Z"/>
		<path class="cls-1" d="M257.167,37.2283H244.4648a5.7036,5.7036,0,0,0,5.8519,4.6677,14.7,14.7,0,0,0,5.7156-1.2386,1.17,1.17,0,0,1,.5452-.1425.7467.7467,0,0,1,.7258.6667,31.408,31.408,0,0,1,.861,3.7153c0,.62-.4078.81-.861,1.0484a20.2536,20.2536,0,0,1-8.211,1.6192c-7.2126,0-11.7946-4.6678-11.7946-12.2893,0-7.3835,4.7637-12.2421,11.7491-12.2421a9.1648,9.1648,0,0,1,7.0309,3.0486c2.2683,2.5244,2.7226,5.8115,2.7226,9.1458v.619C258.8,36.99,258.3006,37.2283,257.167,37.2283Zm-8.5279-8.67c-2.2683,0-3.7653,1.9054-4.0834,4.1441h7.5761C252.1318,30.6546,250.9971,28.5584,248.6391,28.5584Z"/>
		<path class="cls-1" d="M278.9854,46.1356a14.4709,14.4709,0,0,1-6.9411,1.4289c-6.8946,0-11.1131-4.3344-11.1131-11.8605,0-7.7169,4.4-12.6232,11.6128-12.6232a14.9585,14.9585,0,0,1,6.3051,1.2858.8183.8183,0,0,1,.5895.8575,2.1167,2.1167,0,0,1-.0909.5242l-.7258,3.43c-.0908.4759-.3169.6667-.5895.6667a1.8746,1.8746,0,0,1-.6349-.1908,10.4312,10.4312,0,0,0-3.9925-.9047c-3.5381,0-5.443,2.4767-5.443,6.5731,0,4.335,1.9957,6.6691,5.1261,6.6691a9.7764,9.7764,0,0,0,4.5366-1,1.9515,1.9515,0,0,1,.4986-.1431c.3623,0,.5441.2857.6349.6191a26.0887,26.0887,0,0,1,.953,3.8107C279.7112,45.8022,279.3477,45.9453,278.9854,46.1356Z"/>
		<path class="cls-1" d="M287.059,20.9846a3.6206,3.6206,0,1,1,0-7.24,3.5587,3.5587,0,0,1,3.629,3.6205A3.6122,3.6122,0,0,1,287.059,20.9846Zm2.132,25.9608h-4.0823c-.9529,0-1.4061-.3333-1.4061-1.3812V24.9862c0-.953.5895-1.2387,1.4061-1.2387h4.0823c.8621,0,1.3153.238,1.3153,1.2387v20.578C290.5063,46.5166,290.0985,46.9454,289.191,46.9454Z"/>
		<path class="cls-1" d="M315.0473,44.3256a8.7329,8.7329,0,0,1-7.0309,3.3343,7.33,7.33,0,0,1-5.0806-1.9054V55.8056c0,1.0955-.4986,1.4766-1.4062,1.4766h-4.1288c-.8155,0-1.27-.4765-1.27-1.4289V25.081c0-.9524.4543-1.3335,1.3153-1.3335H300.94c.861,0,1.3153.238,1.4062,1l.0909.953a8.6318,8.6318,0,0,1,12.61.3334c1.9957,2.191,2.9032,5.6207,2.9032,8.9078A14.8007,14.8007,0,0,1,315.0473,44.3256ZM309.83,30.6546a3.5657,3.5657,0,0,0-3.1747-1.7151,5.8711,5.8711,0,0,0-3.72,1.7151v9.7171a5.548,5.548,0,0,0,3.5836,1.5243,3.76,3.76,0,0,0,3.0395-1.572,8.0414,8.0414,0,0,0,1.3153-4.954A8.9307,8.9307,0,0,0,309.83,30.6546Z"/>
		<path class="cls-1" d="M340.54,37.2283H327.838A5.7036,5.7036,0,0,0,333.69,41.896a14.7,14.7,0,0,0,5.7156-1.2386,1.17,1.17,0,0,1,.5452-.1425.7467.7467,0,0,1,.7258.6667,31.408,31.408,0,0,1,.861,3.7153c0,.62-.4078.81-.861,1.0484a20.2536,20.2536,0,0,1-8.211,1.6192c-7.2126,0-11.7946-4.6678-11.7946-12.2893,0-7.3835,4.7637-12.2421,11.7491-12.2421a9.1648,9.1648,0,0,1,7.0309,3.0486c2.2683,2.5244,2.7226,5.8115,2.7226,9.1458v.619C342.1735,36.99,341.6738,37.2283,340.54,37.2283Zm-8.5279-8.67c-2.2683,0-3.7654,1.9054-4.0834,4.1441h7.5761C335.505,30.6546,334.37,28.5584,332.0123,28.5584Z"/>
		<path class="cls-1" d="M352.5142,47.5645a19.4438,19.4438,0,0,1-7.5749-1.7623.8608.8608,0,0,1-.6349-.8576,2.5561,2.5561,0,0,1,.09-.5713l.9075-3.0009c.1818-.62.3635-.8575.68-.8575a1.7819,1.7819,0,0,1,.7258.19,16.1665,16.1665,0,0,0,5.9882,1.4766c1.4516,0,2.45-.619,2.45-1.6668,0-.9053-.4543-1.3818-2.132-2.0485l-4.0379-1.5721a7.0346,7.0346,0,0,1-4.6263-6.6685c0-5.0971,4.6263-7.145,8.6642-7.145a16.15,16.15,0,0,1,7.1218,1.5243c.4077.19.6349.4288.6349.8093a2.5581,2.5581,0,0,1-.0909.5242l-.9529,3.3342a.7438.7438,0,0,1-.7713.5719,2.2465,2.2465,0,0,1-.4986-.0954,15.1244,15.1244,0,0,0-5.0352-1.1432c-1.4971,0-2.1774.8576-2.1774,1.5243,0,.5719.1817,1.1909,1.7242,1.81l4.5808,1.9053a6.3087,6.3087,0,0,1,4.0834,6.145C361.6328,45.4688,357.0054,47.5645,352.5142,47.5645Z"/>
		<path class="cls-2" d="M33.421,31.4262c-.2368-.2587-.4763-.5152-.71-.7766q-1.8819-2.1039-3.7629-4.2085a1.9134,1.9134,0,0,0-.3082-.2726c-.4476-.3217-.8948-.6446-1.352-.9525a1.0613,1.0613,0,0,0-1.2748-.0013,1.3285,1.3285,0,0,0-.5263,1.1921,7.2792,7.2792,0,0,0,.7549,2.75A21.9975,21.9975,0,0,0,28.8,33.3716c.8893,1.1871,1.8523,2.3131,2.8384,3.42q.7359.826,1.474,1.65c.0272.0305.0492.0657.0736.0988a.4845.4845,0,0,0-.0544.1038c-.0278.1126-.0459.2277-.0729.34a16.99,16.99,0,0,1-.691,2.2814c-.2364.6-.4817,1.1967-.747,1.7842A18.56,18.56,0,0,1,30.38,45.2813c-.0439.07-.0675.1737-.18.1823a3.1667,3.1667,0,0,1-.2145-.9423c-.099-.7789-.1756-1.5612-.2954-2.3369a3.4044,3.4044,0,0,0-1.1262-2.0652c-1.06-.9463-2.1273-1.8834-3.1888-2.8276q-1.484-1.32-2.962-2.6471l-2.6379-2.3576c-.0258-.023-.0512-.0465-.0787-.0672a.2611.2611,0,0,0-.4018.016c-.1146.1229-.1087.2284.0286.38.2915.3222.5858.6419.8776.9637q2.4254,2.6745,4.8492,5.35a.9639.9639,0,0,1,.1446.2.2642.2642,0,0,1-.04.3248.26.26,0,0,1-.3229.0552,1.6456,1.6456,0,0,1-.3123-.2321q-2.2683-2.2382-4.5314-4.4815-.684-.6768-1.3691-1.3524a1.6312,1.6312,0,0,0-.1207-.1131.2492.2492,0,0,0-.369.0082.2361.2361,0,0,0-.0331.3643c.1021.13.2162.25.3272.3732q2.6574,2.9389,5.3153,5.8773c.0785.0869.1595.1726.2289.2667a.2458.2458,0,0,1,.0172.3229.2532.2532,0,0,1-.3384.0486,1.2517,1.2517,0,0,1-.2641-.1952q-.6-.57-1.1923-1.1482-1.8051-1.75-3.6091-3.501c-.3712-.36-.7437-.7192-1.1108-1.0836a.4811.4811,0,0,0-.485-.156c-.1215.0309-.1547.0781-.1633.204a.4893.4893,0,0,0,.16.3874q.6537.6774,1.3017,1.36,2.0149,2.11,4.03,4.22c.1333.14.2654.2807.3979.4211.0189.02.0384.04.0558.0611.0981.121.1915.2528.1254.4132a.533.533,0,0,1-.3952.3036.2807.2807,0,0,1-.2626-.0894c-.0759-.07-.1471-.1455-.2212-.2177q-2.5869-2.5189-5.1742-5.0376c-.2076-.202-.426-.3938-.6234-.6052a.5724.5724,0,0,0-.5462-.1873.6067.6067,0,0,0,.1267.5519c1.087,1.3025,2.1622,2.6148,3.2492,3.9172,1.3522,1.62,2.7158,3.2308,4.0672,4.8515a4.2019,4.2019,0,0,0,2.4708,1.4734c.6965.14,1.4011.2206,2.1068.2963a3.2439,3.2439,0,0,1,1.2655.3488.38.38,0,0,1-.04.0712c-.3465.39-.69.7832-1.0434,1.1667-.1392.1508-.3022.28-.4546.4184-.31.2821-.6149.5694-.9309.8443-.2481.2159-.5.43-.7673.6206-.4968.3553-.9981.7053-1.5122,1.0347-.3987.2555-.8141.4865-1.2323.7094-.3641.1941-.7365.3757-1.116.5374-.5748.2449-1.1534.4831-1.7406.6961a17.6054,17.6054,0,0,1-2.5379.696c-.4422.089-.89.1522-1.3361.22-.2432.0369-.4884.0627-.7334.087-.3.03-.5995.0565-.9.0773-.2874.02-.5756.0294-.8632.0463-.024.0014-.0467.0243-.07.0373-.4312-.1172-.8662-.2223-1.293-.3538a13.9722,13.9722,0,0,1-3.9734-2.0445,16.5236,16.5236,0,0,1-5.4656-6.574A16.7442,16.7442,0,0,1,1.584,41.0193a16.0464,16.0464,0,0,1-.1859-3.5245,16.7727,16.7727,0,0,1,11.8961-15.14,16.1331,16.1331,0,0,1,3.0115-.6162,16.3157,16.3157,0,0,1,2.0843-.1065,16.7993,16.7993,0,0,1,4.3219.6389c.1125.0324.2265.06.34.0892.0512.0192.1019.04.1538.0575a15.9455,15.9455,0,0,1,2.4482,1.0116,18.3763,18.3763,0,0,1,2.22,1.4464c.3368.2459.6616.5083.9919.7632q.2409.2076.482.415c.558.4773,1.1233.9464,1.6725,1.4337.4525.4014.8861.8242,1.3282,1.2375.03.0282.0615.0551.0914.0835.2045.1941.41.3875.6118.584a.2706.2706,0,0,1,.0393.0923c.08.3887.1675.7761.2366,1.1668C33.3726,30.9075,33.3908,31.1679,33.421,31.4262Z"/>
		<path class="cls-3" d="M28.8656,25.639c-.33-.2549-.6551-.5173-.9919-.7632a18.3763,18.3763,0,0,0-2.22-1.4464,15.9455,15.9455,0,0,0-2.4482-1.0116c-.0519-.0173-.1026-.0383-.1538-.0575a16.0742,16.0742,0,0,1-.4932-2.1108c-.08-.5378-.1455-1.0787-.1895-1.62-.0362-.4459-.0474-.8953-.0422-1.3429A16.77,16.77,0,0,1,34.3661,1.3727,14.6986,14.6986,0,0,1,37.65.7594c.5771-.0393,1.1572-.08,1.7345-.0647A16.68,16.68,0,0,1,49.658,4.4479a16.4261,16.4261,0,0,1,4.5894,5.8607,13.4386,13.4386,0,0,1,.8911,2.66c.183.77.3316,1.5484.4939,2.3233a1.2956,1.2956,0,0,1,.0139.1642.8407.8407,0,0,0-.0934.1044c-.096.15-.1833.3066-.2826.4547-.439.6553-.873,1.3128-1.3735,1.926a21.0671,21.0671,0,0,1-1.44,1.637c-.1312.13-.2433.28-.3749.41-.1955.1929-.4.377-.6017.5632-.1513.14-.2995.2834-.4589.4133-.4035.3289-.8063.6592-1.2207.9742a20.8117,20.8117,0,0,1-2.999,1.915,1.506,1.506,0,0,0-.18.1289,17.4446,17.4446,0,0,0-1.33-1.4412,12.2856,12.2856,0,0,0-3.4755-2.3849,8.0135,8.0135,0,0,0-2.2487-.667,4.4558,4.4558,0,0,0-2.3517.2763,3.0357,3.0357,0,0,0-1.7676,2.1783,4.7454,4.7454,0,0,0-.0629,1.8664,8.6105,8.6105,0,0,0,.8491,2.6636c.0182.0365.03.0763.0441.1145q-.7541.0006-1.5082.0011c-.0413,0-.0828,0-.1238-.0034-.3-.0258-.5992-.0539-.8989-.0785-.2116-.0174-.4246-.0211-.6349-.0474-.3725-.0465-.7446-.0992-1.1149-.161-.4312-.0719-.8636-.1419-1.2895-.239-.5472-.1247-1.0877-.2786-1.6332-.4113C29.0115,25.6341,28.9379,25.5677,28.8656,25.639Z"/>
		<path class="cls-4" d="M46.6213,23.983a1.506,1.506,0,0,1,.18-.1289,20.8117,20.8117,0,0,0,2.999-1.915c.4144-.315.8172-.6453,1.2207-.9742.1594-.13.3076-.2737.4589-.4133.202-.1862.4062-.37.6017-.5632.1316-.13.2437-.2795.3749-.41a21.0671,21.0671,0,0,0,1.44-1.637c.5005-.6132.9345-1.2707,1.3735-1.926.0993-.1481.1866-.3043.2826-.4547a.8407.8407,0,0,1,.0934-.1044c.0534.2907.116.58.1586.8722.1261.8656.2547,1.7312.3627,2.5992.1021.82.1845,1.6433.266,2.4661q.1254,1.2651.2311,2.5322c.0527.6249.0959,1.2508.1366,1.8766q.102,1.5684.1945,3.1372c.0351.5987.0662,1.1978.0892,1.7971q.0963,2.5113.1831,5.0229c.033.9854.053,1.9713.078,2.957.0018.0687-.003.1376-.0047.2063-.0745.0089-.1493.0158-.2235.0271-.297.0451-.5939.0916-.8909.1376-.2226-.2048-.4477-.4069-.6674-.6148q-2.4549-2.3232-4.9088-4.6477c-.1951-.1845-.3967-.3627-.6013-.5367a2.7644,2.7644,0,0,1-.9912-1.9747c-.0613-.7964-.1179-1.5934-.1948-2.3884a7.5862,7.5862,0,0,0-.7382-2.5032,12.55,12.55,0,0,0-1.3739-2.2545C46.7059,24.1079,46.6645,24.0447,46.6213,23.983Z"/>
		<path class="cls-5" d="M53.5341,39.42l.8679.9694q1.449,1.6179,2.8992,3.2345a.4312.4312,0,0,1,.1311.3084c.0033,2.6339.0187,5.2678.0161,7.9017-.0014,1.4064-.032,2.8129-.05,4.2193-.0006.0477-.0059.0953-.01.1628a.9014.9014,0,0,1-.1079-.0666q-.669-.57-1.3363-1.1424a.5286.5286,0,0,1-.0532-.0618.4446.4446,0,0,0-.0472-.1509c-.2065-.2561-.4193-.5072-.63-.76q-.2369-.2846-.4731-.57-.4515-.5469-.9023-1.0946c-.1662-.2007-.336-.3985-.5026-.5988-.2455-.295-.4884-.5921-.7347-.8864-.18-.2157-.3654-.4275-.5467-.6425-.19-.2253-.3768-.4532-.5669-.6784-.1813-.2148-.3663-.4267-.5476-.6417-.19-.2252-.3757-.4541-.5664-.6787-.1953-.23-.3961-.4556-.5914-.6857-.1906-.2247-.3745-.4551-.5667-.6785-.2148-.25-.4374-.4925-.6531-.7414-.3323-.3834-.6612-.77-.9924-1.1542-.1075-.1248-.22-.2453-.3267-.3707-.2177-.2557-.43-.5165-.65-.77-.2436-.2793-.4962-.5508-.7413-.8288-.1268-.1439-.24-.3-.37-.441-.2085-.2274-.4252-.4472-.6385-.67a.8483.8483,0,0,0-.081-.138q-.4605-.5269-.9256-1.05Q43.2887,40.1,42.736,39.49c-.3326-.3659-.6707-.7268-1.0043-1.0919-.1526-.167-.3-.3387-.45-.5083.0762-.07.1415.003.2063.0218.5862.17,1.1659.3639,1.7572.5125.7561.19,1.519.3552,2.2832.5105.5418.11,1.089.1977,1.6368.274.433.06.87.0892,1.3061.13.1908.0179.3821.03.5731.0452.3273.0259.6544.0726.9817.0745C51.1955,39.4647,52.3653,39.4807,53.5341,39.42Z"/>
		<path class="cls-4" d="M53.5341,39.42c-1.1688.0612-2.3386.0452-3.508.0382-.3273-.0019-.6544-.0486-.9817-.0745-.191-.0151-.3823-.0273-.5731-.0452-.4357-.0406-.8731-.0695-1.3061-.13-.5478-.0763-1.095-.1639-1.6368-.274-.7642-.1553-1.5271-.32-2.2832-.5105-.5913-.1486-1.171-.3429-1.7572-.5125-.0648-.0188-.13-.0918-.2063-.0218-.2024-.2233-.4035-.4477-.6074-.67q-.5022-.5467-1.0076-1.0907-.5975-.6418-1.1981-1.2806-.396-.4212-.7964-.838c-.3476-.363-.6915-.73-1.046-1.0859q-1.5981-1.606-3.2053-3.203a2.4732,2.4732,0,0,0-.33-.2366.2706.2706,0,0,0-.0393-.0923c-.2021-.1965-.4073-.39-.6118-.584-.03-.0284-.0613-.0553-.0914-.0835-.4421-.4133-.8757-.8361-1.3282-1.2375-.5492-.4873-1.1145-.9564-1.6725-1.4337q-.2418-.2067-.482-.415c.0723-.0713.1459-.0049.2093.0105.5455.1327,1.086.2866,1.6332.4113.4259.0971.8583.1671,1.2895.239.37.0618.7424.1145,1.1149.161.21.0263.4233.03.6349.0474.3.0246.5992.0527.8989.0785.041.0036.0825.0034.1238.0034q.754,0,1.5082-.0011c.2062.35.4007.7065.62,1.0472a13.4314,13.4314,0,0,0,5.0928,4.6708,8.6327,8.6327,0,0,0,2.704.862,18.9708,18.9708,0,0,0,2.2824.215,2.6239,2.6239,0,0,1,1.9021.8236q.7477.8012,1.48,1.6169,1.5489,1.736,3.0871,3.4813C53.4787,39.3415,53.5052,39.3815,53.5341,39.42Z"/>
		<path class="cls-6" d="M42.4138,46.2c.2477.208.5118.4.74.6273.5854.5844,1.1672,1.1734,1.7283,1.7809,1.8626,2.0165,3.671,4.0813,5.45,6.1718.5184.6092,1.0274,1.2264,1.54,1.84.0262.0314.0488.0659.0868.1177a1.0761,1.0761,0,0,1-.1424.02q-3.5482-.0055-7.0966-.0145c-1.0137-.004-2.0274-.0345-3.041-.032a1.0483,1.0483,0,0,1-.8106-.3382c-1.4056-1.4033-2.83-2.7872-4.2483-4.1781-.0488-.0479-.0929-.1007-.1391-.1512a1.0787,1.0787,0,0,1,.133-.1453c.1307-.1.2719-.1861.401-.2878.4843-.382.9719-.76,1.4457-1.1548q.5611-.4674,1.091-.9718c.2836-.27.5482-.56.8123-.85.3284-.36.6578-.7193.9681-1.0945.3273-.3958.6318-.81.9486-1.2152A1.1618,1.1618,0,0,1,42.4138,46.2Z"/>
		<path class="cls-7" d="M42.4138,46.2a1.1618,1.1618,0,0,0-.133.125c-.3168.4047-.6213.8194-.9486,1.2152-.31.3752-.64.7348-.9681,1.0945-.2641.2894-.5287.58-.8123.85q-.5289.5034-1.091.9718c-.4738.3946-.9614.7728-1.4457,1.1548-.1291.1017-.27.188-.401.2878a1.0787,1.0787,0,0,0-.133.1453c-.0511-.0452-.1044-.0883-.1531-.1359q-2.1126-2.0655-4.2253-4.1309c-.281-.274-.571-.539-.8622-.8021a3.7725,3.7725,0,0,1-.95-1.2606c-.0361-.081-.0605-.1672-.09-.251.112-.0086.1356-.1125.18-.1823A18.56,18.56,0,0,0,31.6209,43.05c.2653-.5875.5106-1.1845.747-1.7842a16.99,16.99,0,0,0,.691-2.2814c.027-.1128.0451-.2279.0729-.34a.4845.4845,0,0,1,.0544-.1038c.3147.3376.6271.6774.9446,1.0125a30.5388,30.5388,0,0,0,4.79,4.181c.7768.5365,1.5715,1.0472,2.3466,1.5859C41.6624,45.5946,42.0324,45.9054,42.4138,46.2Z"/>
		<path class="cls-7" d="M13.6779,54.4431c.0233-.013.046-.0359.07-.0373.2876-.0169.5758-.0265.8632-.0463.3-.0208.6-.0476.9-.0773.245-.0243.49-.05.7334-.087.4463-.0678.8939-.131,1.3361-.22a17.6054,17.6054,0,0,0,2.5379-.696c.5872-.213,1.1658-.4512,1.7406-.6961.38-.1617.7519-.3433,1.116-.5374.4182-.2229.8336-.4539,1.2323-.7094.5141-.3294,1.0154-.6794,1.5122-1.0347.2671-.191.5192-.4047.7673-.6206.316-.2749.6212-.5622.9309-.8443.1524-.1387.3154-.2676.4546-.4184.3537-.3835.6969-.7766,1.0434-1.1667a.38.38,0,0,0,.04-.0712,2.4678,2.4678,0,0,1,.8743.6454c.5447.595,1.0907,1.1891,1.6255,1.7929q1.5018,1.6953,2.9913,3.4016c.05.0566.0937.1183.14.1776a1.9279,1.9279,0,0,0-.19.0755c-.1769.0916-.3481.1948-.5275.281-.4521.2174-.9015.4419-1.363.6377-.6125.26-1.2287.5143-1.8554.7367a24.2259,24.2259,0,0,1-2.97.825c-.42.0911-.8492.1428-1.2706.2294-.09.0185-.2128-.018-.2741.0956-.5631-.04-1.1265-.075-1.6892-.12q-.8241-.0657-1.6468-.1473c-.7746-.0761-1.549-.1542-2.3226-.2394-.5956-.0655-1.1916-.131-1.7842-.2183-1.015-.15-2.0295-.3042-3.04-.48-.6236-.1082-1.24-.2585-1.8592-.391A1.0023,1.0023,0,0,1,13.6779,54.4431Z"/>
		<path class="cls-8" d="M33.0908,29.485a2.4732,2.4732,0,0,1,.33.2366q1.6071,1.5971,3.2053,3.203c.3545.3562.6984.7229,1.046,1.0859q.4.4175.7964.838.6007.6387,1.1981,1.2806.5056.5436,1.0076,1.0907c.2039.2219.405.4463.6074.67.15.17.2974.3413.45.5083.3336.3651.6717.726,1.0043,1.0919q.5538.61,1.1008,1.2254.4658.5224.9256,1.05a.8483.8483,0,0,1,.081.138.3493.3493,0,0,0-.0509.0622q-.3924.8-.7826,1.6017-.3968-.4625-.7935-.9248c-1.5819-1.8406-3.1514-3.692-4.7493-5.5186-1.6388-1.8734-3.3054-3.7225-4.9594-5.5827-.0317-.0356-.0579-.0762-.0867-.1145-.03-.2583-.0484-.5187-.0936-.7744C33.2583,30.2611,33.1706,29.8737,33.0908,29.485Z"/>
		<path class="cls-9" d="M44.01,43.5668q.3909-.801.7826-1.6017a.3493.3493,0,0,1,.0509-.0622c.2133.223.43.4428.6385.67.1294.1413.2428.2971.37.441.2451.278.4977.55.7413.8288.2207.2531.4326.5139.65.77.1068.1254.2192.2459.3267.3707.3312.3843.66.7708.9924,1.1542.2157.2489.4383.4918.6531.7414.1922.2234.3761.4538.5667.6785.1953.23.3961.4556.5914.6857.1907.2246.3764.4535.5664.6787.1813.215.3663.4269.5476.6417.19.2252.377.4531.5669.6784.1813.215.3663.4268.5467.6425.2463.2943.4892.5914.7347.8864.1666.2.3364.3981.5026.5988q.4523.5463.9023,1.0946.2356.2856.4731.57c.21.2529.4233.504.63.76a.4446.4446,0,0,1,.0472.1509c-.2733-.23-.5522-.4548-.8191-.6925-2.0175-1.7961-4.0443-3.5821-6.045-5.3968a51.0126,51.0126,0,0,1-4.9336-5.1718C44.0625,43.647,44.0375,43.6058,44.01,43.5668Z"/>
		<path class="cls-10" d="M26.1366,56.0788c.0613-.1136.1841-.0771.2741-.0956.4214-.0866.85-.1383,1.2706-.2294a24.2259,24.2259,0,0,0,2.97-.825c.6267-.2224,1.2429-.4768,1.8554-.7367.4615-.1958.9109-.42,1.363-.6377.1794-.0862.3506-.1894.5275-.281a1.9279,1.9279,0,0,1,.19-.0755c.3108.3505.6235.6992.9319,1.0517q.9537,1.09,1.9035,2.1833c.0357.0409.0682.0846.1183.1471a.8735.8735,0,0,1-.1453.0226q-1.84-.0581-3.68-.1193c-.3652-.0122-.73-.0282-1.0954-.0445-1.04-.0465-2.0805-.0866-3.12-.1432-1.1013-.06-2.2018-.1357-3.3026-.205A.4579.4579,0,0,1,26.1366,56.0788Z"/>
		<path class="cls-11" d="M56.227,39.0879c.297-.046.5939-.0925.8909-.1376.0742-.0113.149-.0182.2235-.0271l.0484,1.2237c-.0429-.0053-.06-.0022-.0671-.0091Q56.7742,39.6137,56.227,39.0879Z"/>
		<path class="cls-12" d="M57.39,40.1469c-.0429-.0053-.06-.0022-.0671-.0091q-.5485-.5241-1.0957-1.05c-.2226-.2048-.4477-.4069-.6674-.6148q-2.4549-2.3232-4.9088-4.6477c-.1951-.1845-.3967-.3627-.6013-.5367a2.7644,2.7644,0,0,1-.9912-1.9747c-.0613-.7964-.1179-1.5934-.1948-2.3884a7.5862,7.5862,0,0,0-.7382-2.5032,12.55,12.55,0,0,0-1.3739-2.2545c-.0455-.06-.0868-.1232-.13-.1849a17.4446,17.4446,0,0,0-1.33-1.4412,12.2856,12.2856,0,0,0-3.4755-2.3849,8.0135,8.0135,0,0,0-2.2487-.667,4.4558,4.4558,0,0,0-2.3517.2763,3.0357,3.0357,0,0,0-1.7676,2.1783,4.7454,4.7454,0,0,0-.0629,1.8664,8.61,8.61,0,0,0,.8491,2.6636c.0182.0365.03.0763.0441.1145.2062.35.4007.7065.62,1.0472a13.4314,13.4314,0,0,0,5.0928,4.6708,8.6327,8.6327,0,0,0,2.704.862,18.9708,18.9708,0,0,0,2.2824.215,2.6239,2.6239,0,0,1,1.9021.8236q.7477.8012,1.48,1.6169,1.5489,1.736,3.0871,3.4813c.0316.0357.0581.0757.087.1137l.8679.9694q1.449,1.6179,2.8992,3.2345a.55.55,0,0,1,.097.1421Z"/>
		<path class="cls-12" d="M57.3881,56.2156a.9014.9014,0,0,1-.1079-.0666q-.669-.57-1.3363-1.1424a.5286.5286,0,0,1-.0532-.0618c-.2733-.23-.5522-.4548-.8191-.6925-2.0175-1.7961-4.0443-3.5821-6.045-5.3968a51.0126,51.0126,0,0,1-4.9336-5.1718c-.0305-.0367-.0555-.0779-.0831-.1169q-.3968-.4625-.7935-.9248c-1.5819-1.8406-3.1514-3.692-4.7493-5.5186-1.6388-1.8734-3.3054-3.7225-4.9594-5.5827-.0317-.0356-.0579-.0762-.0867-.1145-.2368-.2587-.4763-.5152-.71-.7766q-1.8819-2.1039-3.7629-4.2085a1.9134,1.9134,0,0,0-.3082-.2726c-.4476-.3217-.8948-.6446-1.352-.9525a1.0613,1.0613,0,0,0-1.2748-.0013,1.3285,1.3285,0,0,0-.5263,1.1921,7.2792,7.2792,0,0,0,.7549,2.75A21.9975,21.9975,0,0,0,28.8,33.3716c.8893,1.1871,1.8523,2.3131,2.8384,3.42q.7359.826,1.474,1.65c.0272.0305.0492.0657.0736.0987.3147.3377.6271.6775.9446,1.0126a30.5388,30.5388,0,0,0,4.79,4.181c.7768.5365,1.5715,1.0472,2.3466,1.5859.3952.2747.7652.5855,1.1466.88.2477.208.5118.4.74.6273.5855.5844,1.1673,1.1734,1.7284,1.7809,1.8626,2.0165,3.671,4.0813,5.45,6.1718.5184.6092,1.0274,1.2264,1.54,1.84.0249.03.047.063.0817.1107l5.4329.0143Z"/>
		<path class="cls-12" d="M41.5142,56.7033h.0152a1.0387,1.0387,0,0,1-.6609-.33c-1.4056-1.4033-2.83-2.7872-4.2483-4.1781-.0488-.0479-.0929-.1007-.1391-.1512-.0511-.0452-.1044-.0883-.1531-.1359q-2.1126-2.0655-4.2253-4.1309c-.281-.274-.571-.5389-.8622-.8021a3.7725,3.7725,0,0,1-.95-1.2606c-.0361-.081-.0605-.1672-.09-.251a3.1667,3.1667,0,0,1-.2145-.9423c-.099-.7789-.1756-1.5612-.2954-2.3369a3.4044,3.4044,0,0,0-1.1262-2.0652c-1.06-.9463-2.1274-1.8834-3.1888-2.8276q-1.484-1.32-2.962-2.6471l-2.6379-2.3576c-.0258-.023-.0512-.0465-.0787-.0672a.2611.2611,0,0,0-.4018.016c-.1146.1229-.1087.2284.0286.38.2915.3222.5858.6419.8776.9637q2.4254,2.6745,4.8492,5.35a.9639.9639,0,0,1,.1446.2.2642.2642,0,0,1-.04.3248.26.26,0,0,1-.3229.0552,1.6456,1.6456,0,0,1-.3123-.2321q-2.2683-2.2382-4.5314-4.4815-.684-.6768-1.3691-1.3524a1.6312,1.6312,0,0,0-.1207-.1131.2493.2493,0,0,0-.369.0082.2361.2361,0,0,0-.0331.3643c.1021.13.2162.25.3272.3732q2.6574,2.9389,5.3153,5.8773c.0785.0869.1595.1727.2289.2667a.2458.2458,0,0,1,.0172.3229.2532.2532,0,0,1-.3384.0486,1.2517,1.2517,0,0,1-.2641-.1952q-.6-.57-1.1923-1.1482-1.8051-1.75-3.6091-3.501c-.3712-.36-.7437-.7192-1.1108-1.0836a.4811.4811,0,0,0-.485-.156c-.1215.0309-.1547.0781-.1633.204a.4893.4893,0,0,0,.16.3874q.6537.6774,1.3017,1.36,2.0149,2.11,4.03,4.22c.1333.14.2654.2807.3979.4211.0189.02.0384.04.0558.0611.0981.121.1915.2528.1254.4132a.533.533,0,0,1-.3952.3036.2807.2807,0,0,1-.2626-.0894c-.0759-.07-.1471-.1455-.2212-.2177q-2.5869-2.5189-5.1742-5.0376c-.2076-.202-.426-.3938-.6234-.6052a.5724.5724,0,0,0-.5462-.1873.6067.6067,0,0,0,.1267.5519c1.087,1.3025,2.1622,2.6148,3.2492,3.9172,1.3522,1.62,2.7158,3.2308,4.0672,4.8515a4.2019,4.2019,0,0,0,2.4708,1.4734c.6965.14,1.4011.2206,2.1068.2963a3.2439,3.2439,0,0,1,1.2655.3488,2.4678,2.4678,0,0,1,.8743.6454c.5447.595,1.0907,1.1891,1.6255,1.7929q1.5018,1.6953,2.9913,3.4016c.05.0566.0937.1183.14.1776.3108.3505.6235.6992.9319,1.0517q.9537,1.09,1.9035,2.1833c.0357.0409.0682.0846.1183.1471a.8735.8735,0,0,1-.1453.0226Z"/>
	</g>
	<g id="Vector_Smart_Object_Image" data-name="Vector Smart Object Image">
		<path class="cls-1" d="M391.7593,25.2872c0,.1647-.0034.33.0006.4941a14.4159,14.4159,0,0,1-.2556,2.557,18.2017,18.2017,0,0,1-.6258,2.7175,14.5534,14.5534,0,0,1-.977,2.3169,8.7861,8.7861,0,0,1-2.071,2.53,7.6973,7.6973,0,0,1-3.5973,1.766,7.2247,7.2247,0,0,1-2.02.0878,6.8877,6.8877,0,0,1-1.5916-.3523,6.5261,6.5261,0,0,1-1.3529-.673,4.8634,4.8634,0,0,1-1.3449-1.27,7.5036,7.5036,0,0,1-.682-1.177,8.622,8.622,0,0,1-.6948-2.0086,12.421,12.421,0,0,1-.1825-1.2978,6.922,6.922,0,0,1-.0847-1.0892c.0322-.7092.0862-1.4176.1685-2.1249a22.8219,22.8219,0,0,1,1.1571-4.6675,4.7857,4.7857,0,0,1,.5433-1.2457,5.41,5.41,0,0,0,.3259-.69,8.4689,8.4689,0,0,1,1.9593-2.5413,4.0389,4.0389,0,0,1,1.2578-.85,5.2063,5.2063,0,0,1,1.96-.7846,5.7639,5.7639,0,0,1,2.4936-.1311,6.1814,6.1814,0,0,1,2.199.7926,5.9466,5.9466,0,0,1,2.0888,2.1226,8.8629,8.8629,0,0,1,1.22,3.6619c.0315.308.08.615.0971.9237.0169.31.0037.622.0037.9331ZM388.35,24.5c0-.2213.0027-.5142,0-.807a7.106,7.106,0,0,0-.4283-2.3044,2.7546,2.7546,0,0,0-.68-1.0483,1.6647,1.6647,0,0,0-.7066-.3944,1.963,1.963,0,0,0-1.3356.1169,5.2618,5.2618,0,0,0-1.8857,1.2956,9.89,9.89,0,0,0-1.45,1.9223,11.935,11.935,0,0,0-1.5244,5.5439,10.7819,10.7819,0,0,0,.07,1.9694,11.3116,11.3116,0,0,0,.2951,1.4455,3.749,3.749,0,0,0,.6309,1.2713,2.2683,2.2683,0,0,0,2.5752.8543,4.1625,4.1625,0,0,0,1.6594-1.0339,7.3514,7.3514,0,0,0,1.6623-2.4941,12.9428,12.9428,0,0,0,.92-3.5384A19.2759,19.2759,0,0,0,388.35,24.5Z"/>
		<path class="cls-1" d="M392.4069,37.4218c.1255-.8461.3074-1.6071.4549-2.3739.1482-.77.3146-1.5366.473-2.3047s.3185-1.5354.475-2.3037q.2293-1.1256.4527-2.2527.23-1.1535.4565-2.3079c.1514-.7694.2994-1.54.453-2.3086.153-.7652.3446-1.5236.4431-2.3269a2.0426,2.0426,0,0,0-.3431-.068c-.549-.0062-1.0982-.0014-1.6474-.0047-.1615-.0009-.3229-.0159-.5024-.0254a.7328.7328,0,0,1-.05-.2225c.0837-.6318.2045-1.2568.3537-1.8921a3.15,3.15,0,0,1,.3524-.154c1.2415-.3741,2.4848-.7421,3.7266-1.1154.3849-.1157.7666-.2424,1.15-.3641.592-.188,1.1832-.3789,1.7768-.5615a2.4824,2.4824,0,0,1,.3574-.058.6622.6622,0,0,1,.0588.5565c-.257,1.2692-.5218,2.5368-.7823,3.8052q-.3633,1.7685-.7231,3.5377t-.7209,3.5381q-.4687,2.3055-.9365,4.6111-.4581,2.2515-.9189,4.5026c-.0033.016-.02.0293-.0543.0786a7.6231,7.6231,0,0,1-1.3828.0393c-.4756.012-.9518.0062-1.4277.0017C393.4288,37.444,392.9552,37.47,392.4069,37.4218Z"/>
		<path class="cls-1" d="M368.9105,37.419a9.8277,9.8277,0,0,1,.2519-1.4966c.0868-.5032.1916-1.0033.2939-1.5037.0988-.4825.2082-.9629.3061-1.4456s.1868-.9671.2807-1.4506c.0975-.5013.1935-1.003.2957-1.5034.0985-.4826.2066-.9632.3057-1.4457.1028-.5.2013-1.0015.2989-1.5028.0942-.4835.1809-.9685.2782-1.4514s.2039-.9638.306-1.4457c.1058-.5.2343-.9959.31-1.5a6.4458,6.4458,0,0,0,.2263-1.4659c-.8715-.09-1.7118.0192-2.5429-.0658A10.3663,10.3663,0,0,1,369.943,19c.1267-.0466.2761-.1106.4308-.1572,1.3468-.4057,2.6961-.8033,4.0412-1.2143.5242-.16,1.0374-.356,1.56-.5218.3819-.1212.77-.2219,1.1575-.3255a.4.4,0,0,1,.1516.02.45.45,0,0,1,.0476.4262c-.3826,1.8582-.7741,3.7145-1.153,5.5735-.3863,1.8948-.7562,3.7928-1.1424,5.6877-.346,1.698-.7078,3.3927-1.0559,5.09-.2346,1.1437-.4575,2.29-.685,3.435-.0106.0537-.01.11-.0229.1629a.287.287,0,0,1-.2953.2679,1.6408,1.6408,0,0,1-.1646.0045q-1.7851,0-3.57-.0012C369.1531,37.4477,369.0639,37.4328,368.9105,37.419Z"/>
		<path class="cls-1" d="M368.0285,44.1912a7.8041,7.8041,0,0,1,.0126-1.43,2.7719,2.7719,0,0,1,.3177-.0583c.1459-.01.2928-.0034.4393-.0034q15.49,0,30.981.0013a2.2578,2.2578,0,0,1,.7295.0493,6.6087,6.6087,0,0,1,.0385,1.4269,3.0492,3.0492,0,0,1-.3406.0639c-.1458.01-.2928.0033-.4393.0033q-15.49,0-30.981-.0012A2.5222,2.5222,0,0,1,368.0285,44.1912Z"/>
	</g>
</svg>