<svg xmlns="http://www.w3.org/2000/svg" xmlns:xlink="http://www.w3.org/1999/xlink" viewBox="0 0 3610 705"><clipPath id="A"><path d="M0 0h4575.7v1000H0z"/></clipPath><g fill="#464546"><path d="M959.4 400.2L935 541.7c-3 16.5-16 17-29 17-22.5 0-34.5-1.5-30.5-24l11.5-60c3-21 7-49.5 5-52.5-5.5-8.5-37-5-36.5-5-16 0-27.5 1.5-30.5 22l-11.5 85.5c-1.5 9-3.5 17.5-5.5 26-6.5 2.5-13.5 2.5-20 2.5-9.5 0-30.5-.5-28.5-13.5l11.5-73c2-16 3-32.5-9-41-11.5-7.5-3-24 5-37 12 2.5 18.5-17.5 20.5-30.5l8.5-63c5.5-33 12.5-46.5 43-46.5 12 0 22.5 1.5 19.5 18-3.5 23-14.5 68-18 91-4.5 26 6.5 24 22 24 26 0 46 8 49.5-13.5l14.5-82.5c3.5-20.5 10-38 33-38 8.5 0 25.5 0 30 7l-30 145.5z"/><use xlink:href="#G"/><path d="M1393.4 464.2c-5 32.5-51 93-87 93-50.5 0-47.5-44.5-44-70-10 4.5-27.5 65-73.5 65-42.5 0-42-55.5-37-87.5 7-45.5 35-105.5 90.5-105.5 36.5 0 29.5 40.5 40.5 43 1-3.5 2-7.5 2.5-11.5 2.5-16 4.5-30 26.5-30 28 0 25.5 10 21.5 34.5-4.5 28-11.5 55.5-16 83.5-2 12.5-8 37.5 10 37.5 29.5 0 49-38.5 60-56 2.5-4 7-3 6 4zm-188.5-4.5c-1.5 11.5-6 53 10.5 53 23 0 42.5-60 45-78 2-12.5 4.5-49-14-49-26 0-38.5 56-41.5 74z"/><path d="M1521.4 476.7c-6 37.5-44.5 80-83.5 80-74 0-55.5-80.5-47-133l11-54 22-114.5c6.5-15.5 14-15 26.5-15 25.5 0 26.5 12 23 35-9.5 59-26.5 118-35.5 177-4 24-10.5 72 23.5 72 27.5 0 47-47.5 57-62.5 3.5 4 4 9.5 3 15z"/><use xlink:href="#H"/><use xlink:href="#I"/><path d="M1970.3 460.7c-11 23-33 75.5-57.5 88.5-25 12.5-46 4-55-17.5-11-25.5 10.5-113.5 15-145.5 5-38.5 50-23.5 52-12 2.5 13-36 133.5-11 134.5 21 1 52-99.5 58-115.5 4.5-12.5 8.5-24 20.5-27 9-2.5 42.5-7.5 45.5 2 2 6-13 70-15 81-5 21.5-27.5 150.5-29 172.5-1 22.5-4.5 47-21 52.5-44 15-39.5-18-30.5-62 6.5-28.5 6.5-34 12-63l16-88.5zm140 46c-3 21.5-7 51-35.5 51-32 0-34.5-7.5-30-38l27-147.5c3-18 20-116.5 36-119.5 10-2 20-4 30-4 18.5 0 17 14.5 14.5 29.5-2.5 16.5-7.5 33-10 49 0 2.5-2.5 16.5 2 16.5 6 0 64.5-82.5 87-97 .5-.5 1-.5 2-.5 9 0 23.5 28 22 37-3.5 22.5-80 80.5-83 99.5-3 18.5 69 148 67.5 157-2 12.5-47.5 27.5-54 14-10-19-56-128-62.5-129.5l-13 82.5zm289-38c-5 33.5-41.5 87-79.5 87-51 0-52.5-32.5-45.5-77l15.5-77.5c5.5-26 3.5-39 37-39 26 0 22.5 15 19.5 36.5-3.5 22.5-10.5 45-14 67.5-2 14.5-9.5 54 12.5 54 35.5 0 37.5-69.5 54-70.5a35 35 0 0 1 .5 19zm-70-133.5c-14 0-26.5-29-24.5-41.5 3-19 26.5-32.5 44-32.5 16.5 0 23.5 12.5 21 28s-23 46-40.5 46z"/><use xlink:href="#H" x="877"/><path d="M2654.3 466.7c-6.5 41.5-50.5 90-95 90-43 0-76-27-66-89.5 8.5-52.5 31-106.5 97.5-106.5 26 0 37 13.5 33 39.5-1.5 9-6.5 27-19.5 27-8 0-7-7.5-6-14 1.5-9 6-24-6.5-24-28 0-41.5 54-45 74-3.5 22-5 64 24 64 50.5 0 73.5-60.5 81.5-67.5.5 2 3 2.5 2 7z"/><use xlink:href="#I" x="1023"/><use xlink:href="#G" x="1895.5"/><path d="M3292.3 471.2c-4 23-27 57-43.5 70-11 8-28.5 14.5-44.5 14.5-27 0-46.5-13.5-38.5-64l11-60.5c4.5-27.5 1.5-41.5-8-41.5-15.5 0-48.5 80-60 121.5-8 27-9 43-48 43-21.5 0-26.5-8.5-20-48l13-73.5c2-13 2.5-23.5 4.5-36 4-23 9-37 31-37 29.5 0 32 7 29 25.5-1.5 10.5-6 23.5-7.5 36a49 49 0 0 0-.5 19c11.5-2.5 15-17 27.5-38 15-27 32-41 65-41s36.5 14 30.5 52.5c-3 18-8 38.5-11 55.5-4.5 28-2 44.5 15.5 44.5 25 0 41-48.5 53.5-53.5 1 3 1.5 6.5 1 11z"/><path d="M3376.4 304.6l-35.7 175.7h-33l28.7-142.5H3313l2.8-14.5 60.5-18.7zm119.8 116a107 107 0 0 1-11.7 28.3c-38.5 62.6-141.8 41.4-104.2-81.3 3.7-12 7-19 12.2-28.3 37-63.3 135.5-43 103.7 81.3zM3404 393c-12.8 93.4 61.2 82.2 71.7 2.8 15.7-112.4-62.4-68.7-71.7-2.8zm178-88.3l-35.7 175.7h-33l28.7-142.5h-23.4l2.8-14.5 60.5-18.7z" stroke="#464546" stroke-width="5" stroke-miterlimit="10"/><path d="M3297.2 541.8v-13.6h285v13.6h-285z"/></g><g fill="#8dc641" stroke="#8dc641" stroke-miterlimit="10" stroke-width="2"><path d="M936.8 614.5H921V609h38v5.5h-15.8V662h-6.3v-47.5z"/><use xlink:href="#J"/><use xlink:href="#K"/><use xlink:href="#J" x="123.8"/><use xlink:href="#K" x="123.8"/><use xlink:href="#L"/><path d="M1245 609h3l4.6-.2a29 29 0 0 1 9.7 1.4c1 .3 1.8.7 2.7 1.3a13.8 13.8 0 0 1 2.9 2.5c1 1 1.8 2.4 2.4 4 .6 1.7 1 3.5 1 5.5 0 3.3-.8 6-2.5 8.6a14 14 0 0 1-2.3 2.6 16.8 16.8 0 0 1-2.2 1.7c-1.4 1-3 1.7-4.5 2v.1l13.7 18 4.2 5.4h0-7.6l-16.7-22.5h-2.3V662h-6v-53zm20 14.7c0-6.3-3.7-9.5-11-9.5l-2.7.1v20c.2 0 .4 0 .8 0h1.2c2 0 4-.4 5.8-1.2 1.7-.8 3-2 4-3.2 1.3-1.7 2-3.8 2-6.2v-.1zm35-9.3H1284V609h38v5.5h-15.8V662h-6.3v-47.5z"/><use xlink:href="#M"/><path d="M1433.8 633h16.3v5.5h-16.3V662h-6.3v-53h24v5.5h-17.7V633zm70.3-18.6h-15.8V609h38v5.5h-15.8V662h-6.3v-47.5z"/><use xlink:href="#J" x="567.2"/><use xlink:href="#K" x="567.2"/><use xlink:href="#J" x="691.1"/><use xlink:href="#M" x="358.8"/><path d="M1789.7 608.5h.7l16.8 32.6 3 5.7 1.5 3.2h.1l1.4-3 3-5.7 17.3-32.7h.7l6 53.5h-6.4l-2.2-20.8-1.3-16h-.1l-3.5 7.6-2 3.8-2 4-4.5 8.6-6.3 11.7h-.7l-6.2-11.7-4.5-8.6-2-4-2-4-3.2-7.4h-.1l-.5 7-1 9.2-2.3 20.8h-6l6.5-53.5z"/><use xlink:href="#N"/><path d="M2081.4 647c0 5.6-2.5 9.8-7.5 12.6-3 1.7-7 2.5-12.7 2.5h-3.2l-3.8-.2v-52.5l2.4-.2 6-.2c3.2 0 6 .4 8.2 1.3 1 .4 1.7.8 2.5 1.3 1 .7 2 1.4 2.7 2.3a11.7 11.7 0 0 1 2.2 3.6c.6 1.6 1 3.3 1 5.2 0 6.3-3 10.2-8.8 11.7v.2a13 13 0 0 1 7.7 3.9c2.2 2.3 3.3 5 3.3 8.5v.1h0zm-8.6-24c0-2.7-1-5-2.8-6.4a10 10 0 0 0-6.7-2.2l-3 .1V632a14.4 14.4 0 0 0 .8.1h1c1.7 0 3.2-.2 4.6-.6a8.5 8.5 0 0 0 4.3-2.8c1.3-1.6 2-3.4 2-5.6h0 0zm2 23.7c0-2-.7-4-2-5.6-1-1.4-2.6-2.4-4.5-3a19 19 0 0 0-5.4-.8l-2.7.1v19c0 0 0 .1.1.1l1.3.1h1.2c2.4 0 4.4-.4 6-1a10.3 10.3 0 0 0 3.7-2.7c1.4-1.7 2.2-3.7 2.2-6h0 0zm22-37.7h24v5.5h-17.7v17.7h16.3v5.4h-16.3v18.7h18.4v5.6H2097v-53z"/><use xlink:href="#L" x="943.9"/><path d="M2199.7 614.5H2184V609h38v5.5H2206V662h-6.3v-47.5zm56.2 34.4c0 3.7-1.4 7-4 9.5-3 3-7 4.4-12.2 4.4a24 24 0 0 1-8-1.2l.3-6 2.5.8c1.6.4 3.4.6 5.3.6 2.6 0 4.8-.7 6.6-2.2 2-1.6 3-3.6 3-6.2 0-3-1.5-5.8-4.5-8.4l-3.3-2.8a94.5 94.5 0 0 1-3-2.7c-4-3.8-5.8-7.8-5.8-12.2 0-3.8 1.3-7 4-9.6 3-2.8 6.8-4.2 11.6-4.2 2.5 0 4.5.2 6 .7l-.3 5.8h-.1c-.8-.3-1.5-.5-2.3-.5-.8-.2-1.7-.3-3-.3-2.8 0-5 .7-6.8 2.2a7 7 0 0 0-2.8 5.8c0 2.5 1 4.8 3 7 .8.8 1.8 1.8 3.2 3l3.8 3.3c2.3 2 4 4 5 5.8 1.2 2.2 1.8 4.7 1.8 7.4h0zm48.3 13.2h-6.3v-53h6.3v53zm58.8.7h-.8l-30-35-4.2-5.2h-.1v5V662h-5.8v-53.8h.7l28.6 33.4 5.7 7h.1l-.1-5V609h6v53.7zm55.2-48.2h-15.8V609h38v5.5h-15.8V662h-6.3v-47.5z"/><use xlink:href="#J" x="1481.4"/><use xlink:href="#K" x="1481.4"/><path d="M2577.2 609h6.3v24l17.4-21.4 2-2.6h7.4 0l-4.8 6-16 19.2 18.7 22.5 3.5 4.2 1 1h0-8l-6.2-7.6-14.8-17.8V662h-6.3v-53zm53.5 53h-6.3v-53h6.3v53zm28.8-47.5h-15.8V609h38v5.5h-15.8V662h-6.3v-47.5zm32 20.8c0-8.2 2.8-14.8 8.3-19.8a30 30 0 0 1 20.9-7.2 46.1 46.1 0 0 1 3.1.1l2.3.2c1.8.2 3.3.5 4.6.8l-.2 6h-.2a32 32 0 0 0-2.9-.7c-1.8-.4-4-.5-6.3-.5-7 0-12.4 2-16.4 5.7-4 4-6 9-6 15.7 0 6.4 2 11.6 6.2 15.6 4 4 9.3 6 15.6 6 2.6 0 4.8-.2 6.8-.6.5-.1 1-.2 1.5-.4l1.5-.5.3 5.8a27 27 0 0 1-4.6 1.1 46.5 46.5 0 0 1-6.3.4c-7.8 0-14.3-2.4-19.5-7.2-5.6-5-8.3-12-8.3-20.3v-.1h0z"/><use xlink:href="#J" x="1774.4"/><use xlink:href="#N" x="948.4"/><path d="M2884.6 662.7h-.8l-30-35-4.2-5.2h-.1l.1 5V662h-5.8v-53.8h.7l28.6 33.4 5.7 7h.1v-5V609h6v53.7z"/></g><g clip-path="url(#A)" transform="matrix(1.04 0 0 1.04 -327.42 -171.82)"><path d="M591.6 452C637 549.3 980 825 980 825s9.3-440-36-537.3c-45.4-97.3-161-139.4-258.3-94-97.3 45.4-139.4 161-94 258.3" fill="#79b042"/><filter id="B"><feBlend mode="multiply" in2="BackgroundImage" in="SourceGraphic"/></filter><g opacity=".3" filter="url(#B)"><clipPath id="C"><path transform="matrix(1 0 0 -1 0 1000)" d="M584.7 175h396v479h-396z"/></clipPath><g clip-path="url(#C)"><path transform="matrix(1 0 0 -1 919.65 397.95)" d="M0 0c-89.7-89.7-231-102-335-37l7-17c45.4-97.3 388.4-373 388.4-373s7 326-20.2 479A263 263 0 0 0 0 0" fill="#79b042"/></g></g><g opacity=".3" filter="url(#B)"><clipPath id="D"><path transform="matrix(1 0 0 -1 0 1000)" d="M584.7 175h396v390h-396z"/></clipPath><g clip-path="url(#D)"><path transform="matrix(1 0 0 -1 655.98 521.51)" d="M0 0a350 350 0 0 0-59.7 79.9l-11.6 6.5 7-17C-19-27.8 324-303.5 324-303.5s2 95-.4 206.3C209.8-119 86.7-86.7 0 0" fill="#79b042"/></g></g><path d="M607 436.6C704.3 482 980 825 980 825s-440 9.3-537.3-36c-97.3-45.4-139.4-161-94-258.3 45.4-97.3 161-139.4 258.3-94" fill="#8dc641"/><g opacity=".3" filter="url(#B)"><clipPath id="E"><path transform="matrix(1 0 0 -1 0 1000)" d="M471 174.2h509v317.4H471z"/></clipPath><g clip-path="url(#E)"><path transform="matrix(1 0 0 -1 636.33 730.31)" d="M0 0a235 235 0 0 0-165.3-68.1c134.2-34.5 509-26.6 509-26.6s-162.5 202-282 316.6C80 144.6 59.3 59.3 0 0" fill="#8dc641"/></g></g><g opacity=".3" filter="url(#B)"><clipPath id="F"><path transform="matrix(1 0 0 -1 0 1000)" d="M615 174.2h365V347H615z"/></clipPath><g clip-path="url(#F)"><path transform="matrix(1 0 0 -1 776.54 738.02)" d="M0 0c-45-45-102-71.4-161.4-79.7 161-11.6 365-7.3 365-7.3S137-4.4 58 85C44.4 54 25 25 0 0" fill="#8dc641"/></g></g><g fill="#fff"><path d="M762.8 824.7l29.6.3s-2.2 0 0 0l-82-80.3-34.3-33c-8-7-12.5-15.7-13.8-26.3l-3-25.4c-1.3-11-5.7-20-13.7-27.4l-14-12.2-87.3-78c-1.7-1.5-3.7-3.6-6-1-2.3 2.4 0 4 1.4 5.5l66 72.8c2.4 2.7 2 5.7-1.3 6.4-1.4.3-3.5-1-4.6-2l-69-68.5c-1.7-1.7-3.4-3.7-6-1.2-2.4 2.3-.4 4 1 5.6l36 40.2 29.7 32.6c2 2 3 4.3-.2 6-1 .5-3.5-.7-4.6-1.7L519 571.3c-1.3-1.3-2.6-3-4.2-3.6-1.3-.5-3.5-.3-4.6.5-.7.5-.7 3-.2 4.2.6 1.4 2 2.5 3 3.6l65 68.3c3.3 3.5 3 6.2-1.2 8.4-3 1.7-4.6-.7-6.3-2.3L501 582.8c-1-1-3.4-.8-5.2-1.2.2 1.8-.3 4 .6 5.3l43.3 52.3 42.6 50.7c7 8.8 16 14.4 27 17 8.7 2 17.6 3 26.5 4 9.6 1 18 4.3 24.3 11.3l30.7 34 59.4 68c5 .5 7.4.7 12 .6M794 636.4l-48.7-55.7-96.6-108.3-18.2-12.8c-10-6.5-20.8 2.3-20.5 12.4a65 65 0 0 0 3 19c9 26.4 24.3 49.4 41.2 71l44.6 51.7c22.4 25.2 46.8 48.2 75.3 66.5a262 262 0 0 1 50.8 40.1l66.5 74.5 26 31c14 .5 13.3.8 40.3.3l22.3-1c.3-2 0-2.6.1-5.2L952.5 796l-44.3-39.3-68.7-67-45.3-53.4m40-212.6c-12.5-11-26.2-19.8-42-25.5-11.2-4-22.7-6.6-35-4.8-15 2.2-25.6 10-30.7 24.7-2.7 7.8-3 15.7-2 23.6 1.7 15 7.2 28.4 14.6 41a157 157 0 0 0 45 48.8c11.8 8.4 24.6 15.2 39 18.6 11.8 2.8 24 4 36.2 4.4a42 42 0 0 1 8.2 1.2c7 1.7 12.3 6.5 17 11.6l28 31.3 48.5 55 20 22c1.4 1.6-1.4-1.6 0 0 .2-15.3.5-17-.6-41.5L909 566.7l-14-13a32 32 0 0 1-11.8-23.2l-2-26.7c-1.5-14.4-6.8-27.5-13.8-39.8a156 156 0 0 0-33.3-40.2"/></g></g><defs><path id="G" d="M1166.4 468.2c-8 50.5-54 87-103 87-56 0-84.5-44-76-97.5 7-45.5 46.5-95.5 96.5-95.5 34.5 0 51 21 45.5 55-4.5 27.5-24.5 51.5-54.5 51.5-18.5 0-22-6-27.5-13-11.5 28-4 70 30.5 70 57.5 0 74.5-52.5 86.5-70 1.5 4.5 2.5 7.5 2 12.5zm-114.5-41c-1.5 7-.5 14 7.5 14 20 0 35.5-23 38.5-40.5 1.5-8.5.5-22-10.5-22-18.5 0-33.5 34.5-35.5 48.5z"/><path id="H" d="M1594 533.2c-22.5 21.5-57.5 30-73.5 13.5-7-6.5-15.5-10.5-15-30.5 1.5-37.5 9.5-59 13.5-93.5l6.5-42.5c-14 1-21.5 1-26-8.5-2-3.5-.5-7 2.5-8 9-2.5 19-2.5 26-1.5 5-20 9.5-45 25.5-45 26.5 0 34.5 0 32.5 15.5l-3.5 28c7.5.5 16.5.5 28.5.5 11 0 9.5 18-4 20a131 131 0 0 1-31.5 0c-1 41-34.5 147-.5 140 24-5 43-53.5 55-59.5 5.5 19-18 54-36 71.5z"/><path id="I" d="M1872.4 474.2c-7 44-45.5 83-91 83-53.5 0-37.5-63-31.5-99 2-14 18.5-68-4-68-34 0-64.5 141.5-83 162.5-4.5 5-16.5 5.5-22 5.5-14 0-31-4.5-31.5-20.5-1.5-34 10.5-79.5 16-115 2.5-14.5 7.5-29 10-43l20-116c3.5-17 13-23.5 29-23.5 38 0 29.5 22 24.5 54.5-7 42-19.5 84-26 126.5-1.5 6.5.5 7.5 6.5 9 16-23.5 18-71 84-71 52.5 0 42.5 41 36 82-3 18.5-20 78.5 9 78.5 29.5 0 40.5-54.5 52-58 2.5 3.5 2.5 8 2 12.5z"/><path id="J" d="M1011.3 662h-6.3v-24.3h-26.7V662H972v-53h6.3v23.2h26.7V609h6.3v53z"/><path id="K" d="M1029.2 609h24v5.5h-17.7v17.7h16.3v5.4h-16.3v18.7h18.4v5.6h-24.7v-53z"/><path id="L" d="M1200 647l-3 7-2.2 5.2-.3.7-.2.6-.6 1.5h-6.5l22.5-54h.8l21.7 54h-7l-.3-1-5.5-13.8H1200zm17.6-5.3v-.2L1212 627l-2-5.4h-.1l-2 5.4-6 15h15.5z"/><path id="M" d="M1412.5 635.3c0 7.7-2.6 14-7.7 19.4a26 26 0 0 1-19.6 8.1c-7.5 0-13.8-2.7-19-8a26 26 0 0 1-7.8-19c0-7.8 2.6-14.4 8-19.6a27 27 0 0 1 19.9-7.9c7.5 0 13.8 2.6 18.8 7.8 5 5.2 7.5 11.5 7.5 19.2v.1h0zm-6.7.2c0-6-2-11-5.8-15.2-4-4-8.8-6.2-14.6-6.2a19 19 0 0 0-14.5 6.2c-4 4-5.8 9.2-5.8 15.2 0 6 2 11 5.8 15a19 19 0 0 0 14.5 6.3 19 19 0 0 0 14.5-6.2c3.8-4 5.7-9.2 5.7-15.2v-.1z"/><path id="N" d="M1855.2 609h24v5.5h-17.7v17.7h16.3v5.4h-16.3v18.7h18.4v5.6h-24.7v-53z"/></defs></svg>