<svg xmlns="http://www.w3.org/2000/svg" xmlns:xlink="http://www.w3.org/1999/xlink" viewBox="0 0 415 180"><style><![CDATA[.S{fill:#f7a491}.T{fill:#f7cc7f}.U{fill:#f47458}.V{fill:#f48c7f}.W{fill:#830000}.X{fill:#184655}.Y{fill:#e2f1f2}.Z{fill:#13375b}.a{fill:#b5dcdf}.b{fill:#cd0000}.c{fill:#b75742}]]></style><g fill="#f2fdfe"><path d="M98 180.2H86.5v-56l5.8-4.6L98 124v56zm-17.3 0H69v-56l5.8-4.6 5.8 4.6v56z"/><path d="M69.2 138.2h41v3h-41z"/><use xlink:href="#B"/><use xlink:href="#B" x="34.7"/><path d="M133.6 180.2H122v-56l5.8-4.6 5.8 4.6v56z"/><path d="M108.8 138.2H163v3h-54.2zm-80.4 42H16.8v-56l5.8-4.6 5.8 4.6v56zm-17.4 0H-.5v-56l5.8-4.6L11 124v56z"/><path d="M-.4 138.2h41v3h-41z"/><path d="M46.6 180.2H35v-56l5.8-4.6 5.8 4.6v56zm17.4 0H52.3v-56l5.8-4.6 6 4.4v56z"/><path d="M39.2 138.2h54.2v3H39.2z"/><use xlink:href="#B" x="52.7"/><path d="M203.7 180.2H192v-56l5.8-4.6 5.8 4.6v56z"/><use xlink:href="#B" x="70.1"/><path d="M161.7 138.2H216v3h-54.2z"/><use xlink:href="#B" x="105.7"/><path d="M256.5 180.2H245v-56l5.8-4.6 5.8 4.6v56z"/><use xlink:href="#B" x="122.9"/><path d="M214.5 138.2h54.2v3h-54.2z"/><path d="M274.7 180.2H263v-56l5.8-4.6 5.8 4.6v56z"/><use xlink:href="#B" x="193.1"/><use xlink:href="#B" x="175.7"/><path d="M267.3 138.2h54.2v3h-54.2z"/><path d="M327.6 180.2H316v-56l5.8-4.6 5.8 4.6v56z"/><use xlink:href="#B" x="245.9"/><use xlink:href="#B" x="228.7"/><path d="M320 138.2h54.2v3H320z"/><use xlink:href="#B" x="264.1"/><use xlink:href="#B" x="298.7"/><path d="M397.7 180.2H386v-56l5.8-4.6 5.8 4.6v56z"/><path d="M373 138.2h41.6v3H373z"/></g><g class="Y"><path d="M310 178.7c16.3-6 27.8-20 34.5-31a116.1 116.1 0 0 0 10.8-22.3l.7.3a116.4 116.4 0 0 1-10.8 22.5c-6.8 11-18.3 25.2-35 31.2z"/><path d="M354.6 121.7a11.8 11.8 0 0 0-.9 8.7 10.2 10.2 0 0 0 6.5-5.2 11.8 11.8 0 0 0 .9-8.7 10.2 10.2 0 0 0-6.5 5.3zm1.6 10.6a10.4 10.4 0 0 0-5.9 5.9 10 10 0 0 0 8.3.4 10.4 10.4 0 0 0 5.9-6 10 10 0 0 0-8.3-.3zm-1.4 9.7a9.8 9.8 0 0 0-7.9 2.3 10.8 10.8 0 0 0 7.3 4.3 9.9 9.9 0 0 0 7.9-2.3 10.8 10.8 0 0 0-7.3-4.3zm-5.8 9.4a9.9 9.9 0 0 0-7.9 2.3 10.8 10.8 0 0 0 7.3 4.3 9.9 9.9 0 0 0 7.9-2.3 10.8 10.8 0 0 0-7.3-4.3z"/><path d="M349.5 137a11.5 11.5 0 0 0-3.2-7.4 9.9 9.9 0 0 0-2.4 7.3 11.5 11.5 0 0 0 3.2 7.4 9.9 9.9 0 0 0 2.4-7.3zm-6 9.6a11.5 11.5 0 0 0-3.1-7.5 9.9 9.9 0 0 0-2.5 7.3 11.6 11.6 0 0 0 3.1 7.5 9.9 9.9 0 0 0 2.5-7.3zm-4.2 14.4a4 4 0 0 0-3.5-.2 4.6 4.6 0 0 0 2.3 2.9 4.1 4.1 0 0 0 3.5.2 4.6 4.6 0 0 0-2.3-2.9z"/></g><path d="M274.7 151.2s-12.7-26.7-8.5-32.7c6-8.2 13.2 17 13.5 14.8 3.4-21 2.7-47.4 18.4-51.4 9-2.3-.6 19.8.5 25.4s16-14.6 25-25.3 14.8-4.8 9.4 8.2c-5 12.6-23.7 27.3-19.6 28.6s27.5-16.3 31-9.8c4.3 8-31.6 22-28 23.5s20.7-5.8 20.7.5-23.7 8-23 10.6c1 4.4 16-7 17-.8s-20.2 6.7-19.4 11.7c.4 2.8 5.8-.1 6.8 3.7 2.2 8.8-31.4 21.2-31.4 21.2z" fill="#025f68"/><g class="a"><path d="M287.3 179s13-21 19.5-25c6.8-4.3 1.8 8.2 1.8 8.2s13.8-17 17.8-13.7.5 7.3.5 7.3 12.6-4 15 .6c3.6 7-17 13.4-17 13.4s9-.2 7.4 4.6c-2.3 7.3-44.8 4.4-44.8 4.4z"/><path d="M341.8 156.5c-2.4-4.6-15-.6-15-.6s3.5-4-.5-7.3-15 7-15 7 1-8.4-7.3-1c-6 5.4-16.6 24-16.6 24z"/></g><path d="M248 154c-5 2.4-3.7 8.3-3.7 8.3s-14-10.8-19-4.5-2.5 18.6 3.6 20.6 59 .6 59 .6-35.2-27.2-39.8-25z" class="Y"/><path d="M287.6 179.5s-23-4.7-28-9.4-2.8-6.4-2.8-6.4-9-7-8.7-11.6 6-2.2 6-2.2-9.8-12.6-7.5-15c4.3-4.4 15.7 8.6 15.7 8.6s-3.4-6.2.2-7.2c5.4-1.5 9.3 13.8 9.3 13.8s-1-6 2.7-5.2c6.6 1.5 13.4 34.6 13.4 34.6zm-78-72.5l-2.3-5.5a7.8 7.8 0 0 0-10.1-4.3h0c-9.6 4.2-13.8 15.8-9.3 26l3.3 7.5a9.4 9.4 0 0 1-1 9.4 8.3 8.3 0 0 0-.8 8.3l1.7 4a15.6 15.6 0 0 0 9.8 8.7 9.5 9.5 0 0 1 5.9 5.3l2.4 5.6c2.7 6.2 9.6 9 15.3 6.6l3.3-1.4c5.8-2.5 8.3-9.6 5.6-15.7h0c-4.3-7.4-4-12.8-2.4-16.6a22.3 22.3 0 0 0-.2-17.4l-.3-.8a22.1 22.1 0 0 0-13.5-12.2c-2.6-.8-5.3-3-7.3-7.3z" class="a"/><path d="M252 179.5c-4.7-6-30.2-38.4-47-43.8-18.4-6-1 17.7-1 17.7s-32.6-35.7-44.6-32.4c-11 3 0 25 0 25s-12.4-12.2-27.3-12.2c-14.6 0 10.2 43.4 11.5 45.8z" class="Y"/><g fill="#025f68"><path d="M153.8 109.8a215.1 215.1 0 0 1 28.6 68.5l1-.2a216.3 216.3 0 0 0-28.5-67.9c-3-4.8-6.4-10.6-12.2-12.5-.1 0-.2.1 0 .2 5.2 2 8.3 7.4 11.2 12zm25.4 69.2a268.6 268.6 0 0 0-54.5-55.2c-.2-.2-.5.2-.3.4a268.3 268.3 0 0 1 53.7 55.2z"/><path d="M152.6 97a9.5 9.5 0 0 0-2 3.5 7.4 7.4 0 0 0-.1 3.6 7.9 7.9 0 0 1-2-3.5c-.7-2-.2-5 .6-6 1.4-2.2 4-2.4 4.3-1.3s-.2 2.5-1 3.7zm-3.2 18.5a9.6 9.6 0 0 1 3.5-2.1 7.4 7.4 0 0 1 3.6-.1 8 8 0 0 0-3.5-2c-2-.6-5-.1-6 .7-2 1.5-2.3 4-1.2 4.4s2.5-.1 3.6-1zm4.8 8a9.6 9.6 0 0 1 3.5-2.1 7.2 7.2 0 0 1 3.6-.1 7.7 7.7 0 0 0-3.5-2c-2-.6-5-.1-6 .7-2 1.5-2.3 4-1.2 4.4s2.4-.1 3.6-1zm-17.2 19a9.6 9.6 0 0 1 3.5-2.1 7.4 7.4 0 0 1 3.6-.1 8 8 0 0 0-3.5-1.9c-2-.6-5-.1-6 .7-2.2 1.4-2.3 4-1.3 4.4s2.5-.2 3.6-1z"/><path d="M128.2 134.8a9.3 9.3 0 0 1 3.5-2.1 7.2 7.2 0 0 1 3.6-.1 8 8 0 0 0-3.5-2c-2-.6-5-.1-6 .7-2 1.4-2.3 4-1.2 4.4s2.5-.1 3.6-1zm31-28.8a9.4 9.4 0 0 0-2.6 3.2 7.4 7.4 0 0 0-.6 3.6 7.9 7.9 0 0 1-1.4-3.8c-.3-2.2.6-5 1.6-5.8 1.7-2 4.2-1.7 4.5-.6s-.5 2.4-1.4 3.4zm7 9.3c-.6.3-2.7 1-3.7 2.5a6.3 6.3 0 0 0-1.3 3.7 10.4 10.4 0 0 1-1.4-4.8c-.2-2.5 1.4-5.3 2.7-5.8 2.5-1.4 5.6-.2 6 1.2s-1 2.5-2.2 3.2zm7.4 14c-.6.2-2.8.4-4 1.8a6.4 6.4 0 0 0-1.9 3.4 10.6 10.6 0 0 1-.6-5c.3-2.5 2.2-5 3.6-5.2 2.7-1 5.6.8 5.6 2.2s-1.4 2.3-2.7 2.8zm-22 9.7a6.7 6.7 0 0 0-2.9 2.2 5.2 5.2 0 0 0-.8 3.1 8.6 8.6 0 0 1-1.4-3.9c-.3-2 .8-4.4 2-4.8 2-1.3 4.6-.4 5 .7s-.6 2-1.6 2.8zM143 94.2a5.6 5.6 0 0 0 .1 2.4 4.3 4.3 0 0 0 1.1 1.8 4.9 4.9 0 0 1-2.1-1.1 4.6 4.6 0 0 1-1.6-3.2c0-1.5 1.2-2.4 1.8-2s.7 1.2.7 2zM122 127a5.6 5.6 0 0 1 2-1.4 4.3 4.3 0 0 1 2.1-.2 4.6 4.6 0 0 0-2.2-1 4.6 4.6 0 0 0-3.5.7c-1.2 1-1.2 2.4-.5 2.6s1.4-.2 2-.7z"/><path d="M125.2 121a5.7 5.7 0 0 0-.1 2.4 4.4 4.4 0 0 0 1 1.9 4.7 4.7 0 0 1-2-1.3 4.6 4.6 0 0 1-1.3-3.3c.1-1.5 1.4-2.3 2-2s.5 1.3.5 2zm2.2 39.4c13.6 1.5 26.3 7.5 38.5 13.4 8.2 4 7.8 5 9.5 5.7a.3.3 0 0 0 .4-.5c-.6-1.3-2.3-2-3.5-3a45.9 45.9 0 0 0-4.2-2.3l-9.5-4.2a136.9 136.9 0 0 0-19.8-7.2 68.4 68.4 0 0 0-11.4-2c-.1 0-.1.1 0 .1z"/><path d="M139.7 156.2a8.7 8.7 0 0 0-.3 3.8 6.7 6.7 0 0 0 1.4 3.1 7.3 7.3 0 0 1-3.1-2.1c-1.4-1.5-2-4-1.8-5.2.3-2.4 2.3-3.5 3-2.8s1 2.2.7 3.3zm12 4.3a8.7 8.7 0 0 0-.3 3.8 6.7 6.7 0 0 0 1.4 3.1 7.3 7.3 0 0 1-3.1-2.1c-1.4-1.5-2-4-1.8-5.2.3-2.4 2.3-3.5 3-2.8s1 2 .7 3.3z"/><path d="M163.8 166a8.7 8.7 0 0 0-.3 3.8 6.8 6.8 0 0 0 1.4 3.1 7.3 7.3 0 0 1-3.1-2.1c-1.4-1.5-2-4-1.8-5.2.3-2.4 2.3-3.5 3-2.8s1 2 .7 3.3zm-27.8 1.4a8.2 8.2 0 0 1 1.9-3 6.4 6.4 0 0 1 2.7-1.5 6.8 6.8 0 0 0-3.5-.1c-1.8.3-4 1.8-4.3 2.8-1 2-.3 4 .7 3.8s1.8-1 2.4-2zm12.6 4.4a8.1 8.1 0 0 1 1.9-3 6.1 6.1 0 0 1 2.7-1.5 6.7 6.7 0 0 0-3.5-.2c-1.8.3-4 1.8-4.3 2.8-1 2-.3 4 .7 3.8s2-1 2.4-2zm-22-8.8a5.2 5.2 0 0 1 1.6-1.6 4.1 4.1 0 0 1 1.9-.6 4.4 4.4 0 0 0-2.2-.6 4.3 4.3 0 0 0-3.1 1.2c-1 1-.7 2.4 0 2.5s1.2-.4 1.7-1z"/><path d="M128 157a5.2 5.2 0 0 0 .5 2.2 4.2 4.2 0 0 0 1.3 1.5 4.5 4.5 0 0 1-4.1-3.3c-.2-1.4.7-2.4 1.3-2.2s1 1 1 1.8z"/></g><path d="M187.2 179.5a.9.9 0 0 1-.9-.7l-13.7-67.2a.9.9 0 1 1 1.8-.4l13.7 67.2a.9.9 0 0 1-.7 1.1zm-49.2 0h-.2a.9.9 0 0 1-.7-1.1l15.5-69.2a.9.9 0 1 1 1.8.4l-15.4 69a.9.9 0 0 1-.9.7z" class="Z"/><path d="M135 87.5a28.4 28.4 0 0 0 56.8 0z" class="b"/><path d="M187.2 87.5c-2.2 13.5-13.2 22-27.4 22-6.7 0-13.6-.6-18.4-4.5a28.4 28.4 0 0 0 50.5-17.6z" class="W"/><path d="M136 87.3h56a0 0 0 0 1 0 0v2a0 0 0 0 1 0 0h-58a0 0 0 0 1 0 0h0a2 2 0 0 1 2-2z" class="c"/><path d="M194.6 87.6a2.8 2.8 0 1 1-2.2-3.3 2.8 2.8 0 0 1 2.2 3.3z" class="X"/><path d="M193.7 87.4a1.8 1.8 0 1 1-1.4-2.1 1.8 1.8 0 0 1 1.4 2.1zm-47.7 54h34.5v3.5H146z" class="Z"/><rect x="141.4" y="81.3" width="25.8" height="3.5" rx="1.8" class="V"/><g class="U"><rect x="148" y="81.3" width="19.2" height="3.5" rx="1.8"/><rect x="169.8" y="81.3" width="14.9" height="3.4" rx="1.7"/></g><rect x="138.4" y="84.7" width="49.7" height="2.6" rx="1.3" class="X"/><path d="M225 32.8a17.4 17.4 0 0 0 2-.4 9.6 9.6 0 0 1 2.3-.4c1.2.1 3.2.6 4 2 1 1.8 3.8 1 1.7 9-2.4 9-7.2 7-7.3 6.7l-3.3-6.7-2.2 3c0-.1-5.6-12 2.7-13z" class="T"/><path d="M187 47.8c.3-.6 2.8 1 3.4.8s-2.3-3.2-2-3.7c.5-1 3.3 3 3.6 2.5s-2.4-4.5-1.5-4.8 2.4 4.5 3 4.2-1.7-4.3-.8-5.2c.5-.5 3 7.4 3.8 7.7s1.8-3 2.6-3-2.5 6.3-2.3 6.8 3.3 11 5.2 14.2c1-.5 7.5-3 8.5-3.4.4 2.3 2 4 2.4 6.4-3.6 1.6-13.3 4.6-14.3 4.2-3.2-1-5-16.4-5.5-19.2s-2-3.4-2.7-5-3.5-2-3.2-2.6z" class="S"/><path d="M207.3 74s13.7-4 17-7 4-9.5.8-11.8-20.5 9.4-20.5 9.4z" class="c"/><path d="M212 169.6l.3 5c.1.6.5 2.2.5 2.7 0 2-9.3-1.8-7.2-2.7.2-.1 1.2-.7 1.2-1.5l.3-3.4z" class="S"/><path d="M205.6 174.5a32.4 32.4 0 0 0 3.3.8c1 .2 2.6-1.2 3.4-.8s.8 4.4.8 4.4-11.7.7-15-.4c-1.3-.4 3-2.5 7.5-4z" class="U"/><path d="M232.5 170l.3 5c.1.6.5 2.2.5 2.7 0 2-9.3-1.8-7.2-2.7.2-.1 1.5-1.2 1.5-2 .1-1 0-3 0-3z" class="S"/><path d="M226 175a32.4 32.4 0 0 0 3.3.8c1 .2 2.6-1.2 3.4-.8s1 4 1 4h-15.4c-1.3-.4 3.3-2.6 7.8-4z" class="U"/><path d="M217.8 99.2l-4 1.7-8.3 40.2.3 30.2 6.6.2 3-28.4c0-2 14.3-35.8 14.3-35.8z" class="W"/><path d="M220.8 101.4l3 36.2c0 5.2 2.3 34.5 2.3 34.5h6.6l1.2-22c.1-2-.2-6.2 0-8.3l2-35.4c-.2-1-.5-3.3-1-4-4.4-4.7-14.2-1-14.2-1z" class="b"/><path d="M231.8 55a21 21 0 0 0 5.8 1.5 16.5 16.5 0 0 1 2.9 3.3s-5.6 27.2-5.6 31.7a136 136 0 0 0 1.2 12.2s-17 1-23.5-1.5l2-13c0-2.7 2.4-27.3 3-29 .5-1.6 1.4-4.4 4.5-5s9.7-.2 9.7-.2z" class="U"/><path d="M230.5 47.7l1 7.6s-4.2 9-6.6 8.2c-2-.7-.8-8.6-.8-8.6 0-.2 1.2-4.5.8-6.4-.4-2 5.5-.7 5.5-.7z" class="S"/><path d="M225 48.5c-.3-2 5.5-.7 5.5-.7l.1.6.2 1.2s-2 4.7-6.2 4a30.6 30.6 0 0 0 .5-5z" class="U"/><g class="X"><path d="M215 91.7h0a1.1 1.1 0 0 1-1.1-.8l-5.8-26.3h.2l7.7 25.8a1.1 1.1 0 0 1-1 1.3z"/><path d="M208.5 58.4s1 6.2-.2 6.4-2.5-6.6-2.5-6.6 1.7 5 2.3 5 .4-4.8.4-4.8z"/></g><path d="M212.4 55.5a1.9 1.9 0 0 1 .8 3 2.2 2.2 0 0 1-1.7.7c-2.6.1-5.8 1-7.4 2.8s-4.6-.4-2.4-3c2-2.2 6.8-5 10.6-3.6z" class="V"/><path d="M207.2 126l17 3.3a5.3 5.3 0 0 0 6.3-4.8l2.3-26.3-19-2.2z" fill="#fdb201"/><path d="M235.6 97.3l.5 1.8-7.6 1s-1-2.5-.4-2.4l4.5.5z" class="T"/><path d="M210.3 84.6c.1-.1.1-.2.1-.2a1.3 1.3 0 0 1 .2-1.2 17.1 17.1 0 0 1 1.9-.3 1.5 1.5 0 0 1 .6-.3c.2 0 1.7-.6 2-.6s1.3.5 1.8.6a7 7 0 0 1 1.7.9c.2.1 4.2-.1 5.2-.1s2-.1 2-.1 6.5-1 13.3-1.5l-1.2-5.6 6.4-.7L246 85c.1 3-10 2.6-18.8 2.2h0c-1 0-2-.1-2.7-.1l-4 .2h0a13.9 13.9 0 0 0-1.4.2 9.9 9.9 0 0 1-1.2.3 3 3 0 0 0-.6.3c-.2.1-2.2.2-2.5.2a5.1 5.1 0 0 1-1.1-.2h-1.4c-1 0-.7-1-.7-1-.5 0-.7-.2-.8-.5a2 2 0 0 1 0-.6c0 0-.2-.1-.2-.1-.3 0-.5-.3-.5-.6a1 1 0 0 1 .3-.7z" class="S"/><path d="M236.7 56.2a11.7 11.7 0 0 1 5.5 3.8c2.5 3 4 19 4 19l-8.7 1.4-.7-7.8-2.3-3.6z" class="U"/><g class="S"><path d="M228.5 36a4.4 4.4 0 0 0-5.8 3.3 35.5 35.5 0 0 0-.5 4.2c-.2 3.8 1.7 7.6 3.4 7.7s6.6-2.3 7-7.7c.2-3.4-1.4-6.5-4-7.5z"/><path d="M231.3 44a1.4 1.4 0 0 0 1.2 1.6 1.6 1.6 0 0 0 .1-3.1 1.4 1.4 0 0 0-1.3 1.5z"/></g><path d="M232.6 42.4s-2 .1-2.6-1.4-2.6-4.8-6.3-4.4 3.6-2.2 4-2.2l3.6.7 2.2 3c0 .3.3 3 .3 3z" class="T"/><path d="M224 47l3 .3a1.3 1.3 0 0 1-1.5 1.1C224 48 224 47 224 47z" fill="#fff"/><path d="M248.3 172.8l.2 3.5a18.6 18.6 0 0 1 .4 1.9c0 1.5-7-1.3-5.5-2 .1-.1 1-.5 1-1l.3-2.4z" class="S"/><path d="M243.4 176.2s1.7.4 2.5.6 2-.8 2.6-.6.6 3 .6 3h-11.5c-1-.3 2.3-1.8 5.7-2.8z" class="T"/><path d="M260 118s.8 5.3-.2 7.5a375 375 0 0 0-8.5 26.7c-.1 1.8-2.6 22.2-2.6 22.2l-5.2-.2-1-22.6 2.3-28.4 2.3-7.2z" class="Z"/><path d="M263 172.8v3.5c.1.4.4 1.5.4 2 0 1.5-7-1.3-5.5-2 .1-.1 1-.8 1.2-1.4.1-.8 0-2 0-2z" class="S"/><path d="M258 176.2s1.7.4 2.5.6 2-.8 2.6-.6.7 3 .7 3-9 .8-11.5 0c-1-.4 2.3-1.8 5.7-2.8z" class="T"/><path d="M261.3 118.3a39.9 39.9 0 0 1 .7 10.2c-.5 4.4-.5 20-.5 20l2 25-4.4.1s-7.4-26-7.3-25.4-1.8-17.7-1.8-17.7l8.5-13z" class="X"/><path d="M226.6 115.7c-.2-.4 2-.8 2-1.2s-2.7-.5-2.7-1c-.2-.7 3-.1 3-.5s-3.3-1-3-1.7 3.3 1.2 3.4.8-3-1.3-2.8-2.2c0-.5 5 2.3 5.4 2s-.6-2.4-.1-2.7 1.8 4 2 4.2a117 117 0 0 0 9.4 3.7c.3-.8 2.6-5 2.8-5.7 1.3 1 3.2.2 4.5 1-1 2.5-4 9.8-4.6 10-2 1-11.5-4.8-13-6s-2.5-.8-3.6-1.2-2.7.7-2.8.3z" class="S"/><path d="M244 114.4l6.4 1 .7-7.8c.2-3 .1-7-.3-7a5.6 5.6 0 0 0-3.3 1.8c-3 3.8-3.5 12-3.5 12z" class="T"/><path d="M247.8 107L243 131c11.4 6.3 19.8 3.3 19.8 3.3v-19.6c.4-1.6 1.8-12 .8-12.4a32 32 0 0 0-4.9-1.4c-1.4-.2-7-.6-8-.3a12.6 12.6 0 0 0-3.2 6.2z" fill="#fae0b2"/><path d="M257 81.7s-4.2-1.8-5.4 1.8a2.7 2.7 0 0 0-2.8 3.6s-3.5 2-1 6.7c0 0-.7 4.6 4.6 4.5a2.9 2.9 0 0 0 3.3 1c2.4-.5 3-1.2 3-1.2s4.3 1 5.3-3c0 0 3-1 .6-4.5 0 0 2.2-5-2.4-6.2 0 0-1-5-5.3-2.7z" class="T"/><path d="M260.2 92.8c-.3 1 0 1.8.7 2s1.4-.4 1.6-1.4 0-2-.7-2-1.4.4-1.6 1.4zM249 91.4c0 1 .6 1.8 1.3 1.8s1.2-.8 1.2-1.8-.6-1.8-1.2-1.7-1.2.8-1.2 1.8zm5 6c0 .1-.4 2.6-.6 4a1.1 1.1 0 0 0 .7 1.2c1.3.5 3.7 1 5.2-.6a.7.7 0 0 0 .2-.5l-.6-6z" class="S"/><path d="M253.6 98.8a4.8 4.8 0 0 0 4.7-.8l.6-.5-.2-2-5 2-.2 1.4z" class="V"/><path d="M256.5 84.7a5.9 5.9 0 0 1 3.4 2.3c1.3 2 2.4 7.5-1.6 10.2s-7.4-.8-7.6-4.4 1-8.4 5.8-8z" class="S"/><path d="M252.6 94.4h4.2a1.8 1.8 0 0 1-1.9 1.6c-2.2.1-2.2-1.6-2.2-1.6z" fill="#fff"/><path d="M252.4 85.5a7.6 7.6 0 0 1 3.5.5c1.3.7 4.4 5.7 5.2 5.5s1.2-3.5 1-4a23.2 23.2 0 0 0-2-2.8 20.7 20.7 0 0 0-2.4-.9l-3 .1z" class="T"/><path d="M250.7 128.2c-.4-.2 1-1.8.8-2.2s-2.3 1.3-2.7 1c-.6-.4 2.2-2 2-2.2s-3.3 1.3-3.3.6 3.3-1.2 3-1.6-3 .8-3.6.1c-.3-.4 5.2-1.4 5.5-2s-2-1.4-1.8-2 4 2 4.3 2 7.4-2.2 9.6-3.2c-.3-.8-1.2-5.5-1.5-6.2 1.6-.1 2.6-2 4.2-2l3 10.7c-1 2-12 3.6-14 3.8s-2.4 1-3.5 1.4-1.7 2.2-2 2z" class="S"/><path d="M269.3 115l-7.4 3.6-2-8.7c-.7-3 3-8 4-7.3 2.7 1.6 5.2 12.5 5.2 12.5z" class="T"/><path d="M50.8 75.3H52v1.2l-1-1.2z" class="V"/><g class="S"><path d="M81 72.2a82 82 0 0 0-1.3-10.6 53.8 53.8 0 0 0-3.2 7.1c-.2.4-3.4 8.8-3.4 8.8L56.8 77l.3 4c.6 0 21.5 3 22.6 2.5S81.3 77 81 72.2z"/><path d="M57.3 77.3L57 81H55l-1.2-5-.2-.3h0S52 74.5 52 74s1 .1 1.4.3a37.8 37.8 0 0 1 3.3 2.8z"/></g><path d="M83.7 55.3l-5 19.8c-2-.8-3.4-2-5.3-2.7 4.5-12.8 10.4-17 10.4-17z" class="W"/><path d="M79.5 44.5c-.6-3-1.2-5.7.4-9a8.1 8.1 0 0 1 6.3-4.3c7.6-1 6 6.2 16.6 7.8a24 24 0 0 1 9.1 2.6c5 3 7 7.7 3.6 15.5-8 19-27.5 2.5-30.4-1s-5.3-10-5.7-11.7z" class="T"/><path d="M110 164.6s.5 5.5 2 6.5 3.3 4.8 2.3 6.8a2.3 2.3 0 0 1-1.5 1.2 4.1 4.1 0 0 1-4.9-2.3 11.5 11.5 0 0 1-1-4.2 15.2 15.2 0 0 0-1.6-6.7zM88.5 167v7.4c.2 1 1.3 3 .8 4a2.4 2.4 0 0 1-1 1.1l-12.7.2c-.7 0-.2-.4.3-.8a26.2 26.2 0 0 1 4.5-2.5c.2-.1 1-.5 1-.7a8.9 8.9 0 0 0 1.8-1.6c1-1 1-6 1-6z" class="S"/><path d="M78.7 93s-1.6 9-.5 15 6 60.7 6 60.7l5.6.3 1-26a49.6 49.6 0 0 0-1.9-8.5l.5-18.5-7-24.3z" class="b"/><path d="M95 91s4.4 6.6 5.4 12-.8 22.2 1.2 29.4c1 4 5.2 10 5.8 15l3 18-5.6 1L92 134l-10-29.6L79.4 89z" class="W"/><path d="M91.5 53.6a11 11 0 0 1 6.2 2.9C100 59 94 79 93.5 82.3S97 93 97 93s-14.4 2.7-18.3.1V67.8a67 67 0 0 1 4.7-12.4c.8-1 8-1.8 8-1.8z" fill="#fae0b2"/><path d="M89.6 45.8v.5a44.3 44.3 0 0 0 1.9 7.3c.8 1.5-2.8 6.4-6.3 5.8-1-.2 1-4.5.8-5l-.7-3.3-.4-2-.7-3.4z" class="S"/><path d="M89.6 46.3v-.5l-5.2-.1.7 3.4.4 2a4.8 4.8 0 0 0 2.5-1.2 6.5 6.5 0 0 0 1.9-2.8l-.2-.8z" class="U"/><g class="S"><path d="M86.4 33.5a6.2 6.2 0 0 1 3.7 2.3c1.5 2 3.2 8-.6 11.5s-7.6-.4-8-4.4-.5-9.4 5-9.3z"/><path d="M80.2 41.8c.2 1 1 1.6 1.4 1.5s.8-1 .5-2-1-1.6-1.4-1.5-.7 1-.5 2z"/></g><path d="M85.8 33.4s3.3 5.8 5.6 6 2.6 3.4 2.6 3.4-.8-7-3.2-8.5a8.6 8.6 0 0 0-5.1-1z" class="T"/><path d="M90.6 41c-.2 1 .2 2 1 2s1.4-.6 1.5-1.6-.2-2-1-2-1.4.6-1.5 1.6z" class="S"/><path d="M107.4 175.8a6.2 6.2 0 0 0 6.1-2.6c.8 1.5 1.2 3.4.7 4.6-.5 1-2 1.4-3 1.4a3.3 3.3 0 0 1-3-1.7 9.9 9.9 0 0 1-.8-1.8zm-26-.4a11.4 11.4 0 0 0 7.2-.3c.4 1 .8 2.3.6 3-.3 1-.7 1-1 1l-13.5.2a.4.4 0 0 1-.3-.6c.6-.7 7-3.3 7.2-3.4zm-29-105v.1l-.1.8v.2l7.2 2.2 5-.5.2-1.2-.4-.1-.4.3h-.4-.4-.4-.4-.4-.4-.4-.4-.4-.4l-.4-.3-.4.2-.4-.3-.4.2-.4-.3-.4.2-.4-.3-.4.2-.3-.3-.4.1-.3-.3h-.4L55 71h-.5l-.3-.3-.5.1-.3-.4H53l-.2-.3h-.4z" class="U"/><path d="M52.3 71.4c-.1 0-.3 5-.6 6.3l-1.2 6 12.4 2 .7-8.7c.4-2 1-3.7 1-3.8s-9.4-.4-12.3-1.7z" class="Z"/><path d="M62.5 79.3c-.3 1.5-2.7 2.3-5.5 1.8s-4.7-2.2-4.4-3.7 2.7-2.3 5.5-1.8 4.7 2.2 4.4 3.7z" class="Y"/><path d="M53.6 79a.9.9 0 0 1-.6 1c-.8.3-2.2.6-2.7-.3-.7-1.4-.1-4.7.5-4.5s3 2.3 2.8 3a1.3 1.3 0 0 0 0 1z" class="S"/><path d="M76 75.3c.1.7.6 1 1 1s.8-.7.6-1.4-.6-1-1-1-.8.8-.6 1.4zm1.2-.8c0 .2-.2.3-.4.4s-.5 0-.5-.2.2-.3.4-.4.5 0 .5.2zm-1 1c0-.2.2-.5.6-.5s.7.1.7.3-.2.5-.6.6-.7-.1-.7-.3z" class="T"/><g fill="#7f1ca0"><use xlink:href="#C"/><use xlink:href="#C"/></g><path d="M72.5 78.8l1.6 9a1 1 0 0 0 1.2.8l5-1a1 1 0 0 0 .8-1.2l-1.6-9a3.1 3.1 0 0 0-.5-1.2l-6.5 1.2a2.9 2.9 0 0 0 0 1.3z" class="U"/><path d="M79.8 86.6l-1.6-9a3 3 0 0 0-.5-1.2l1.3-.2a3.1 3.1 0 0 1 .5 1.2l1.6 9a1 1 0 0 1-.8 1.2l-1.4.2a1 1 0 0 0 .8-1.2z" class="V"/><path d="M72.5 78.8l1.6 9a1 1 0 0 0 1.2.8l2-.4a1 1 0 0 1-1.2-.8l-1.6-9a2.9 2.9 0 0 1 0-1.3l-2 .4a2.9 2.9 0 0 0 0 1.3z" class="c"/><path d="M72.6 77.5l6.5-1.2h0a.5.5 0 0 0-.6-.4L73 77a.5.5 0 0 0-.4.6zm1.2 8.5l7-1.3v1L74 87z" class="X"/><path d="M83 82a14.2 14.2 0 0 0-1.8-2 3 3 0 0 0-1.2-.5s-1-.2-1 0a.5.5 0 0 0 .2.6c.2.1.5.1.7.2a1.5 1.5 0 0 1 .3.9c0 .2-2.8-.5-2.8-.5s-.8-.2-1-.3l-.8-.3s-1-.4-1-.1.7.8 1.5 1.2a18.7 18.7 0 0 1 1.8.9c0 .2-1.6-.1-1.6-.1a4.9 4.9 0 0 0-1-.4c-.4-.3-1.2-.5-1.2-.1a6.7 6.7 0 0 0 .9.7l1 .5c.5.3 1.4.4 1.8.6s.2.2.2.2a7.8 7.8 0 0 1-1-.2 6 6 0 0 1-1-.2 7.3 7.3 0 0 0-1.1-.3c-.8-.2-.8.4 0 .7l1 .3c1.2.5 2.4.6 2.4.7s-2-.2-2-.2-1.2.1-.1.5a9.8 9.8 0 0 0 2.3.6 9 9 0 0 0 2.5.3l2.5-.3z" fill="#f8a492"/><path d="M102 71.5l-5.5.8.2 5.2L83 82l-.4 3.3 1.8-.4c.8-.1 12.8-2 12.8-2s4.8-1 5-1.7-.2-9.6-.2-9.6z" class="S"/><path d="M97 55.8s1.8 1 3.5 4.6C102 64 103 76.7 103 76.7l-7.8.7-2-4.8a15.3 15.3 0 0 1 1.6-15.2c1-1.2 1.7-2 2.2-1.5z" class="W"/><path d="M80 79v.2V81s-.8-.3-1-.5-.6-1.2-.6-1.2.3-.3.3-.4a4.2 4.2 0 0 1 .6-.1z" class="V"/><path d="M95.8 178.3h3.8a2 2 0 0 1-1.7 1.2 1.9 1.9 0 0 1-2.1-1.2z" fill="#fff"/><g class="a"><path d="M287 179c7.4-11.8 8.8-26.2 8.6-36a94.8 94.8 0 0 0-2.1-18.9l.5-.2a95.3 95.3 0 0 1 2.1 19c.1 10-1.2 24.5-8.7 36.5z"/><path d="M291.7 122.2a8.2 8.2 0 0 0 2.7 5.7 9.6 9.6 0 0 0 1.8-6.5 8.2 8.2 0 0 0-2.7-5.7 9.6 9.6 0 0 0-1.8 6.5zm5 5.6a9.6 9.6 0 0 0-1.2 6.6 8.3 8.3 0 0 0 5-4 9.5 9.5 0 0 0 1.2-6.6 8.3 8.3 0 0 0-5 4zm2.8 6.6a9.1 9.1 0 0 0-3.8 5.4 7.1 7.1 0 0 0 6-1.1 9.1 9.1 0 0 0 3.8-5.4 7.1 7.1 0 0 0-6 1.1zm-1 9.2a6.7 6.7 0 0 0-2.8 4.8 5.1 5.1 0 0 0 4.9-.4 6.7 6.7 0 0 0 2.8-4.7 5 5 0 0 0-4.9.4zm-6.3-11a6.1 6.1 0 0 0-5.3-.3 6.9 6.9 0 0 0 3.3 4.4 6.1 6.1 0 0 0 5.3.3 6.9 6.9 0 0 0-3.3-4.4zm.2 6.3a6.1 6.1 0 0 0-5.3-.3 6.9 6.9 0 0 0 3.3 4.4 6.1 6.1 0 0 0 5.3.3 6.9 6.9 0 0 0-3.3-4.4z"/></g><defs ><path id="B" d="M116.3 180.2h-11.6v-56l5.8-4.6 5.8 4.6v56z"/><path id="C" d="M79 76.3a3.1 3.1 0 0 1 .5 1.2l1.6 9a1 1 0 0 1-.8 1.2l-5 1a1 1 0 0 1-1.2-.8l-1.6-9a2.9 2.9 0 0 1 0-1.3z"/></defs></svg>