<svg xmlns="http://www.w3.org/2000/svg" viewBox="0 0 415 180"><defs><style>.cls-1{fill:#f2fdfe;}.cls-2{fill:#025f68;}.cls-3{fill:#b5dcdf;}.cls-4{fill:#830000;}.cls-5{fill:#13375b;}.cls-6{fill:#184655;}.cls-7{fill:#f7a491;}.cls-8{fill:#b75742;}.cls-9{fill:#e2f1f2;}.cls-10,.cls-16{fill:#f47458;}.cls-10{opacity:0.5;}.cls-11{fill:#fff;}.cls-12{fill:#fdb201;}.cls-13{fill:#f7cc7f;}.cls-14{fill:#f8a492;}.cls-15{fill:#cd0000;}.cls-17{fill:#c5ddf9;}.cls-18{fill:#eab054;}.cls-19{fill:#a34b3d;}.cls-20{fill:#bc4d26;}.cls-21{fill:#55bbf9;}.cls-22{fill:#f48c7f;}.cls-23{fill:#fae0b2;}.cls-24{fill:#3c8f7c;}.cls-25{fill:#7f1ca0;}</style></defs><title>Untitled-2</title><polygon class="cls-1" points="98.05 180.16 86.45 180.16 86.45 124.14 92.25 119.54 98.05 124.14 98.05 180.16"/><polygon class="cls-1" points="80.74 180.16 69.14 180.16 69.14 124.14 74.94 119.54 80.74 124.14 80.74 180.16"/><rect class="cls-1" x="69.23" y="138.2" width="40.99" height="3.09"/><polygon class="cls-1" points="116.25 180.16 104.65 180.16 104.65 124.14 110.45 119.54 116.25 124.14 116.25 180.16"/><polygon class="cls-1" points="150.88 180.16 139.27 180.16 139.27 124.14 145.07 119.54 150.88 124.14 150.88 180.16"/><polygon class="cls-1" points="133.56 180.16 121.96 180.16 121.96 124.14 127.76 119.54 133.56 124.14 133.56 180.16"/><rect class="cls-1" x="108.84" y="138.2" width="54.21" height="3.09"/><polygon class="cls-1" points="28.41 180.16 16.81 180.16 16.81 124.14 22.61 119.54 28.41 124.14 28.41 180.16"/><polygon class="cls-1" points="11.1 180.16 -0.5 180.16 -0.5 124.14 5.3 119.54 11.1 124.14 11.1 180.16"/><rect class="cls-1" x="-0.4" y="138.2" width="40.99" height="3.09"/><polygon class="cls-1" points="46.62 180.16 35.02 180.16 35.02 124.14 40.82 119.54 46.62 124.14 46.62 180.16"/><polygon class="cls-1" points="63.93 180.16 52.33 180.16 52.33 124.14 58.13 119.54 63.93 124.14 63.93 180.16"/><rect class="cls-1" x="39.21" y="138.2" width="54.21" height="3.09"/><polygon class="cls-1" points="169.08 180.16 157.48 180.16 157.48 124.14 163.28 119.54 169.08 124.14 169.08 180.16"/><polygon class="cls-1" points="203.7 180.16 192.1 180.16 192.1 124.14 197.9 119.54 203.7 124.14 203.7 180.16"/><polygon class="cls-1" points="186.39 180.16 174.79 180.16 174.79 124.14 180.59 119.54 186.39 124.14 186.39 180.16"/><rect class="cls-1" x="161.67" y="138.2" width="54.21" height="3.09"/><polygon class="cls-1" points="221.91 180.16 210.31 180.16 210.31 124.14 216.11 119.54 221.91 124.14 221.91 180.16"/><polygon class="cls-1" points="256.53 180.16 244.93 180.16 244.93 124.14 250.73 119.54 256.53 124.14 256.53 180.16"/><polygon class="cls-1" points="239.22 180.16 227.62 180.16 227.62 124.14 233.42 119.54 239.22 124.14 239.22 180.16"/><rect class="cls-1" x="214.5" y="138.2" width="54.21" height="3.09"/><polygon class="cls-1" points="274.74 180.16 263.13 180.16 263.13 124.14 268.93 119.54 274.74 124.14 274.74 180.16"/><polygon class="cls-1" points="309.36 180.16 297.75 180.16 297.75 124.14 303.56 119.54 309.36 124.14 309.36 180.16"/><polygon class="cls-1" points="292.05 180.16 280.44 180.16 280.44 124.14 286.25 119.54 292.05 124.14 292.05 180.16"/><rect class="cls-1" x="267.32" y="138.2" width="54.21" height="3.09"/><polygon class="cls-1" points="327.56 180.16 315.96 180.16 315.96 124.14 321.76 119.54 327.56 124.14 327.56 180.16"/><polygon class="cls-1" points="362.18 180.16 350.58 180.16 350.58 124.14 356.38 119.54 362.18 124.14 362.18 180.16"/><polygon class="cls-1" points="344.87 180.16 333.27 180.16 333.27 124.14 339.07 119.54 344.87 124.14 344.87 180.16"/><rect class="cls-1" x="320.15" y="138.2" width="54.21" height="3.09"/><polygon class="cls-1" points="380.39 180.16 368.79 180.16 368.79 124.14 374.59 119.54 380.39 124.14 380.39 180.16"/><polygon class="cls-1" points="415.01 180.16 403.41 180.16 403.41 124.14 409.21 119.54 415.01 124.14 415.01 180.16"/><polygon class="cls-1" points="397.7 180.16 386.1 180.16 386.1 124.14 391.9 119.54 397.7 124.14 397.7 180.16"/><rect class="cls-1" x="372.98" y="138.2" width="41.56" height="3.09"/><path class="cls-2" d="M171.71,169.7a14.22,14.22,0,0,0,.21-2.45c0-9.28-8.69-16.8-19.42-16.8s-19.41,7.52-19.41,16.8a15.28,15.28,0,0,0,.2,2.45Z"/><path class="cls-3" d="M193.68,165.57a28,28,0,0,0,.21-3.45c0-13.08-8.69-23.69-19.42-23.69S155.06,149,155.06,162.12a28,28,0,0,0,.21,3.45Z"/><path class="cls-3" d="M186.58,179.6a14.13,14.13,0,0,1-.21-2.45c0-9.27,8.69-16.79,19.42-16.79s19.41,7.52,19.41,16.79a15.19,15.19,0,0,1-.2,2.45Z"/><path class="cls-2" d="M155.5,179.6a23.06,23.06,0,0,1-.26-3.45c0-13.08,11-23.68,24.62-23.68s24.61,10.6,24.61,23.68a23.06,23.06,0,0,1-.26,3.45Z"/><path class="cls-3" d="M173.53,152.47a21.19,21.19,0,0,0-16.87,8.64,27.59,27.59,0,0,0-6.45-.75c-12.06,0-21.84,7.52-21.84,16.79,0,.84-11.84,1.65-11.69,2.45h78.46a26.07,26.07,0,0,0,.23-3.45C195.37,163.07,185.59,152.47,173.53,152.47Z"/><path class="cls-2" d="M90.24,130.2c-5.72-8.93-6.78-19.71-6.67-27.19A70.23,70.23,0,0,1,85.2,88.77l-.41-.15A70.39,70.39,0,0,0,83.14,103c-.11,7.54,1,18.44,6.75,27.48Z"/><path class="cls-2" d="M86.61,87.28a6.07,6.07,0,0,1-2.12,4.32,7.07,7.07,0,0,1-1.42-4.86,6.07,6.07,0,0,1,2.12-4.32A7.07,7.07,0,0,1,86.61,87.28Z"/><path class="cls-2" d="M82.75,91.52a7,7,0,0,1,1,5,6.46,6.46,0,0,1-3.89-3,7,7,0,0,1-1-5A6.41,6.41,0,0,1,82.75,91.52Z"/><path class="cls-2" d="M80.56,96.51a6.86,6.86,0,0,1,2.92,4.08,5.66,5.66,0,0,1-4.62-.82A6.89,6.89,0,0,1,76,95.69,5.64,5.64,0,0,1,80.56,96.51Z"/><path class="cls-2" d="M81.23,103.45A5,5,0,0,1,83.37,107a4,4,0,0,1-3.83-.31,5,5,0,0,1-2.14-3.58A4,4,0,0,1,81.23,103.45Z"/><path class="cls-2" d="M86.16,95.22A4.9,4.9,0,0,1,90.28,95a5.19,5.19,0,0,1-2.58,3.35,4.83,4.83,0,0,1-4.12.24A5.19,5.19,0,0,1,86.16,95.22Z"/><path class="cls-2" d="M86,100a4.85,4.85,0,0,1,4.13-.24,5.23,5.23,0,0,1-2.59,3.35,4.86,4.86,0,0,1-4.12.23A5.19,5.19,0,0,1,86,100Z"/><path class="cls-2" d="M82.1,111.08a2.61,2.61,0,0,1,1.65,1.27,2.16,2.16,0,0,1-1.9.43,2.62,2.62,0,0,1-1.65-1.26A2.16,2.16,0,0,1,82.1,111.08Z"/><path class="cls-2" d="M87.88,136.51c-13.08-3.13-23-12.81-29.12-20.37a86.26,86.26,0,0,1-10.14-15.86l-.54.27a87.62,87.62,0,0,0,10.22,16c6.12,7.64,16.2,17.41,29.44,20.57Z"/><path class="cls-2" d="M48.79,97.38a8.65,8.65,0,0,1,1.46,6.45,7.92,7.92,0,0,1-5.44-3.41A8.62,8.62,0,0,1,43.36,94,8,8,0,0,1,48.79,97.38Z"/><path class="cls-2" d="M48.44,105.51a8,8,0,0,1,5.07,4,7.91,7.91,0,0,1-6.35,1,8,8,0,0,1-5.06-4A7.88,7.88,0,0,1,48.44,105.51Z"/><path class="cls-2" d="M50.38,112.69a7.86,7.86,0,0,1,6.29,1.13,8.35,8.35,0,0,1-5.28,3.85,7.8,7.8,0,0,1-6.28-1.13A8.35,8.35,0,0,1,50.38,112.69Z"/><path class="cls-2" d="M55.59,119.23a7.81,7.81,0,0,1,6.29,1.12,8.32,8.32,0,0,1-5.27,3.85,7.81,7.81,0,0,1-6.29-1.12A8.28,8.28,0,0,1,55.59,119.23Z"/><path class="cls-2" d="M54,108.37a8.47,8.47,0,0,1,1.86-5.83,7.45,7.45,0,0,1,2.45,5.3,8.5,8.5,0,0,1-1.87,5.82A7.36,7.36,0,0,1,54,108.37Z"/><path class="cls-2" d="M59.47,115.13a8.5,8.5,0,0,1,1.78-5.86,7.41,7.41,0,0,1,2.52,5.25A8.54,8.54,0,0,1,62,120.38,7.38,7.38,0,0,1,59.47,115.13Z"/><path class="cls-2" d="M64,125.67a3.24,3.24,0,0,1,2.7-.4,3.52,3.52,0,0,1-1.53,2.35,3.18,3.18,0,0,1-2.69.4A3.47,3.47,0,0,1,64,125.67Z"/><path class="cls-2" d="M122.5,155l.57,0c-.81-15,4.68-29,9.43-38.21a98.54,98.54,0,0,1,10.63-16.51l-.42-.43A100.76,100.76,0,0,0,132,116.41C127.22,125.66,121.68,139.86,122.5,155Z"/><path class="cls-2" d="M145.58,99.36a7.81,7.81,0,0,1-5,3.9,11,11,0,0,1,1.44-7,7.81,7.81,0,0,1,5-3.9A11,11,0,0,1,145.58,99.36Z"/><path class="cls-2" d="M138.68,102a10.78,10.78,0,0,1-2,6.8,9.52,9.52,0,0,1-2.47-6.35,10.71,10.71,0,0,1,2-6.8A9.6,9.6,0,0,1,138.68,102Z"/><path class="cls-2" d="M133.16,106.64a10.68,10.68,0,0,1,.71,7,7.36,7.36,0,0,1-4.61-4.16,10.74,10.74,0,0,1-.71-7A7.31,7.31,0,0,1,133.16,106.64Z"/><path class="cls-2" d="M129.38,118.13a4.52,4.52,0,0,1,.5,2.93,3,3,0,0,1-2-1.58,4.46,4.46,0,0,1-.5-2.93A3,3,0,0,1,129.38,118.13Z"/><path class="cls-2" d="M127.74,122.26a4.46,4.46,0,0,1,.5,2.93,3.06,3.06,0,0,1-2.05-1.59,4.5,4.5,0,0,1-.5-2.92A3,3,0,0,1,127.74,122.26Z"/><path class="cls-2" d="M140.17,108.88a5.89,5.89,0,0,1,4.72,2.52,6.31,6.31,0,0,1-4.93,2.37,5.92,5.92,0,0,1-4.72-2.52A6.31,6.31,0,0,1,140.17,108.88Z"/><path class="cls-2" d="M137,114.71a5.93,5.93,0,0,1,4.72,2.52,6.31,6.31,0,0,1-4.93,2.37,5.89,5.89,0,0,1-4.72-2.52A6.31,6.31,0,0,1,137,114.71Z"/><path class="cls-2" d="M131.85,122.65a3.89,3.89,0,0,1,3.08,1.64,4.11,4.11,0,0,1-3.21,1.55,3.83,3.83,0,0,1-3.07-1.64A4.14,4.14,0,0,1,131.85,122.65Z"/><path class="cls-2" d="M128,179.81c2.75-.18.65-.19-4-.14a4.15,4.15,0,0,0,.69.14Z"/><path class="cls-2" d="M82.28,144.49C80,146.83,63.45,140.79,64,144s22.2,5.63,18.79,7.82-15.86-3.27-18.57.95,20.44,5.52,20.44,7.25-4.41.87-4.41,2.5,12.56,3.59,8.34,3.59-11.43-3.22-11.43,1.37S91.27,172.3,90,175.7s-16.29.45-16.29,2.94c0,.67,4.75,1,11.47,1.17h27.92l10.85-.14c-2.73-.84,5.12-4,7.47-4,2.91,0,24.9-3,20.25-7.6s-20.79,2.58-22.26-1.64,25.43-19.64,19.88-25.19S126,156.39,123.76,151.62s20.68-21,12.5-22.3S122,145.77,120.72,140.79s6-21.33-1.51-18.73-9.21,24.8-10.07,17.75S94.63,98.46,89.87,102.23,95.6,127.69,91,129,72.65,93.91,65.5,102.35,89.11,132.46,84,134s-25.45-12.56-26.64-6.39S84.62,142.15,82.28,144.49Z"/><path class="cls-3" d="M116.6,179.47s18.11,1,23.38-2.35,1.11-5.9,1.11-5.9,16.75-.37,16.71-4.33-4.1-3.74-4.1-3.74,8.45-5.75,6.87-9.33c-2.42-5.5-16.19,4.08-16.19,4.08s4.52-5.36.87-6.61C135.24,147.85,116.6,179.47,116.6,179.47Z"/><path class="cls-3" d="M160.57,153.82c1.58,3.58-6.87,9.33-6.87,9.33s6.1-.08,5.11,3.77-16.33,5.15-16.33,5.15,5.36,1,.08,4.36-26,3-26,3Z"/><path class="cls-2" d="M46.28,165.74a31.54,31.54,0,0,0,.17-3.39c0-12.84-7.3-23.26-16.31-23.26s-16.32,10.42-16.32,23.26c0,1.15.06,2.28.17,3.39Z"/><path class="cls-3" d="M64.75,160c.11-1.57.17-3.16.17-4.79,0-18.11-7.3-32.79-16.32-32.79s-16.32,14.68-16.32,32.79c0,1.63.06,3.22.18,4.79Z"/><path class="cls-3" d="M58.78,179.81a31.52,31.52,0,0,1-.18-3.39c0-12.85,7.31-23.26,16.32-23.26s16.32,10.41,16.32,23.26c0,1.15-.06,2.28-.17,3.39Z"/><path class="cls-2" d="M32.66,179.81c-.15-1.56-.22-3.16-.22-4.78,0-18.12,9.26-32.8,20.69-32.8S73.81,156.91,73.81,175c0,1.62-.07,3.22-.21,4.78Z"/><path class="cls-3" d="M48.54,142.23c-5.71,0-10.81,4.66-14.18,12a14.79,14.79,0,0,0-5.42-1c-10.14,0-18.36,10.41-18.36,23.26a29.12,29.12,0,0,0,.2,3.39H66.71c.12-1.56.19-3.16.19-4.78C66.9,156.91,58.68,142.23,48.54,142.23Z"/><polygon class="cls-4" points="286.5 179.93 284.27 179.93 288.78 137.67 291.01 137.67 286.5 179.93"/><polygon class="cls-4" points="311.63 179.93 313.86 179.93 309.35 137.67 307.13 137.67 311.63 179.93"/><rect class="cls-5" x="177.81" y="125.28" width="5.6" height="11.33" transform="translate(361.21 261.89) rotate(180)"/><polygon class="cls-6" points="165.2 127.91 282.35 127.15 282.79 105.39 159.93 104.89 165.2 127.91"/><rect class="cls-6" x="177" y="134.65" width="135.38" height="6.05" transform="translate(489.37 275.35) rotate(180)"/><rect class="cls-4" x="162.48" y="134.65" width="24.47" height="6.05" transform="translate(349.44 275.35) rotate(180)"/><polygon class="cls-4" points="159.93 104.89 165.2 127.91 169.69 127.88 164.48 104.89 159.93 104.89"/><polygon class="cls-4" points="162.15 179.93 159.93 179.93 164.44 137.67 166.66 137.67 162.15 179.93"/><polygon class="cls-4" points="187.29 179.93 189.51 179.93 185 137.67 182.78 137.67 187.29 179.93"/><path class="cls-7" d="M303.17,167.31a44.67,44.67,0,0,1,.16,7.05,6,6,0,0,1-.24.85c-.33,1,.57,3.94.57,3.94l12.11,0c.66,0,.22-.42-.32-.8a23.27,23.27,0,0,0-4.38-2.35c-.18-.09-.85-.5-1.09-.64a8.17,8.17,0,0,1-1.75-1.51c-.88-1-1-5.64-1-5.64Z"/><path class="cls-8" d="M310,175.41a11,11,0,0,1-6.9-.19c-.33,1-.95,4.25-.58,4.25,3,0,5.61.58,14.31.44.32,0,.28-1.07.08-1.31C316.32,178,310.22,175.55,310,175.41Z"/><path class="cls-7" d="M316.88,158.5s2.65,4.63,3.07,6.34a5.73,5.73,0,0,1,.13.88c.11,1,2.16,3.34,2.16,3.34l11-5c.6-.28,0-.47-.62-.6a24.28,24.28,0,0,0-5-.32c-.2,0-1-.1-1.25-.13a8.29,8.29,0,0,1-2.22-.64c-1.2-.5-3.26-4.71-3.26-4.71Z"/><path class="cls-5" d="M275.44,70.77c-1.45-3-5.05-4.62-8.33-4.63-10.43,0-11.75,13.4-18.38,18.57-2,1.55-4.21,2.82-6.11,4.48a9.09,9.09,0,0,0,.5,3.22,14.05,14.05,0,0,0,1.61,3l2.81-1.62-1.22,3.54c2.5,2.61,5.84,4.53,9.09,6.32a32.83,32.83,0,0,0,14.28,3.69,119.3,119.3,0,0,0,4.53-11.62,47.41,47.41,0,0,0,3.31-14.24A21.7,21.7,0,0,0,275.44,70.77Z"/><path class="cls-8" d="M326.44,163a11,11,0,0,1-6.36,2.7c.11,1,.9,4.26,1.24,4.11,2.76-1.26,5.34-1.81,13.2-5.55.29-.13-.19-1.09-.48-1.22C333.26,162.71,326.71,163.06,326.44,163Z"/><path class="cls-7" d="M294.41,133.47c-.75-.12-2.58-1.43-3.23-1.55l-2.05-.33c-.56-2.11-3.43-13.62-3.76-17-.34-3.65-2.93-19.47-2.93-19.47l-6.69,1.22s2.78,12.17,3.54,18.07c.66,5.06,6.22,16.46,6.93,17.66v.09c.11,1.79,1,1.19,1,1.19l1.4.36s5,.47,5.28.59S295.16,133.59,294.41,133.47Z"/><path class="cls-9" d="M277.28,86.75c4.73,1.61,6.75,13.6,6.75,13.6s-7.43,2.07-9.33,1c0,0-2.16-9.57-2.93-9.24Z"/><path class="cls-9" d="M272.11,85.84h0a1.65,1.65,0,0,0,.48-.1,11.9,11.9,0,0,1,4.69,1c1.81.77,2.91,7.54,2.74,14.9-.06,1.12-.91,18.45-1,18.51-2.17,1.39-15.09,2.07-16,.88s-1.59-21.73-2-22.45L260.14,86C261.66,85.58,269.79,85.82,272.11,85.84Z"/><path class="cls-7" d="M266.81,81.21a33.47,33.47,0,0,1,.67,6.08c-.16,1.72.65,7.26,4.29,7.28s.69-7,.34-8.73a65,65,0,0,1-.42-6.9Z"/><path class="cls-10" d="M271.77,81.55c-.06-1.42-.08-2.61-.08-2.61l-4.88,2.27s.17.89.35,2A4.26,4.26,0,0,0,271.77,81.55Z"/><path class="cls-7" d="M265,69.18a6,6,0,0,0-2.57,3.31c-.69,2.26.09,8.09,5,9.5s7-3.21,6-6.82S270.2,67,265,69.18Z"/><path class="cls-7" d="M274,73.76c-.09,1-.63,1.72-1.2,1.66s-.94-.89-.85-1.86.63-1.71,1.2-1.65S274.08,72.79,274,73.76Z"/><path class="cls-5" d="M265.6,68.89s-.88,6.51-3,7.68-1.22,4.06-1.22,4.06-1.91-6.7-.25-8.86A9.28,9.28,0,0,1,265.6,68.89Z"/><path class="cls-7" d="M263.86,77.5c.57.85.57,1.85,0,2.24s-1.5,0-2.07-.84-.57-1.85,0-2.23S263.29,76.66,263.86,77.5Z"/><path class="cls-11" d="M270.94,77.87l-3.43.86a1.55,1.55,0,0,0,1.93,1C271.29,79.29,270.94,77.87,270.94,77.87Z"/><path class="cls-7" d="M240.28,133.79c.05-.16.19-.16.33-.17a36.66,36.66,0,0,0,4-.43,2.78,2.78,0,0,0,.64-.19,1.73,1.73,0,0,1,1.12-.08,2.24,2.24,0,0,0,.63.05c.68,0,2.6-.75,3.59-.95a.59.59,0,0,0,.45-.45c.86-3.92,2.69-12.69,2.88-15.57.23-3.67,2.24-20.26,2.24-20.26L263,97.41s-2.4,12.28-3,18.21c-.45,4.59-4.71,14.42-6.05,17.25a2.84,2.84,0,0,1-2.56,2.25.85.85,0,0,0-.53.31,4.06,4.06,0,0,1-.83.77,2,2,0,0,0-.56.6c-.28.42-.52.87-.76,1.32-.16.3-.33.39-.59.33a.53.53,0,0,1-.41-.58,2.76,2.76,0,0,1,.37-1.35.72.72,0,0,0-.09-1,3,3,0,0,0-.52-.55.87.87,0,0,0-.7-.23,12.43,12.43,0,0,1-1.47.32l-.41.09-.22.06s-.75.11-1,.12-.52,0-.79,0a4.39,4.39,0,0,1-.79-.09.94.94,0,0,1-.64-.24.23.23,0,0,1-.12-.25.28.28,0,0,1,.22-.17,7.71,7.71,0,0,0,1-.2l-1.28,0a1.2,1.2,0,0,1-.88-.35C240.33,134,240.22,134,240.28,133.79Z"/><path class="cls-9" d="M260.32,86c-3.34-.6-6.36,14.37-6.36,14.37s7.42,2.07,9.32,1c0,0,2.16-9.57,2.94-9.24Z"/><path class="cls-12" d="M279.2,118.92v2.74l25.68,5.4,6.37,19.14-3.55-2.42.82,29.48-5.4,0s-9.36-24.74-6.29-37.18l-28.42.44s-12.88-5-6.24-20Z"/><path class="cls-13" d="M279.2,121.66s26.64.17,28.53,1.63S323.82,161,323.82,161l-6.19,2.31s-12.32-20.54-13-22-5.43-12.18-7.25-13.27S279.2,121.66,279.2,121.66Z"/><path class="cls-14" d="M229.51,111c-2.34-.89-22-8.37-22.79-8.94S195.6,89,195.6,89l7.18-2.83L212,98c.68.39,13.5,7.22,13.5,7.22s2.31,1.32,3.73,2l1.07-.12a8.54,8.54,0,0,0,1.74-.53,10.71,10.71,0,0,1,2.24-.59l1.62.06c.46,0,1,0,1.26.08a2.32,2.32,0,0,0,.71-.11.4.4,0,0,1,.43.61,1.71,1.71,0,0,1-1,.51c-.82.23-2.19.11-2.15.24s2.15,1.09,2.39,1.22a29,29,0,0,1,3.08,1.65c.4.38.23.7-.08.71s-3.77-1.32-3.77-1.32-.45-.17-.36.07,3.26,1.45,3.7,1.72.61.66.15.83-3.85-1.3-3.85-1.3-.42-.18-.43,0,2.7,1.18,2.91,1.39a.38.38,0,0,1-.26.67,17.48,17.48,0,0,1-3.47-1.29s-.25,0-.2.1,2.31,1.15,2.46,1.45a.26.26,0,0,1-.09.37c-.42.37-2.48-.92-3.59-1.21S229.58,111,229.51,111Z"/><path class="cls-4" d="M202.69,80.69s1.77.33,4.77,5.5c2.8,4.83,5.29,10.24,5.29,10.24l-5,5.3s-3.7-11.36-4-11.73S202.69,80.69,202.69,80.69Z"/><path class="cls-7" d="M219.58,171.47l-.27,4.53a24.8,24.8,0,0,0-.49,2.52c0,2,9.21-1.67,7.15-2.54-.19-.07-1.17-.67-1.23-1.34-.1-1-.34-3.1-.34-3.1Z"/><path class="cls-7" d="M235.22,171.47,235,176a24.8,24.8,0,0,0-.49,2.52c0,2,9.21-1.67,7.15-2.54-.19-.07-1.58-.32-1.64-1-.1-1-.28-4.21-.28-4.21Z"/><path class="cls-12" d="M205.3,124.07l22,.09s10-.26,11.52,3.21S240.52,172,240.52,172s-5.2.3-5.48,0l-6.56-23a18.69,18.69,0,0,1-.64-6.9l.57-6.15-9.09.47s-10.3-.16-13.7-3.61S205.3,124.07,205.3,124.07Z"/><path class="cls-13" d="M190.37,121.61l23.68,1.47s10.19.84,11.76,4.31-.52,44.65-.52,44.65-6,.27-6,0-2.83-16.95-4.18-23.3a22.68,22.68,0,0,1-.45-6.15l.62-6.69s-25.13-.24-26.23-1.35C185.68,131.1,190.37,121.61,190.37,121.61Z"/><path class="cls-15" d="M202.69,80.69a60.55,60.55,0,0,0-9.58.48,23.84,23.84,0,0,0-5.1.72c-1.72.78-5.09,1.69-3.74,9.7,1,5.73,3.13,24.53,4.48,34.16l24-2.67C207.77,104,205.94,81,202.69,80.69Z"/><path class="cls-7" d="M194.84,73.71l-2.22,7.5s3.76,4.33,6.37,3.91c2.19-.36,1.17-3.52,1.17-3.52s-.53-4.25.11-6.35S194.84,73.71,194.84,73.71Z"/><path class="cls-16" d="M195.73,76.33a14,14,0,0,0,4.22,2,11.45,11.45,0,0,1,.32-3.07c.3-1-.84-1.37-2.14-1.52-1.73-.09-3.29,0-3.29,0l-.43,1.44A5.78,5.78,0,0,0,195.73,76.33Z"/><path class="cls-7" d="M194.32,62c-.17-.08-2,9.1.2,11.79s6.7,3.82,8.46,1.91c2-2.1,2.48-12.05-1-14.9S194.32,62,194.32,62Z"/><path class="cls-5" d="M200.9,55.75a10.11,10.11,0,0,0-5.5,2.72c-1.29.07-3.07.67-5.05,3.56a7.57,7.57,0,0,0,1.38,9.9A5.89,5.89,0,0,1,194,76.42l.48-1.18a6.71,6.71,0,0,0,.49-2.8,5.24,5.24,0,0,0-.31-1.72c-.53-1.38,1.47-2.15,2.08-3.22.48-.84.62-2.8,1.37-4.17l.86-1a5,5,0,0,1,3.66-.8C204.39,62,204.55,55.23,200.9,55.75Z"/><path class="cls-7" d="M196.52,69.13c-.05,1.13-.61,2-1.26,2s-1.13-1-1.08-2.1.62-2,1.27-2S196.57,68,196.52,69.13Z"/><path class="cls-7" d="M181.46,96.43l6.45,2s-1.22,5.61-1.23,6.28c0,0,11,5.87,15.56,7.71l-.12,4c-.9-.33-1.62-.68-2.07-.82L185.14,111s-5.53-2-5.72-3S181.46,96.43,181.46,96.43Z"/><path class="cls-4" d="M179.6,100.18s3.09-12.59,4.77-15.82A4.72,4.72,0,0,1,192,82.91c2.35,2.2-4.39,19-4.39,19Z"/><path class="cls-13" d="M226,175.57s-2.16.6-3.27.75-2.57-1.12-3.35-.78-.83,3.76-.83,3.76,11.6,1,14.86,0C234.65,178.87,230.37,177,226,175.57Z"/><path class="cls-13" d="M241.59,175.57s-2.16.6-3.27.75-2.57-1.12-3.35-.78-.83,3.76-.83,3.76,11.6,1,14.86,0C250.29,178.87,246,177,241.59,175.57Z"/><path class="cls-11" d="M199.5,72.25l3.19,0a1.42,1.42,0,0,1-1.48,1.28C199.5,73.59,199.5,72.25,199.5,72.25Z"/><path class="cls-13" d="M297.39,99.63v.12c0,.26.05.51.08.76l0,.21-6.95,2-5-.52-.22-1.21.39-.09.37.24.39-.21.38.24.38-.23.39.23L288,101l.39.22.37-.24.4.21.37-.25.39.2.37-.25.4.19.36-.27.41.18.35-.27.41.17.34-.29.42.16.33-.3.42.14.33-.3.42.12.31-.32.44.1.29-.33.44.08.27-.35.44.06.26-.37.39-.07Z"/><path class="cls-5" d="M297.47,100.62c.09,0,.23,4.85.57,6.11s1.17,5.75,1.17,5.75l-12,1.9s-.31-6.47-.68-8.45-1-3.64-.91-3.68S294.66,101.88,297.47,100.62Z"/><path class="cls-17" d="M287.49,108.32c.28,1.46,2.65,2.24,5.29,1.74s4.57-2.09,4.29-3.55-2.64-2.25-5.29-1.75S287.21,106.86,287.49,108.32Z"/><path class="cls-18" d="M272.44,109.13a3.48,3.48,0,0,0,2.23-.93,3.31,3.31,0,0,1,2.62-.94c1.86.44,2.28,2.5,1,4.18-1.15,1.46-5.62,3.55-7.41.48C269.6,109.76,271,109.19,272.44,109.13Z"/><path class="cls-16" d="M278.09,110a2.92,2.92,0,0,1-1.1-.55,4.72,4.72,0,0,1-1-.85c-.08-.09.05-.2.14-.14a12.75,12.75,0,0,1,1.1.7,4.65,4.65,0,0,1,1,.67.1.1,0,0,1-.09.17Z"/><path class="cls-16" d="M277.25,110.9c-.64.09-1.8-1-2.25-1.46-.1-.12.08-.31.2-.2a8.65,8.65,0,0,0,1.07.82c.32.21.82.37,1,.69a.1.1,0,0,1-.06.15Z"/><path class="cls-16" d="M275.57,111.54A2.3,2.3,0,0,1,275,111c-.18-.23-.4-.44-.58-.66a.23.23,0,0,1,.31-.34,2.68,2.68,0,0,1,1,1.44.14.14,0,0,1-.22.13Z"/><path class="cls-16" d="M274.3,111.89a1.69,1.69,0,0,1-.49-1c0-.26.57,0,.69,1a.11.11,0,0,1-.2.08Z"/><path class="cls-16" d="M273.37,111.12c.27.78-.2.8-.26.61a1,1,0,0,1,0-.61.13.13,0,0,1,.24,0Z"/><path class="cls-18" d="M273.33,112.33s-.56,2.62-4.29,3.09c-3.44.44-4.42-3.09-2.8-3.84s3.5-1.08,4.37-1.77C272.2,108.54,273.93,111,273.33,112.33Z"/><path class="cls-13" d="M267.69,109.54a2.44,2.44,0,0,1,.51,1,2.77,2.77,0,0,1-.56,2.44c-1.39,1.73-5.74,2.19-5.7-.17s2.51-1.26,3.41-2.19c.41-.42.55-1,1.06-1.3A1.16,1.16,0,0,1,267.69,109.54Z"/><path class="cls-16" d="M266.73,110.4a2.21,2.21,0,0,1,.59.59c.15.21.34.44.29.7a.15.15,0,0,1-.17.1c-.23-.1-.31-.32-.43-.51s-.31-.46-.45-.71c-.05-.1.07-.24.17-.17Z"/><path class="cls-16" d="M266.23,111a3.86,3.86,0,0,1,.8,1.44c0,.13-.16.18-.25.1a2.67,2.67,0,0,1-.37-.66c-.12-.24-.26-.48-.37-.73s.09-.26.19-.15Z"/><path class="cls-16" d="M265.4,111.4a6.34,6.34,0,0,1,.56,1.51.14.14,0,0,1-.24.09,4.38,4.38,0,0,1-.54-1.52c0-.12.16-.21.22-.08Z"/><path class="cls-16" d="M264.65,111.8a1.76,1.76,0,0,1,.2.54c.12.44.2.67,0,.75a.2.2,0,0,1-.3-.12,4.73,4.73,0,0,1-.19-1.1.14.14,0,0,1,.26-.07Z"/><path class="cls-16" d="M263.77,112.17c.25.24.38.68.17.79a.19.19,0,0,1-.23,0c-.16-.14,0-.37-.13-.63a.12.12,0,0,1,.19-.14Z"/><path class="cls-13" d="M269.71,109.38c.58-.82,1.69-.72,3-.34a38.65,38.65,0,0,0,4,.81,40.61,40.61,0,0,0,4.06.1c1.34-.09,2.45.07,2.83,1s.62,3.17-6.67,2.59l-1.26-.14C268.4,112.33,269.13,110.19,269.71,109.38Z"/><path class="cls-16" d="M268,108.88c.56-.39,1.05-.37,3,.58a12.36,12.36,0,0,0,1.77.68,20.29,20.29,0,0,0,7.43.84,12.54,12.54,0,0,0,1.88-.26c2.09-.5,2.57-.41,3,.09s.42,2.15-2,2.42-6.89.71-6.94.62a2.49,2.49,0,0,1,0-.55,3.67,3.67,0,0,1-.12.53c-.07.09-4.32-1.34-6.62-2.14S267.47,109.27,268,108.88Z"/><path class="cls-13" d="M269.45,111.69c.58-.82,1.69-.72,3-.33,1.12.33,3.39.71,4,.8s2.9.18,4.07.1c1.34-.09,2.45.07,2.83,1s.62,3.17-6.67,2.59l-1.26-.14C268.14,114.64,268.87,112.5,269.45,111.69Z"/><path class="cls-19" d="M273.8,112.57a2,2,0,0,0,1.68-.62l.22-.26.09-.12a1.62,1.62,0,0,1,.93-.6,1,1,0,0,1,.89.27,1.8,1.8,0,0,1,.15.31,2.05,2.05,0,0,0,1.83,1.44c1.15.1,1.65-1.18,1.81-1.61l0-.09a.6.6,0,0,1,.73-.17,2.71,2.71,0,0,1,1,.86.47.47,0,0,0,.66.07.46.46,0,0,0,.06-.66,3.42,3.42,0,0,0-1.33-1.14,1.49,1.49,0,0,0-1.93.66.81.81,0,0,0-.06.13c-.19.5-.46,1.06-.87,1-.68,0-.84-.44-1-.88a2.16,2.16,0,0,0-.3-.54,1.9,1.9,0,0,0-1.77-.59,2.51,2.51,0,0,0-1.48.93,1.71,1.71,0,0,0-.11.14l-.16.2a1.09,1.09,0,0,1-.94.31,1.06,1.06,0,0,1-.79-.6,4.11,4.11,0,0,1-.15-.49,2.28,2.28,0,0,0-.41-1,1.89,1.89,0,0,0-2.28-.37.47.47,0,1,0,.42.83,1,1,0,0,1,1.13.12,1.76,1.76,0,0,1,.24.63,3.32,3.32,0,0,0,.2.66,2,2,0,0,0,1.49,1.14Z"/><polygon class="cls-4" points="227.37 179.28 223.28 179.28 231.56 121.35 235.65 121.35 227.37 179.28"/><polygon class="cls-4" points="273.51 179.28 277.6 179.28 269.32 121.35 265.23 121.35 273.51 179.28"/><polygon class="cls-4" points="350.36 179.28 346.27 179.28 354.55 121.35 358.63 121.35 350.36 179.28"/><polygon class="cls-4" points="396.5 179.28 400.58 179.28 392.31 121.35 388.22 121.35 396.5 179.28"/><path class="cls-18" d="M379,105.77s-.15,3.59-5,5.07c-4.47,1.36-6.57-3.1-4.59-4.47s4.41-2.22,5.4-3.34C376.58,101,379.43,103.84,379,105.77Z"/><path class="cls-13" d="M370.82,103.34a3.42,3.42,0,0,1,.9,1.21,3.72,3.72,0,0,1-.19,3.37c-1.46,2.61-7.12,4.21-7.6,1.06s3.05-2.24,4-3.68c.45-.65.5-1.46,1.12-2A1.52,1.52,0,0,1,370.82,103.34Z"/><path class="cls-13" d="M377.82,103.19a4.69,4.69,0,0,0,3-1.25c.6-.57,2.15-1.6,3.52-1.27,2.5.6,3.08,3.37,1.32,5.63-1.55,2-7.57,4.79-10,.64C374,104,375.91,103.27,377.82,103.19Z"/><path class="cls-16" d="M385.44,104.35a3.94,3.94,0,0,1-1.49-.74,6.4,6.4,0,0,1-1.39-1.15c-.11-.12.06-.26.18-.19.52.28,1,.63,1.49,1a6.48,6.48,0,0,1,1.33.9.14.14,0,0,1-.12.23Z"/><path class="cls-16" d="M384.3,105.57c-.85.12-2.42-1.32-3-2-.14-.16.1-.42.26-.28a10.32,10.32,0,0,0,1.45,1.11c.43.28,1.11.5,1.39.93a.12.12,0,0,1-.08.2Z"/><path class="cls-16" d="M382.05,106.44a2.9,2.9,0,0,1-.74-.78c-.25-.3-.54-.58-.79-.89a.31.31,0,0,1,.42-.45,3.53,3.53,0,0,1,1.4,1.94.19.19,0,0,1-.29.18Z"/><path class="cls-16" d="M380.33,106.92a2.44,2.44,0,0,1-.66-1.4c0-.35.77,0,.93,1.28a.16.16,0,0,1-.27.12Z"/><path class="cls-16" d="M379.09,105.87c.35,1-.27,1.07-.37.82a1.4,1.4,0,0,1,0-.81.18.18,0,0,1,.34,0Z"/><path class="cls-16" d="M369.74,104.7a3.08,3.08,0,0,1,.92.65c.24.24.55.5.54.87a.19.19,0,0,1-.2.16c-.32-.08-.48-.35-.69-.58s-.52-.54-.75-.84c-.1-.13,0-.33.18-.26Z"/><path class="cls-16" d="M369.21,105.58a5.19,5.19,0,0,1,1.39,1.73c0,.17-.18.27-.31.18a3,3,0,0,1-.64-.78c-.22-.3-.46-.58-.67-.89-.1-.15.07-.37.23-.24Z"/><path class="cls-16" d="M368.2,106.32a8.51,8.51,0,0,1,1.08,1.88c0,.15-.17.29-.29.18a5.76,5.76,0,0,1-1.06-1.89c-.07-.16.16-.32.27-.17Z"/><path class="cls-16" d="M367.29,107a2.26,2.26,0,0,1,.39.67c.26.56.43.85.21,1a.27.27,0,0,1-.42-.1,5.79,5.79,0,0,1-.5-1.41.18.18,0,0,1,.32-.15Z"/><path class="cls-20" d="M372.77,116.22h8.52a8.89,8.89,0,0,0,8.89-8.89h-26.3A8.89,8.89,0,0,0,372.77,116.22Z"/><path class="cls-16" d="M372.77,116.22h8.52a8.89,8.89,0,0,0,8.89-8.89h-26.3A8.89,8.89,0,0,0,372.77,116.22Z"/><path class="cls-8" d="M386.78,107.33h3.4a8.89,8.89,0,0,1-8.89,8.89h-3.4A8.89,8.89,0,0,0,386.78,107.33Z"/><path class="cls-16" d="M247.16,108.64h4.54a4.74,4.74,0,0,1,4.74,4.74v0a0,0,0,0,1,0,0h-14a0,0,0,0,1,0,0v0A4.74,4.74,0,0,1,247.16,108.64Z" transform="translate(498.85 222.02) rotate(180)"/><path class="cls-8" d="M254.62,108.64h1.81a4.74,4.74,0,0,1-4.74,4.74h-1.81A4.74,4.74,0,0,0,254.62,108.64Z"/><path class="cls-20" d="M247.16,116.32h4.53a4.74,4.74,0,0,0,4.74-4.73h-14A4.74,4.74,0,0,0,247.16,116.32Z"/><path class="cls-21" d="M247.16,116.32h4.53a4.74,4.74,0,0,0,4.74-4.73h-14A4.74,4.74,0,0,0,247.16,116.32Z"/><path class="cls-15" d="M254.62,111.59h1.81a4.74,4.74,0,0,1-4.74,4.73h-1.81A4.74,4.74,0,0,0,254.62,111.59Z"/><path class="cls-22" d="M300.2,111.17c-.11,1.93-2.66,3.76-5.22,3.76s-5-1.92-5-3.86c0-2.78,1.44-2.77,3.27-2.62l1.08.08q.33,0,.66,0c.23,0,.46,0,.69,0l.83-.08C298.56,108.23,300.39,108,300.2,111.17Z"/><path class="cls-3" d="M293.66,105.77h0Z"/><path class="cls-3" d="M297.49,107.25a.35.35,0,0,0-.5,0c.35,0,.19.42-.1.72a4.53,4.53,0,0,1-2,0h-.08c.33-1-.09-3.23-1.39-2.84l.22.61a.34.34,0,0,1,.14,0c.54-.06,1,1.49.87,2.25-.79,0-2.18.42-2.33.17s.28-.39.28-.39l.42.11s-.4-.59-.81-.45a.64.64,0,0,0-.36,1,8.34,8.34,0,0,0,2,.13,2.73,2.73,0,0,0-1.22.94c-.39.62.42,1.48.42,1.48s-.44-.86,0-1.32a9.19,9.19,0,0,1,1.43-1l.05,2.13a1.68,1.68,0,0,0,.47-1.23,2.58,2.58,0,0,0-.14-1l.43,0a4.79,4.79,0,0,1,1,.41c.49.3-.25,1.1-.25,1.1a1.19,1.19,0,0,0,.58-.5c.39-.72-.05-.91-.4-1.06.27,0,.53,0,.92-.09C297.82,108.33,297.74,107.51,297.49,107.25Z"/><rect class="cls-15" x="227.02" y="115.99" width="45.45" height="5.35"/><rect class="cls-4" x="271.41" y="115.99" width="124.24" height="5.35"/><path class="cls-2" d="M319.88,113.4s3-7.53,2.85-8.81-1.29-1.92-2-.46-.91,3.08-1.42,2.5,1.29-6.64-.75-7-.73,7.77-1.54,7.59-1.23-8.9-3.41-8.2,1.42,8.84.59,8.84-2.18-7.71-4.6-6.52,3.05,7.11,2.18,8.1-4.36-6.27-6.59-4.2,5.5,6.27,5.22,6.6-6.62-4.89-8-2.91,4.91,3,4.52,3.65-3.61-.43-3.42.86,7.05,1.25,7.05,1.25Z"/><path class="cls-2" d="M332.63,110.15c-.66-.28-.95-.77-.43-1.27a1.85,1.85,0,0,1,2.63.29,1.94,1.94,0,0,1-.05,2.12,2.25,2.25,0,0,1-.81.78,2.51,2.51,0,0,1-1.06.32l.08.36a3,3,0,0,0,.6-.18,2.89,2.89,0,0,0,1.43-1.16,2.36,2.36,0,0,0,.09-2.42,2.23,2.23,0,0,0-3.53-.12c-.45.7,0,1.44.81,1.79Z"/><path class="cls-15" d="M331.27,112.53s-4.78-.37-5.24-.52-.35-1.13-2.13-1.47-2.88.22-3.1,1.09,1.06,1.59,1.52,1,.59-1.26,1.63-1.14a3.41,3.41,0,0,1,1.83,1Z"/><path class="cls-13" d="M314.71,111.33s.57,3.37,5.16,2.87,6.2,1,10.18.84c3.21-.15,7.37-4.37,5.77-9.59S315.48,98.45,314.71,111.33Z"/><path class="cls-16" d="M314.72,111.1a1.63,1.63,0,0,0,.09.76c.34.92,1.51,2.93,5.08,2.54,4.69-.52,6.18.86,10.16.65,3.2-.17,7.41-4,5.87-8.71S316,99.85,314.72,111.1Z"/><path class="cls-23" d="M335.92,106.34c-1.62-4.28-18-6-20.84,3.19a10.51,10.51,0,0,0-.36,1.57c.25-3.32,2.13-6,5.75-7.47,5.33-2.16,12.11-.87,14.54,1.37A3,3,0,0,1,335.92,106.34Z"/><path class="cls-22" d="M332.09,113.26s3-1.41,3.07-3.86-2.12-4.55-4-5,.37.53,1.17,3.63S330.53,113.31,332.09,113.26Z"/><path class="cls-22" d="M316.9,111.22a1.43,1.43,0,0,1-1.4-1.61,4.34,4.34,0,0,1,1.68-2.51c2.76-2.35,11-4.31,11.72-2.58s-3.68,2.19-4.29,4.71C324.14,111.18,319.14,111.28,316.9,111.22Z"/><path class="cls-22" d="M317.14,112.22a.68.68,0,0,0-.43,1.08,2.44,2.44,0,0,0,2.37.81,35.23,35.23,0,0,1,7.58.2c2.27.26,4.07.29,4-.44s-4.36-1.85-5.26-2.47S319.24,111.81,317.14,112.22Z"/><path class="cls-6" d="M302,111.51a3.71,3.71,0,0,0,3.18,3.45c3.18.69,8.4-.84,8.92-1.41a1.75,1.75,0,0,0,.36-1.53c-.06-.47-.21-.19-2.21-.78s-2.26-.09-4.2-1S302.08,109.65,302,111.51Z"/><path class="cls-3" d="M313.36,113a1.67,1.67,0,0,0,1-.7h0c.27-.43.21-1-1.8-1.58s-2.41-.37-4.35-1.27-6.14.2-6.22,2.06a1.15,1.15,0,0,0,0,.28,4.62,4.62,0,0,0,3.19,2C307.55,114.18,310.91,113.63,313.36,113Z"/><path class="cls-23" d="M302.67,112.12a1,1,0,0,1-.08-1.29c.92-1.22,4-1.88,5.44-1.19a10.51,10.51,0,0,0,2.69.88c.8.16,4.06.7,3.33,1.79-.4.59-1.75.66-2.47.81s-1.41.27-2.12.36a10.57,10.57,0,0,1-2.31.16C306.63,113.57,304.15,113.77,302.67,112.12Z"/><path class="cls-16" d="M308.33,110.05c1.44.2,2.48,1,2.31,1.8s-1.47,1.28-2.91,1.09-2.47-1-2.3-1.8S306.9,109.86,308.33,110.05Z"/><path class="cls-2" d="M329.33,109c-.65-.28-.94-.77-.43-1.27a1.85,1.85,0,0,1,2.63.29,2,2,0,0,1,0,2.12,2.27,2.27,0,0,1-.82.78,2.44,2.44,0,0,1-1.06.32l.09.36a3.2,3.2,0,0,0,2-1.34,2.41,2.41,0,0,0,.09-2.42,2.24,2.24,0,0,0-3.54-.12c-.45.7,0,1.44.81,1.79Z"/><path class="cls-5" d="M315.63,111.24c0-1.67,1.89-3,4.22-3a4.55,4.55,0,0,1,3.82,1.75c3.48.14,6.16,1,6.16,2.14,0,.51-.55.87-1,1.09a9.14,9.14,0,0,1-2.59.78,31.32,31.32,0,0,1-3.34.38,23.52,23.52,0,0,1-3.25,0,6.39,6.39,0,0,1-2.47-.66,2.86,2.86,0,0,1-1.38-1.45A2.91,2.91,0,0,1,315.63,111.24Z"/><path class="cls-15" d="M328,111.42s-4.79-.37-5.25-.52-.34-1.13-2.13-1.47-2.87.22-3.09,1.09,1.05,1.59,1.51,1,.6-1.26,1.64-1.14a3.36,3.36,0,0,1,1.82,1Z"/><path class="cls-2" d="M327.58,111.23l.5.24-.4.33.56.17-.54.34h0l.6.32-.48.38.6.25-.08.36a2.16,2.16,0,0,0,2-1.39,1.49,1.49,0,0,0,0-.42c-.15-1.49-2.75-1.44-2.75-1.44l.4.24-.26.07.32.24Z"/><path class="cls-8" d="M305.4,111.69c-.09,1.53-2.11,3-4.14,3s-4-1.53-4-3.06c0-2.2,1.14-2.2,2.59-2.08l.86.07h.52l.55,0,.66-.06C304.1,109.35,305.55,109.16,305.4,111.69Z"/><path class="cls-2" d="M300.21,107.4h0Z"/><path class="cls-2" d="M303.25,108.58a.28.28,0,0,0-.4,0c.28,0,.16.33-.08.57a3.61,3.61,0,0,1-1.55,0h-.07c.27-.78-.06-2.56-1.1-2.25l.18.49.11,0c.43,0,.81,1.19.69,1.79-.63,0-1.73.33-1.85.13s.22-.31.22-.31l.34.09s-.32-.47-.65-.35a.51.51,0,0,0-.28.8,6.38,6.38,0,0,0,1.56.1,2.21,2.21,0,0,0-1,.75c-.3.48.34,1.17.34,1.17s-.35-.68,0-1a7.16,7.16,0,0,1,1.14-.81l0,1.69a1.32,1.32,0,0,0,.37-1,2.28,2.28,0,0,0-.1-.77l.34,0a3.7,3.7,0,0,1,.77.33c.39.23-.19.87-.19.87a.89.89,0,0,0,.45-.4c.31-.57,0-.72-.31-.84.21,0,.42,0,.73-.07C303.51,109.44,303.45,108.78,303.25,108.58Z"/><path class="cls-3" d="M359.29,92.26V79.76h-3.11v12.5h0a2.29,2.29,0,0,0-2.29,2.3v21.52h7.7V94.56a2.3,2.3,0,0,0-2.3-2.3Z"/><path class="cls-24" d="M359.29,92.26V79.76h-1.6v12.5a2.3,2.3,0,0,1,2.3,2.3v21.52h1.6V94.56A2.3,2.3,0,0,0,359.29,92.26Z"/><rect class="cls-8" x="356.18" y="79.76" width="3.12" height="6.06"/><rect class="cls-8" x="353.89" y="102.04" width="7.7" height="10.95"/><path class="cls-3" d="M336.26,116.08H289.6a2.87,2.87,0,0,1-2.86-2.87h52.38A2.87,2.87,0,0,1,336.26,116.08Z"/><path class="cls-21" d="M284.11,116H263.83c-.69,0-1.25-.84-1.25-1.88h22.77C285.35,115.15,284.79,116,284.11,116Z"/><path class="cls-13" d="M349.32,103.28c0,.68.41,1.22.89,1.21s.85-.56.84-1.24-.41-1.23-.88-1.22S349.31,102.6,349.32,103.28Zm1.32-.62c0,.15-.2.28-.46.29s-.47-.12-.47-.28.21-.29.46-.29S350.64,102.5,350.64,102.66Zm-1.1.94c0-.24.28-.44.64-.45s.66.19.67.43-.29.45-.65.45S349.54,103.85,349.54,103.6Z"/><path class="cls-25" d="M352.17,104.72a3.18,3.18,0,0,1,.29,1.25l.15,9a1,1,0,0,1-1,1l-5.16.08a1,1,0,0,1-1-1l-.15-9a2.86,2.86,0,0,1,.26-1.25Z"/><path class="cls-25" d="M352.17,104.72a3.18,3.18,0,0,1,.29,1.25l.15,9a1,1,0,0,1-1,1l-5.16.08a1,1,0,0,1-1-1l-.15-9a2.86,2.86,0,0,1,.26-1.25Z"/><path class="cls-16" d="M345.31,106.08l.15,9a1,1,0,0,0,1,1l5.16-.08a1,1,0,0,0,1-1l-.15-9a3.18,3.18,0,0,0-.29-1.25l-6.6.11A2.86,2.86,0,0,0,345.31,106.08Z"/><path class="cls-22" d="M351.24,115l-.15-9a2.86,2.86,0,0,0-.29-1.25l1.37,0a3.18,3.18,0,0,1,.29,1.25l.15,9a1,1,0,0,1-1,1l-1.37,0A1,1,0,0,0,351.24,115Z"/><path class="cls-8" d="M345.31,106.08l.15,9a1,1,0,0,0,1,1l2.11,0a1,1,0,0,1-1-1l-.15-9a2.83,2.83,0,0,1,.26-1.25l-2.1,0A2.86,2.86,0,0,0,345.31,106.08Z"/><path class="cls-6" d="M345.57,104.83l6.6-.11h0a.53.53,0,0,0-.54-.51l-5.55.09a.51.51,0,0,0-.51.53Z"/><rect class="cls-6" x="345.44" y="113.27" width="7.15" height="1.12" transform="translate(-1.82 5.75) rotate(-0.94)"/><path class="cls-13" d="M210.35,105.58c-.08.68.23,1.28.7,1.34s.93-.44,1-1.11-.23-1.28-.7-1.34S210.44,104.91,210.35,105.58Zm1.4-.42c0,.16-.25.26-.5.22s-.44-.18-.42-.34.24-.25.49-.22S211.77,105,211.75,105.16Zm-1.23.78c0-.24.35-.4.7-.35s.63.28.6.52-.35.4-.71.35S210.49,106.18,210.52,105.94Z"/><path class="cls-25" d="M213,107.43a3,3,0,0,1,.11,1.27l-1.16,9a1,1,0,0,1-1.12.85l-5.11-.67a1,1,0,0,1-.87-1.1l1.17-9a2.84,2.84,0,0,1,.43-1.2Z"/><path class="cls-25" d="M213,107.43a3,3,0,0,1,.11,1.27l-1.16,9a1,1,0,0,1-1.12.85l-5.11-.67a1,1,0,0,1-.87-1.1l1.17-9a2.84,2.84,0,0,1,.43-1.2Z"/><path class="cls-3" d="M206,107.78l-1.17,9a1,1,0,0,0,.87,1.1l5.11.67a1,1,0,0,0,1.12-.85l1.16-9a3,3,0,0,0-.11-1.27l-6.55-.85A2.84,2.84,0,0,0,206,107.78Z"/><path class="cls-9" d="M210.55,117.47l1.16-8.94a2.92,2.92,0,0,0-.11-1.28l1.36.18a3,3,0,0,1,.11,1.27l-1.16,9a1,1,0,0,1-1.12.85l-1.35-.18A1,1,0,0,0,210.55,117.47Z"/><path class="cls-2" d="M206,107.78l-1.17,9a1,1,0,0,0,.87,1.1l2.09.28a1,1,0,0,1-.87-1.11l1.16-9a2.84,2.84,0,0,1,.43-1.2l-2.08-.27A2.84,2.84,0,0,0,206,107.78Z"/><path class="cls-13" d="M206.41,106.58l6.55.85h0a.53.53,0,0,0-.46-.59l-5.5-.71a.52.52,0,0,0-.59.45Z"/><rect class="cls-13" x="207.96" y="112.4" width="1.12" height="7.15" transform="translate(66.63 307.81) rotate(-82.6)"/><path class="cls-14" d="M202.24,112.42a17.25,17.25,0,0,1,2.5-2.06,3.73,3.73,0,0,1,1.53-.44s1.18-.06,1.28.22a.63.63,0,0,1-.32.7c-.21.09-.68.06-.89.16a1.82,1.82,0,0,0-.5,1.06c0,.27,3.48,0,3.48,0s1-.14,1.33-.21,1.1-.31,1.1-.31,1.19-.29,1.25.1c0,.22-.94.78-2,1.16a20.43,20.43,0,0,0-2.27.74c0,.29,1.93.17,1.93.17a5.73,5.73,0,0,1,1.3-.25c.53-.26,1.47-.42,1.52,0a7.88,7.88,0,0,1-1.22.69s-.85.23-1.25.36a21.69,21.69,0,0,1-2.29.38c-.41.1-.25.2-.27.25a11.87,11.87,0,0,0,1.3-.07A8.17,8.17,0,0,0,211,115a8.47,8.47,0,0,1,1.34-.17c1-.06.84.59-.07.8l-1.12.25c-1.5.32-2.92.29-2.94.46s2.57.12,2.57.12,1.41.36.06.66a10.91,10.91,0,0,1-2.88.29,10.71,10.71,0,0,1-3-.13c-.95-.27-2.29-.68-2.93-.88Z"/><path class="cls-2" d="M205.76,109.48l-.35,2.64a8.81,8.81,0,0,0,2.11,0l.17-1.31-.12-1.08-.47-.61Z"/></svg>