<svg xmlns="http://www.w3.org/2000/svg" viewBox="0 0 128 128" fill="#0e7490"><path d="M117.2 41.2l-4-20.8A17.2 17.2 0 0 0 96.4 6.3h-64a17.2 17.2 0 0 0-16.9 14.1l-4 20.8a373.6 373.6 0 0 0-6 67.8v.4a2.5 2.5 0 0 0 .3 1.1l5 9.8a2.5 2.5 0 0 0 2.2 1.4h103a2.5 2.5 0 0 0 2.2-1.4l5-9.8a2.5 2.5 0 0 0 .3-1.1v-.4a373.6 373.6 0 0 0-6.2-67.9zM12 75h42.6v17.2a9.8 9.8 0 1 0 19.6 0V75H117l1.6 32h-108A368 368 0 0 1 12 75.1zm52.4-9.8a9.8 9.8 0 0 0 4.9-1.3v28.3a4.9 4.9 0 1 1-9.8 0V64a9.8 9.8 0 0 0 4.9 1.3zm-5-9.8a4.9 4.9 0 1 1 4.9 4.9 4.9 4.9 0 0 1-4.9-4.9zM16.6 42l4-20.8a12.3 12.3 0 0 1 12.1-10h64a12.3 12.3 0 0 1 12.1 10l4 20.8q2.6 14 4 28h-42V55.4a9.8 9.8 0 1 0-19.6 0V70h-42q1.5-14 4-28zm98 74.7h-100l-2.5-5h105zm-77.2-76h54a4.9 4.9 0 0 0 4.9-4.9V21a4.9 4.9 0 0 0-4.9-4.9h-54a4.9 4.9 0 0 0-4.9 4.9v14.7a4.9 4.9 0 0 0 4.9 4.9zm0-19.6h54v14.7h-54z"/><circle cx="55.4" cy="28.4" r="2.5"/><circle cx="64.4" cy="28.4" r="2.5"/><circle cx="74.3" cy="28.4" r="2.5"/><path d="M110.6 98.7v-.1l.1-.1.1-.1v-.1l.1-.1V98h0 0 0v-.1-.1-.1a2.5 2.5 0 0 0 0-.5V97h0v-.1-.1-.1-.1-.1h-.1-.1l-.1-.1-.1-.1V96h-.1 0l-5-5A2.5 2.5 0 0 0 102 94l.7.7H94a4.9 4.9 0 1 1 0-9.8h9.8a2.5 2.5 0 1 0 0-4.9H94a9.8 9.8 0 1 0 0 19.6h8.8l-.7.7a2.5 2.5 0 0 0 3.5 3.5l5-5h0l.1-.2zM35 80h-9.8a2.5 2.5 0 0 0 0 4.9H35a4.9 4.9 0 1 1 0 9.8h-8.8l.7-.7a2.5 2.5 0 0 0-3.5-3.5l-5 5h0l-.1.2s0 .1-.1.1l-.1.1s0 .1-.1.1h0s0 .1-.1.1v.1.1.1.1.1.1.1a2.5 2.5 0 0 0 0 .5v.1.1.1.1.1h0v.1h0s0 .1.1.1v.1s0 .1.1.1 0 .1.1.1c0 .1.1.1.1.2h0l5 5a2.5 2.5 0 0 0 3.5-3.5h0l-.7-.7H35A9.8 9.8 0 1 0 35 80zM20.3 62.7a2.5 2.5 0 0 0 2.9-2l.4-2.5a2.5 2.5 0 1 0-4.8-.9h0l-.4 2.5a2.5 2.5 0 0 0 2 2.9zm2-11a2.5 2.5 0 0 0 2.9-2h0l1.6-8.6a2.5 2.5 0 1 0-4.8-.9l-1.6 8.6a2.5 2.5 0 0 0 2 2.9z"/></svg>