<svg xmlns="http://www.w3.org/2000/svg" viewBox="0 0 128 128" fill="#0e7490"><path d="M109.4 76.2a16.5 16.5 0 0 0-12.2-1.4A6 6 0 0 1 103 70h2v-4h-2a9.9 9.9 0 0 0-4.1.9A8 8 0 0 0 91 60h-6a2 2 0 0 0-2 2v2a8 8 0 0 0 8 8h3a10 10 0 0 0-.7 2.9 17 17 0 0 0-14 1.5A20.3 20.3 0 0 0 69.1 94c0 14.2 10.7 30 26 30s26-16 26-30a20.6 20.6 0 0 0-11.7-18zM91 68a4 4 0 0 1-4-4h4a4 4 0 0 1 4 4zM73 96h20a2 2 0 1 1 0 4H73.7a27.5 27.5 0 0 1-.6-4zm22 24c-9.2 0-16.7-7.3-20-16h18a6 6 0 0 0 0-12H73a16.2 16.2 0 0 1 8.1-12 13.9 13.9 0 0 1 6.8-1.9 11.7 11.7 0 0 1 5 1.1v4.5c-1.3-.4-2-1-2-1.7h-4c0 3.4 3.5 6 8 6s8-2.6 8-6h-4c0 .6-.8 1.3-2 1.7V79a11.5 11.5 0 0 1 10.6.6 16.7 16.7 0 0 1 9.5 14.4c0 12.3-9.4 26-22 26zm10-32h4v4h-4zm4 8h4v4h-4zM73 17.3l-2-8a2 2 0 0 0-1.9-1.5H59v-2a2 2 0 0 0-2-2H33a2 2 0 0 0-2 2v2H21a2 2 0 0 0-1.9 1.5l-2 8a2 2 0 0 0 0 .9l4 20c1.7 8 6.4 9.6 10 9.6H34l3.2 6.5V60h-8a2 2 0 0 0-1.4.6L20 68h-9.2a2 2 0 0 0-2 2v26a2 2 0 0 0 2 2H20l5.4 5.4a2 2 0 0 0 1.4.6h10v4a8.1 8.1 0 0 0 16.1 0v-4h2a6 6 0 0 0 5.6-8.3 6 6 0 0 0 2.9-9.8 5.9 5.9 0 0 0 0-8 6 6 0 0 0-2.5-9.7V66a6 6 0 0 0-6-6h-2v-5.5l3-6.5h3c3.6 0 8.3-1.7 10-9.6l4-20a2 2 0 0 0 0-.9zM55 7.7v4H35v-4zm-22 8h24a2 2 0 0 0 2-2v-2h.4l1.5 6-3.6 18h-25l-3.6-18 1.5-6h.4v2a2 2 0 0 0 2 2zM61 74a2 2 0 0 1-2 2H39a2 2 0 0 1 0-4h20a2 2 0 0 1 2 2zm0 8a2 2 0 0 1-2 2H39a2 2 0 0 1 0-4h20a2 2 0 0 1 2 2zM49 68h-8V56h8zM22 94.7a2 2 0 0 0-1.4-.6h-8V72h8a2 2 0 0 0 1.4-.6l7.4-7.4h7.2v4.4a6 6 0 0 0-2.5 9.7 5.9 5.9 0 0 0 0 8 5.9 5.9 0 0 0 0 8 5.8 5.8 0 0 0-1.2 6h-5.6zm26.7 13.5a4 4 0 0 1-8 0v-4h8zm6-8h-16a2 2 0 1 1 0-4h16a2 2 0 1 1 0 4zm4-8h-20a2 2 0 0 1 0-4h20a2 2 0 1 1 0 4zm-4-28a2 2 0 0 1 2 2v2h-4v-4zm10-26.5c-1.2 5.8-4 6.4-6 6.4h-4a2 2 0 0 0-1.7.9l-3.5 7H40l-3.4-7a2 2 0 0 0-1.8-1.1h-4c-2 0-4.8-.7-6-6.4l-4-19.6 1.5-6h4L25 17.4a2 2 0 0 0 0 .9l4 20a2 2 0 0 0 2 1.6h28a2 2 0 0 0 2-1.6l4-20a2 2 0 0 0 0-.9L63.5 12h4l1.5 6zm-26 6.3h4v4h-4zm8 0h4v4h-4z"/></svg>