<svg xmlns="http://www.w3.org/2000/svg" viewBox="0 0 128 128" fill="#0e7490"><path d="M21.0718,67.4836,35.41,53.1454H69.5125a5.7087,5.7087,0,0,0,5.8128-5.8129V16.3305a5.7086,5.7086,0,0,0-5.8128-5.8129H11.3837a5.7086,5.7086,0,0,0-5.8129,5.8129v31.002a5.7087,5.7087,0,0,0,5.8129,5.8129h9.6881ZM11.3837,49.27A1.83,1.83,0,0,1,9.446,47.3325V16.3305a1.83,1.83,0,0,1,1.9377-1.9377H69.5125A1.83,1.83,0,0,1,71.45,16.3305v31.002A1.83,1.83,0,0,1,69.5125,49.27H33.86l-8.9132,8.9133V49.27Z"/><path d="M32.6976,22.1433H67.5748v3.8753H32.6976Z"/><path d="M32.6976,29.8938H67.5748v3.8753H32.6976Z"/><path d="M32.6976,37.6443H57.8867V41.52H32.6976Z"/><path d="M79.2006,35.7067h15.501V39.582H79.2006Z"/><path d="M79.2006,43.4572h15.501v3.8753H79.2006Z"/><path d="M83.0759,51.2077H94.7016V55.083H83.0759Z"/><path d="M116.0155,24.081H79.2006v3.8752h36.8149a1.83,1.83,0,0,1,1.9376,1.9376V60.8959a1.83,1.83,0,0,1-1.9376,1.9376H102.4521v8.9133l-8.9132-8.9133H57.8867a1.83,1.83,0,0,1-1.9376-1.9376V57.0206H52.0738v3.8753a5.7087,5.7087,0,0,0,5.8129,5.8128H91.9891L106.3274,81.047V66.7087h9.6881a5.7086,5.7086,0,0,0,5.8129-5.8128V29.8938A5.7086,5.7086,0,0,0,116.0155,24.081Z"/><path d="M112.14,37.6443a5.8129,5.8129,0,1,0-5.8129,5.8129A5.7087,5.7087,0,0,0,112.14,37.6443Zm-7.7505,0a1.9376,1.9376,0,1,1,1.9376,1.9377A1.83,1.83,0,0,1,104.39,37.6443Z"/><path d="M32.6976,72.5216A1.83,1.83,0,0,1,30.76,70.584V66.7087H26.8847V70.584a5.7087,5.7087,0,0,0,5.8129,5.8129h9.6881V90.7351L56.7239,76.3969h36.04V72.5216h-37.59l-8.9133,8.9133V72.5216Z"/><path d="M112.14,96.742h-8.5254l-3.2944-7.5566a1.9216,1.9216,0,0,0-2.5185-.9688,2.3321,2.3321,0,0,0-.9688.9688L93.5389,96.742H85.0135A1.83,1.83,0,0,0,83.0759,98.68a2.2008,2.2008,0,0,0,.5809,1.55l6.7817,6.0068L87.92,114.7615a1.72,1.72,0,0,0,1.3567,2.3255,2.1838,2.1838,0,0,0,1.55-.1939l7.75-4.2622,7.7505,4.2622a1.96,1.96,0,0,0,2.7125-.7749,2.0565,2.0565,0,0,0,.1939-1.55l-2.5185-8.5263,6.7817-6.0059a1.8837,1.8837,0,0,0,.193-2.7134A2.201,2.201,0,0,0,112.14,96.742Zm-9.1073,7.17a1.9656,1.9656,0,0,0-.5809,1.9376l1.55,5.0371-4.4561-2.5186a1.7585,1.7585,0,0,0-1.9376,0l-4.4562,2.5186,1.55-5.0371a1.7533,1.7533,0,0,0-.5809-1.9376l-3.8752-3.2944h4.4561a1.6951,1.6951,0,0,0,1.7437-1.1628l2.1316-4.65,2.1315,4.65a1.862,1.862,0,0,0,1.7437,1.1628h4.4562Z"/><path d="M42.3857,96.742H33.86L30.566,89.1854a1.9218,1.9218,0,0,0-2.5186-.9688,2.3327,2.3327,0,0,0-.9688.9688L23.7843,96.742H15.2589A1.83,1.83,0,0,0,13.3213,98.68a2.2008,2.2008,0,0,0,.5809,1.55l6.7817,6.0068-2.5185,8.5254a1.72,1.72,0,0,0,1.3567,2.3255,2.1835,2.1835,0,0,0,1.55-.1939l7.75-4.2622,7.7505,4.2622a1.96,1.96,0,0,0,2.7125-.7749,2.0565,2.0565,0,0,0,.194-1.55l-2.5186-8.5263,6.7817-6.0059a1.8837,1.8837,0,0,0,.193-2.7134A2.2008,2.2008,0,0,0,42.3857,96.742Zm-9.1072,7.17a1.9654,1.9654,0,0,0-.5809,1.9376l1.55,5.0371-4.4562-2.5186a1.7585,1.7585,0,0,0-1.9376,0l-4.4562,2.5186,1.55-5.0371a1.7533,1.7533,0,0,0-.581-1.9376l-3.8752-3.2944h4.4562a1.6949,1.6949,0,0,0,1.7436-1.1628l2.1316-4.65,2.1316,4.65a1.8618,1.8618,0,0,0,1.7437,1.1628h4.4561Z"/><path d="M77.263,96.742H68.7376l-3.2943-7.5566a1.9218,1.9218,0,0,0-2.5186-.9688,2.3327,2.3327,0,0,0-.9688.9688L58.6616,96.742H50.1362A1.83,1.83,0,0,0,48.1986,98.68a2.2008,2.2008,0,0,0,.5809,1.55l6.7817,6.0068-2.5186,8.5254a1.72,1.72,0,0,0,1.3568,2.3255,2.1835,2.1835,0,0,0,1.55-.1939l7.75-4.2622,7.7505,4.2622a1.96,1.96,0,0,0,2.7125-.7749,2.0565,2.0565,0,0,0,.1939-1.55l-2.5185-8.5263,6.7817-6.0059a1.8837,1.8837,0,0,0,.193-2.7134A2.201,2.201,0,0,0,77.263,96.742Zm-9.1072,7.17a1.9655,1.9655,0,0,0-.581,1.9376l1.55,5.0371-4.4562-2.5186a1.7585,1.7585,0,0,0-1.9376,0l-4.4562,2.5186,1.55-5.0371a1.7533,1.7533,0,0,0-.5809-1.9376l-3.8752-3.2944h4.4561a1.695,1.695,0,0,0,1.7437-1.1628l2.1316-4.65,2.1316,4.65a1.8618,1.8618,0,0,0,1.7436,1.1628H72.031Z"/><path d="M98.5769,53.1454v5.8128h15.501V53.1454a5.7087,5.7087,0,0,0-5.8129-5.8129H104.39A5.7086,5.7086,0,0,0,98.5769,53.1454Zm3.8752,0a1.83,1.83,0,0,1,1.9377-1.9377h3.8752a1.83,1.83,0,0,1,1.9376,1.9377V55.083h-7.7505Z"/><path d="M21.0718,29.8938a5.8129,5.8129,0,1,0-5.8129-5.8128A5.7087,5.7087,0,0,0,21.0718,29.8938Zm0-7.75a1.9377,1.9377,0,0,1,0,3.8753,1.9377,1.9377,0,0,1,0-3.8753Z"/><path d="M28.8223,39.582a5.7086,5.7086,0,0,0-5.8129-5.8129H19.1342a5.7086,5.7086,0,0,0-5.8129,5.8129v5.8129h15.501ZM24.9471,41.52H17.1965V39.582a1.83,1.83,0,0,1,1.9377-1.9377h3.8752a1.83,1.83,0,0,1,1.9377,1.9377Z"/></svg>