<svg xmlns="http://www.w3.org/2000/svg" viewBox="0 0 128 128" fill="#0e7490"><path d="M52.2 5.8H24.4a5.9 5.9 0 0 0-5.9 5.9v3.7h-4 0a4.4 4.4 0 0 0-3.8 6.6h0l6.8 11.7 6 61.3a6.1 6.1 0 0 0-3.2 1.9 6.2 6.2 0 0 0-1.5 5l2 15a6.2 6.2 0 0 0 6.1 5.3h62a6.2 6.2 0 0 0 6.1-5.3l2-15a6.3 6.3 0 0 0-1.5-5 6.1 6.1 0 0 0-3.2-1.9l1-9h11.3a10.3 10.3 0 0 0 10.1-8.8l6.4-45.8a9.4 9.4 0 0 0-2.2-7.5h0a9.4 9.4 0 0 0-7.1-3.2h-12V20a3.8 3.8 0 0 0-3-4.1v-4A5.9 5.9 0 0 0 90.9 6H52zm-29.2 6a1.4 1.4 0 0 1 1.4-1.4h66.8a1.4 1.4 0 0 1 1.4 1.4v3.7H23zM21.6 32l-7-12H52v6.6a2.3 2.3 0 0 0 4.5 0V20h2.7v51.4h-2.7V35.6a2.3 2.3 0 0 0-4.5 0v20.7a18.2 18.2 0 0 0-11.8.2L33 59.2l-2.6-26a2.3 2.3 0 0 0-4.5.4L31.2 86a5.4 5.4 0 0 0 5.4 4.9h43A5.4 5.4 0 0 0 85 86l5.2-52.5a2.3 2.3 0 1 0-4.5-.4l-2.2 22.4L80 54a29 29 0 0 0-16-1.8V20h31.5L88 95H28l-6.2-62a2.3 2.3 0 0 0-.3-.9zm48 44v2.4H46V76zM52 71.5h-6.6a4.3 4.3 0 0 0-4.3 4.3v3a4.3 4.3 0 0 0 4.3 4.3H70a4.3 4.3 0 0 0 4.3-4.3v-3a4.3 4.3 0 0 0-4.3-4.3h-6V68a18.2 18.2 0 0 0 13.2-1.8l5.6-3.2-2.3 22.7a.9.9 0 0 1-.9.8h-43a.9.9 0 0 1-.9-.8L33.5 64l8.4-3a13.6 13.6 0 0 1 10.3.4v10.3zM75 62a13.7 13.7 0 0 1-11 1.1v-6.4a24.5 24.5 0 0 1 14.3 1.4l2 1zm17.8 39.2l-2 15a1.6 1.6 0 0 1-1.6 1.4H27a1.6 1.6 0 0 1-1.6-1.4L25 113h31.2a2.3 2.3 0 1 0 0-4.5H24.5l-1-7.2a1.7 1.7 0 0 1 .4-1.4 1.6 1.6 0 0 1 1.2-.6h66a1.6 1.6 0 0 1 1.2.6 1.7 1.7 0 0 1 .4 1.4zm24-70.7l-6.4 45.8a5.7 5.7 0 0 1-5.7 4.9H94l.4-4h10a2.3 2.3 0 0 0 2.2-1.9l.8-5.6a2.3 2.3 0 1 0-4.5-.6l-.5 3.6h-7.6l4-39.5h9l-3.8 27a2.3 2.3 0 1 0 4.5.6l4-29.4a2.3 2.3 0 0 0-2.2-2.6h-11l.4-4H112a4.9 4.9 0 0 1 4.8 5.6zm-39.4 77.7H63.8a2.3 2.3 0 1 0 0 4.5h13.6a2.3 2.3 0 0 0 0-4.5z"/></svg>