<svg xmlns="http://www.w3.org/2000/svg" viewBox="0 0 128 128" fill="#0e7490"><path d="M44.738,60.1423H19.7618A15.28,15.28,0,0,1,4.4985,44.879V19.9028A15.28,15.28,0,0,1,19.7618,4.64H44.738A15.28,15.28,0,0,1,60.0013,19.9028V44.879A15.28,15.28,0,0,1,44.738,60.1423ZM19.7618,12.04a7.8717,7.8717,0,0,0-7.8629,7.8629V44.879a7.8717,7.8717,0,0,0,7.8629,7.8629H44.738a7.8717,7.8717,0,0,0,7.8629-7.8629V19.9028A7.8717,7.8717,0,0,0,44.738,12.04Z"/><path d="M107.6412,60.1423H82.6649A15.28,15.28,0,0,1,67.4017,44.879V19.9028A15.28,15.28,0,0,1,82.6649,4.64h24.9763a15.28,15.28,0,0,1,15.2632,15.2633V44.879A15.28,15.28,0,0,1,107.6412,60.1423ZM82.6649,12.04a7.8718,7.8718,0,0,0-7.8629,7.8629V44.879a7.8718,7.8718,0,0,0,7.8629,7.8629h24.9763a7.8717,7.8717,0,0,0,7.8629-7.8629V19.9028a7.8717,7.8717,0,0,0-7.8629-7.8629Z"/><path d="M95.1531,123.0454A27.7514,27.7514,0,1,1,122.9044,95.294,27.7829,27.7829,0,0,1,95.1531,123.0454Zm0-48.1024a20.3511,20.3511,0,1,0,20.351,20.351A20.3742,20.3742,0,0,0,95.1531,74.943Z"/><path d="M44.738,123.0454H19.7618A15.28,15.28,0,0,1,4.4985,107.7822V82.8059A15.28,15.28,0,0,1,19.7618,67.5427H44.738A15.28,15.28,0,0,1,60.0013,82.8059v24.9763A15.28,15.28,0,0,1,44.738,123.0454ZM19.7618,74.943a7.8717,7.8717,0,0,0-7.8629,7.8629v24.9763a7.8717,7.8717,0,0,0,7.8629,7.8629H44.738a7.8717,7.8717,0,0,0,7.8629-7.8629V82.8059A7.8717,7.8717,0,0,0,44.738,74.943Z"/></svg>