<svg xmlns="http://www.w3.org/2000/svg" xmlns:xlink="http://www.w3.org/1999/xlink" viewBox="0 0 128 128" fill="#0e7490"><path d="M111 120.2v-7.8a5.8 5.8 0 0 0-5.8-5.8h-4.2a17.4 17.4 0 0 0 6.5-13.6v-7.8a17.4 17.4 0 0 0-6.5-13.6h10.4v7.8a1.9 1.9 0 0 0 1.9 1.9h7.8a1.9 1.9 0 0 0 1.9-1.9v-9.7a9.7 9.7 0 0 0-9.7-9.7H95.7v-5.8a1.9 1.9 0 0 0-1.9-1.9H59a1.9 1.9 0 0 0-1.4 3.3l7.2 7.2v6a17.5 17.5 0 0 0-11.6 16.4V93a17.4 17.4 0 0 0 6.5 13.6H49.2v-58h56a5.8 5.8 0 0 0 5.8-5.8v-35a1.9 1.9 0 0 0-1.9-1.9H6.6a1.9 1.9 0 0 0-1.9 1.9v112.4a1.9 1.9 0 0 0 1.9 1.9H109a1.9 1.9 0 0 0 1.9-1.9zM99.3 44.6H57v-2a1.9 1.9 0 0 1 1.9-1.9h38.4a1.9 1.9 0 0 1 1.9 1.9zm-50-35H107v33a1.9 1.9 0 0 1-1.9 1.9h-2v-2a5.8 5.8 0 0 0-5.8-5.8H59a5.8 5.8 0 0 0-5.8 5.8v2h-4zM95.7 64h17.4a5.8 5.8 0 0 1 5.8 5.8v7.8h-4v-7.8a1.9 1.9 0 0 0-1.9-1.9H95.7zm-32-7.8h28.3v4H67.5zM91.8 64v4H68.6v-4zM57 85.3a13.6 13.6 0 0 1 13.6-13.6H90a13.6 13.6 0 0 1 13.6 13.6v2H57zm0 7.8v-2h46.5v2a13.6 13.6 0 0 1-13.6 13.6H70.5A13.6 13.6 0 0 1 57 93.1zm50 25.2H8.5V9.7h36.8v98.8a1.9 1.9 0 0 0 1.9 1.9H105a1.9 1.9 0 0 1 1.9 1.9v5.8z"/><use xlink:href="#B"/><use xlink:href="#B" x="-19.4"/><use xlink:href="#B" x="19.3"/><path d="M30.7 13.6H23a1.9 1.9 0 0 0-1.9 1.9v93a1.9 1.9 0 0 0 1.9 1.9h7.8a1.9 1.9 0 0 0 1.9-1.9v-93a1.9 1.9 0 0 0-1.9-1.9zm-2 93h-4V95h4zm0-15.5h-4V79.5h4zm0-15.5h-4V64h4zm0-15.5h-4V48.5h4zm0-15.5h-4V33h4zm0-15.5h-4V17.5h4z"/><defs ><path id="B" d="M78 31a5.8 5.8 0 1 0-5.8-5.8 5.8 5.8 0 0 0 5.8 5.8zm0-7.8a1.9 1.9 0 1 1-1.9 1.9 1.9 1.9 0 0 1 1.9-1.9z"/></defs></svg>