<svg xmlns="http://www.w3.org/2000/svg" viewBox="0 0 128 128" fill="#0e7490"><path d="M47.3 46.6h34.4a3.6 3.6 0 0 0 3.6-3.6v-5.7a1.7 1.7 0 0 0-.4-1.1l-9.2-11V8.5a3.6 3.6 0 0 0-3.6-3.6H56.7a3.6 3.6 0 0 0-3.6 3.6V25l-9 11a1.7 1.7 0 0 0-.4 1.1v6a3.6 3.6 0 0 0 3.6 3.6zM81.7 43H47.3a.2.2 0 0 1-.2-.2v-4H82v4a.2.2 0 0 1-.2.2zm-26-15.7h17.5l6.7 8H49zm1-19a.1.1 0 0 1 .1-.1h15.4a.1.1 0 0 1 .1.1V24H56.6zM78 93H51a3.6 3.6 0 0 0-3.6 3.6V112a3.6 3.6 0 0 0 3.6 3.6h27a3.6 3.6 0 0 0 3.6-3.6V96.4a3.6 3.6 0 0 0-3.6-3.6zm.1 19a.1.1 0 0 1-.1.1H51a.1.1 0 0 1-.1-.1V96.4a.1.1 0 0 1 .1-.1h27a.1.1 0 0 1 .1.1v15.4zm-29-31h2a1.8 1.8 0 0 0 0-3.5h-2a1.8 1.8 0 0 0 0 3.5zm14.3 0h2a1.8 1.8 0 0 0 0-3.5h-2a1.8 1.8 0 0 0 0 3.5zm14.3 0h2a1.8 1.8 0 0 0 0-3.5h-2a1.8 1.8 0 0 0 0 3.5zM72 100.5H56.8a1.8 1.8 0 0 0 0 3.5H72a1.8 1.8 0 0 0 0-3.5zm-45.8-23h-3.8a1.8 1.8 0 0 0 0 3.5h3.8a1.8 1.8 0 1 0 0-3.5zM13 100.3v7.6a1.8 1.8 0 0 0 3.5 0v-7.6a1.8 1.8 0 1 0-3.5 0zM120 70H28V58.2a3.6 3.6 0 0 0-3.6-3.6h-4a3.6 3.6 0 0 0-3.6 3.6V70H9a3.6 3.6 0 0 0-3.6 3.6v46a3.6 3.6 0 0 0 3.6 3.6h12a1.8 1.8 0 1 0 0-3.5H9a.1.1 0 0 1-.1-.1v-31h31v31H28a1.8 1.8 0 1 0 0 3.5h92a3.6 3.6 0 0 0 3.6-3.6v-46A3.6 3.6 0 0 0 120 70zm.1 3.6v11.7H89v-12h31a.1.1 0 0 1 .1.1zM85.7 85.2H43.2V73.4h42.4zm-65.3-27a.1.1 0 0 1 .1-.1h4a.1.1 0 0 1 .1.1V70h-4.2zM9 85.2V73.5a.1.1 0 0 1 .1-.1h30.8v11.8zm34.4 3.5h42.4v31H43.2zm76.8 30.8a.1.1 0 0 1-.1.1H89v-31h31zM102.7 81h3.8a1.8 1.8 0 1 0 0-3.5h-3.8a1.8 1.8 0 0 0 0 3.5zM95 109.7a1.7 1.7 0 0 0 1.7-1.7v-7.6a1.8 1.8 0 1 0-3.5 0v7.6a1.7 1.7 0 0 0 1.7 1.7zM9 35.2h27a3.6 3.6 0 0 0 3.6-3.6v-23A3.6 3.6 0 0 0 36 5H9a3.6 3.6 0 0 0-3.6 3.6v23A3.6 3.6 0 0 0 9 35.2zM8.8 8.5a.1.1 0 0 1 .1-.1h27a.1.1 0 0 1 .1.1v23a.1.1 0 0 1-.1.1H9a.1.1 0 0 1-.1-.1zm11.7 19h3.8a1.8 1.8 0 0 0 0-3.5h-3.8a1.8 1.8 0 0 0 0 3.5zM120 5H93a3.6 3.6 0 0 0-3.6 3.6v4.2a1.8 1.8 0 1 0 3.5 0V8.5a.1.1 0 0 1 .1-.1h27a.1.1 0 0 1 .1.1v23a.1.1 0 0 1-.1.1H93a.1.1 0 0 1-.1-.1v-12a1.8 1.8 0 1 0-3.5 0v12a3.6 3.6 0 0 0 3.6 3.6h27a3.6 3.6 0 0 0 3.6-3.6v-23a3.6 3.6 0 0 0-3.6-3.6z"/><path d="M108.4 27.5a1.8 1.8 0 1 0 0-3.5h-3.8a1.8 1.8 0 0 0 0 3.5zM121.8 47H91.2a1.8 1.8 0 0 0 0 3.5h6V55a5.6 5.6 0 1 0 3.5 0v-4.5h11.8V55a5.6 5.6 0 1 0 3.5 0v-4.5h6a1.8 1.8 0 1 0 0-3.5zM99 62.3a2.1 2.1 0 1 1 2.1-2.1 2.1 2.1 0 0 1-2.1 2.1zm15.3 0a2.1 2.1 0 1 1 2.1-2.1 2.1 2.1 0 0 1-2.1 2.1z"/></svg>