<svg xmlns="http://www.w3.org/2000/svg" viewBox="0 0 128 128" fill="#0e7490"><path d="M89 25v34.3c0 4.2-2.3 6.5-6.5 6.5q-24.5 0-49 0c-4 0-6.4-2.3-6.4-6.4q0-18.7 0-37.5c0-2 .6-2.5 2.5-2.5q24.3 0 48.6 0a3 3 0 0 1 3 3v.8h4a.6.6 0 0 0 .5-.2l3.3-9.5a2.2 2.2 0 0 1 2.5-1.8H95V6.3c0-2 1-2.2 3.7-2.2h21.8c2.4 0 3.5.3 3.5 2.2q0 3.4 0 7a2 2 0 0 1-2.4 2.4H93.8c-1 0-1.5.3-1.7 1.4zM77.5 62V23.3H31v1q0 17.5 0 35c0 2 .6 2.7 2.7 2.7q14.8 0 29.6 0zm4-34.8V62c3.4.2 3.8-.2 3.8-3.5V27zM99 11.6h21V7.8H99zm-2 69.8V85H15.7v-3.7zm12.7 17.3h-5v-4h5.3c1.7 0 2.4-.7 2.4-2.3q0-5.4 0-11c0-1.6-.7-2.3-2.3-2.3h-5.4v-3c0-2.2-.6-2.8-2.8-2.8q-32.7 0-65.4 0H24.7l-7-17.7a2.3 2.3 0 0 0-2.5-1.7H6.6c-2 0-2.6.6-2.6 2.5q0 28.5 0 57c0 1.8.7 2.5 2.5 2.5h7.2v5.4c0 1.6.7 2.3 2.4 2.3q4.3 0 8.6 0c2 0 2.6-.6 2.6-2.6v-5h56v5.3c0 1.7.7 2.4 2.3 2.4q4.4 0 8.8 0a2 2 0 0 0 2.4-2.4V116h5c2.2 0 2.7-.6 2.7-2.7v-3h5.4c1.7 0 2.4-.7 2.4-2.3v-6.5c0-2.2-.6-2.7-2.7-2.7zM8 58h6a.8.8 0 0 1 .6.4l6 15H8zm15.4 62h-5.7v-3.7h5.7zm69.7 0h-5.7v-3.8H93zm7.7-7.8H8v-3.8h11.5v-4H8v-4h11.5v-4H8v-4h11.5v-4H8v-4-.1h3.7v-3.7H8v.4c-.1-3.5-.1-3.6 3.5-3.6q44 0 88 0h1.4zm4-29h3.7V91h-3.7zm3.7 23h-3.8v-3.8h3.8zM56.2 91h9.3c1.6 0 2.3.7 2.3 2.4q0 3.4 0 7c0 1.7-.7 2.4-2.3 2.4q-9.2 0-18.5 0a2 2 0 0 1-2.4-2.4v-7c0-1.6.7-2.3 2.3-2.3h9.3zm7.7 4H48.6v3.7H64zm6-60.2v5.8h3.8v4H70v5.8h3.7v4H70V58h-4v-3.7h-9.7V58h-4v-3.7h-9.7V58h-4v-3.8H35v-4h3.8v-5.8H35v-3.8h3.7V35H35v-4h3.7v-4h4v4h9.7v-3.7h4V31H66v-3.7h4V31h3.8v4zm-17.5 5.8V35H43v5.7zm4 0H66V35h-9.6zm-13.5 4v5.7h9.5v-5.7zm13.5 5.7H66v-5.7h-9.6z"/></svg>