<svg xmlns="http://www.w3.org/2000/svg" viewBox="0 0 128 128" fill="#0e7490"><path d="M117 40.5a5.9 5.9 0 0 0 5.9-5.9V11a5.9 5.9 0 0 0-5.9-5.9H11A5.9 5.9 0 0 0 5.3 11v23.5a5.9 5.9 0 0 0 5.9 5.9h4v33.8L11 81.7a2 2 0 0 0 .7 2.7l3.6 2v20.8h-4a5.9 5.9 0 0 0-5.9 5.9v4a5.9 5.9 0 0 0 5.9 5.9h106a5.9 5.9 0 0 0 5.9-5.9v-4a5.9 5.9 0 0 0-5.9-5.9h-4V61l3 .4a6.1 6.1 0 0 0 .8.1 5.9 5.9 0 0 0 5.9-5.9v-4.8a5.9 5.9 0 0 0-6.7-5.8l-3 .4v-5zm-108-6V11a2 2 0 0 1 2-2h106a2 2 0 0 1 2 2v23.5a2 2 0 0 1-2 2H11a2 2 0 0 1-2-2zM89.4 54h-7.8v-2h7.8zM78 58a5.9 5.9 0 0 1-6 6H56.3a5.9 5.9 0 0 1-5.9-5.9v-9.8H78zM62.2 68h4v4h-4zM74 44.4H54.3v-4H74zM15.2 82l7-12 5 3-7 12zm12.3-13.3l-.6-.3-.6-.4 6.2-11a1.9 1.9 0 0 0 .3-1V40.5h2v15.2zM19 40.5h9.8v15.2L23 66l-.6-.4a2 2 0 0 0-2.7.7l-.6 1zM119 113v4a2 2 0 0 1-2 2H11a2 2 0 0 1-2-2v-4a2 2 0 0 1 2-2h106a2 2 0 0 1 2 2zM83.8 91.5v-2a3.9 3.9 0 1 1 0 7.8h-1a17.5 17.5 0 0 0 1-5.9zm-4 0a13.8 13.8 0 0 1-13.7 13.7h-4a13.8 13.8 0 0 1-13.7-13.7v-6h31.4zm29.4 15.7H74a17.8 17.8 0 0 0 6.6-5.9h3a7.9 7.9 0 0 0 0-15.7v-2a2 2 0 0 0-2-2h-35a2 2 0 0 0-2 2v7.8a17.7 17.7 0 0 0 9.6 15.7H19V88.7l1 .6a2 2 0 0 0 .7.2h.2a1.5 1.5 0 0 0 .2 0 2 2 0 0 0 .5-.1h0a2 2 0 0 0 .6-.3l.1-.1a1.9 1.9 0 0 0 .5-.5l8.8-15.3a1.9 1.9 0 0 0-.6-2.6L38.4 57a2 2 0 0 0 .2-1V40.5h11.8v4h-2a2 2 0 0 0-2 2V58a9.8 9.8 0 0 0 9.8 9.8h2v6a2 2 0 0 0 2 2H68a2 2 0 0 0 2-2v-6h2a9.8 9.8 0 0 0 9.8-9.8h9.7l17.8 2.4zM117 49a2 2 0 0 1 2.2 1.9v4.8a1.9 1.9 0 0 1-.7 1.5 2 2 0 0 1-1.6.5l-5.3-.7h0l-18-2.4V52l18-2.4h0zm-7.6-3l-17.8 2.4H82v-2a2 2 0 0 0-2-2h-2v-4h31.4zM64 34.6a11.8 11.8 0 1 0-11.8-11.8A11.8 11.8 0 0 0 64 34.6zm0-4a7.8 7.8 0 0 1-6.8-3.9H71a7.8 7.8 0 0 1-6.8 3.9zM64 15a7.8 7.8 0 0 1 7.8 7.8h-6.4L64 18.3a2 2 0 1 0-3.7 1.2l1 3.3h-5a7.8 7.8 0 0 1 7.8-7.8zM23 30.6a7.8 7.8 0 1 0-7.8-7.8 7.8 7.8 0 0 0 7.8 7.8zM23 19a3.9 3.9 0 1 1-3.9 3.9A3.9 3.9 0 0 1 23 19zm13.7 1.8h4a2 2 0 1 0 0-3.9h-4a2 2 0 1 0 0 3.9zm0 8h4a2 2 0 1 0 0-3.9h-4a2 2 0 1 0 0 3.9zm51 2h23.5a2 2 0 0 0 2-2V17a2 2 0 0 0-2-2H87.7a2 2 0 0 0-2 2v11.8a2 2 0 0 0 2 2zm2-11.8h19.6v7.8H89.6zm11.7 94.2H27a2 2 0 0 0 0 3.9h74.6a2 2 0 0 0 0-3.9zm6 2a2 2 0 0 0 2 2h4a2 2 0 1 0 0-3.9h-4a2 2 0 0 0-2 2zM19 113h-4a2 2 0 1 0 0 3.9h4a2 2 0 0 0 0-3.9z"/></svg>