<svg xmlns="http://www.w3.org/2000/svg" xmlns:xlink="http://www.w3.org/1999/xlink" viewBox="0 0 128 128" fill="#0e7490"><path d="M103.6 80.8H24a2.3 2.3 0 0 1-2.3-2.2V26.8a2.3 2.3 0 0 1 2.3-2.2h79.8a2.3 2.3 0 0 1 2.3 2.2v51.8a2.3 2.3 0 0 1-2.3 2.2zm-77.4-4.4h75V29h-75z"/><path d="M108.3 115.8h-89a4.5 4.5 0 0 1-4.7-4.4V83a6.8 6.8 0 0 1 7-6.6H106a6.8 6.8 0 0 1 7 6.6v28.5a4.5 4.5 0 0 1-4.7 4.4zm-86.8-35a2.3 2.3 0 0 0-2.3 2.2v28.5h89V83a2.3 2.3 0 0 0-2.3-2.2H21.5zM63.7 109a12.9 12.9 0 1 1 12.9-12.9A13 13 0 0 1 63.7 109zm0-22a8.9 8.9 0 1 0 8.9 8.9 9 9 0 0 0-8.9-8.9z"/><path d="M48.4 104.8H20a2.2 2.2 0 0 1 0-4.4h28.5a2.2 2.2 0 0 1 0 4.4zm59 0H79a2.2 2.2 0 1 1 0-4.4h28.5a2.2 2.2 0 0 1 0 4.4z"/><use xlink:href="#B"/><use xlink:href="#B" x="63.5"/><path d="M103.6 29H24a2.3 2.3 0 0 1-2.3-2.2c0-7.3 14.5-10.5 23-11.8l9.6-1a147.1 147.1 0 0 1 19.1 0l9.6 1c8.6 1.3 23 4.5 23 11.8a2.3 2.3 0 0 1-2.3 2.2zM28 24.6h71.6c-2.5-1.8-8-4-17.4-5.3l-9.2-1a141.6 141.6 0 0 0-18.4 0c-3.2.2-6.3.5-9.2 1a43 43 0 0 0-17.4 5.3z"/><path d="M81.2 19.3H81l-8.6-1a123.2 123.2 0 0 0-17.2 0 113 113 0 0 0-8.6.9 2.2 2.2 0 0 1-2.5-2.2V5.7a2.2 2.2 0 0 1 2.2-2.2h35a2.2 2.2 0 0 1 2.2 2.2V17a2.2 2.2 0 0 1-2.2 2.2zm-17.5-5.6a86.1 86.1 0 0 1 8.9.3l6.4.6V8H48.4v6.8l6.4-.6a86.1 86.1 0 0 1 8.9-.3z"/><path d="M72.5 48.7H55a2.2 2.2 0 0 1-2.2-2.2V16.2a2.2 2.2 0 0 1 2-2.2 128 128 0 0 1 17.8 0 2.2 2.2 0 0 1 2 2.2v30.3a2.2 2.2 0 0 1-2.2 2.2zm-15.3-4.4h13v-26a123.9 123.9 0 0 0-13.1 0v26zM87.8 8h-48a2.2 2.2 0 0 1 0-4.4h48a2.2 2.2 0 0 1 0 4.4zM72.5 80.8H55a2.2 2.2 0 0 1-2.2-2.2v-11a10.9 10.9 0 0 1 21.9 0v11a2.2 2.2 0 0 1-2.2 2.2zm-15.3-4.4h13v-8.8a6.6 6.6 0 0 0-13.1 0z"/><path d="M55 72H35.3a2.2 2.2 0 0 1 0-4.4H55a2.2 2.2 0 0 1 0 4.4zm37.2 0H72.5a2.2 2.2 0 0 1 0-4.4h19.7a2.2 2.2 0 0 1 0 4.4zM37.5 37.7h-2.2a2.2 2.2 0 0 1 0-4.4h2.2a2.2 2.2 0 0 1 0 4.4zm17.5 0h-8.8a2.2 2.2 0 0 1 0-4.4H55a2.2 2.2 0 0 1 0 4.4z"/><defs ><path id="B" d="M35.3 124.5h-6.6a4.4 4.4 0 0 1-4.4-4.4v-6.6a2.2 2.2 0 0 1 2.2-2.2h11a2.2 2.2 0 0 1 2.2 2.2v6.6a4.4 4.4 0 0 1-4.4 4.4zm-6.6-8.8v4.4h6.6v-4.4z"/></defs></svg>