<svg xmlns="http://www.w3.org/2000/svg" viewBox="0 0 128 128" fill="#0e7490"><path d="M105.5 24.2h-20v-8h4v2a2 2 0 1 0 4 0v-2.5a4 4 0 0 0 2-3.4v-4a4 4 0 0 0-4-4H33.8a4 4 0 0 0-4 4v4a4 4 0 0 0 2 3.4v2.5a2 2 0 1 0 4 0v-2h4v8H20a8 8 0 0 0-8 8V68a8 8 0 0 0 8 8h4v4a4 4 0 0 0-4 4v4a4 4 0 0 0 4 4v26a6 6 0 0 0 6 6h65.7a6 6 0 0 0 6-6V92a4 4 0 0 0 4-4v-4a4 4 0 0 0-4-4v-4h4a8 8 0 0 0 8-8V32a8 8 0 0 0-8-8zm-71.7-16h57.8v4H33.8zm10 8h38v8h-38zm-24 12h85.7a4 4 0 0 1 4 4H16a4 4 0 0 1 4-4zM109.5 64H16V36h93.6zm-12 53.8a2 2 0 0 1-2 2H29.8a2 2 0 0 1-2-2V92h69.7zm4-30H24v-4h77.7zm-4-8H27.8v-4h69.7zm8-8H20a4 4 0 0 1-4-4h93.6a4 4 0 0 1-4 4zm-42.8 44a9.9 9.9 0 0 0 8.3-15.4l1-1a2 2 0 0 0-2.8-2.8l-1 1a10 10 0 1 0-5.5 18.3zm0-16a5.9 5.9 0 0 1 2.6.6l-2 2a2 2 0 1 0 2.8 2.8l2-2a5.9 5.9 0 0 1 .6 2.6 6 6 0 1 1-6-6z"/></svg>