<svg xmlns="http://www.w3.org/2000/svg" viewBox="0 0 128 128" fill="#0e7490"><path d="M52.7 71.6a1.8 1.8 0 0 0 1.8-1.8v-3.5a1.8 1.8 0 1 0-3.5 0V70a1.8 1.8 0 0 0 1.8 1.8zm7.3 0a1.8 1.8 0 0 0 1.8-1.8v-3.5a1.8 1.8 0 0 0-3.5 0V70a1.8 1.8 0 0 0 1.8 1.8zm7 0a1.8 1.8 0 0 0 1.8-1.8v-3.5a1.8 1.8 0 0 0-3.5 0V70a1.8 1.8 0 0 0 1.8 1.8zm7.3 0a1.8 1.8 0 0 0 1.8-1.8v-3.5a1.8 1.8 0 1 0-3.5 0V70a1.8 1.8 0 0 0 1.8 1.8zM118 31.8h-6.5a4.9 4.9 0 0 0-4.9 4.9V40h-5.3v-1A25.5 25.5 0 0 0 93 20.2a1.8 1.8 0 0 0-2.4 2.6A21.9 21.9 0 0 1 97.8 39v1H29.2v-1a21.9 21.9 0 0 1 21.9-21.9h25a21.7 21.7 0 0 1 8.7 1.8 1.8 1.8 0 1 0 1.4-3.3A25.3 25.3 0 0 0 76 13.5h-4.2V13A8 8 0 0 0 70 8.3a5.9 5.9 0 0 0-4.6-2.5h-3.7A5.9 5.9 0 0 0 57 8.3a8 8 0 0 0-1.7 4.8v.5H51A25.5 25.5 0 0 0 25.7 39v1h-5.3v-3.5a4.9 4.9 0 0 0-4.9-4.9H9a6 6 0 0 0 0 11.9h11.8a4.1 4.1 0 0 0 0 .5v5a4.1 4.1 0 0 0 4.1 4.1h1v1A25.4 25.4 0 0 0 36 74.6a6.2 6.2 0 0 0-1.2 3.7 7.1 7.1 0 0 0 3.6 5.9L32 115a6.1 6.1 0 0 0 12.1 2.1l6.5-32c3-1 5.2-3.2 5.8-5.7h14.4c.6 2.5 2.8 4.5 5.8 5.6l6.5 32a6.1 6.1 0 0 0 11.9-2l-3-12.4a1.8 1.8 0 0 0-3.5.6l3 12.4a2.6 2.6 0 0 1-5.1.9L80.2 86h1.2a15 15 0 0 0 3.9-.5l1.8 10a1.8 1.8 0 0 0 2 1.5 1.8 1.8 0 0 0 1.4-2.1l-2-10.8a7.1 7.1 0 0 0 3.6-5.9 6.2 6.2 0 0 0-1.2-3.6 25.8 25.8 0 0 0 2.8-2.4 25.3 25.3 0 0 0 7.5-18V53h1a4.1 4.1 0 0 0 4.1-4.1v-5a4.1 4.1 0 0 0 0-.5H118a6 6 0 0 0 0-11.9zM59 13c0-1.7 1.5-3.7 2.8-3.7h3.7c1.3 0 2.8 2 2.8 3.7v.5H59zM9 40a2.4 2.4 0 0 1 0-4.8h6.5a1.3 1.3 0 0 1 1.3 1.3V40zm31.6 76.4a2.6 2.6 0 1 1-5.1-.9l6-30a15 15 0 0 0 3.9.5h1.2zm5-34c-4 0-7.3-2-7.3-4.3a2.8 2.8 0 0 1 .7-1.8 25.3 25.3 0 0 0 12 3.1h1.5c-1 1.7-3.8 3-7 3zm43-4.3c0 2.3-3.4 4.3-7.3 4.3-3 0-6-1.2-7-3h1.3.1a25.3 25.3 0 0 0 12.2-3.1 2.8 2.8 0 0 1 .7 1.7zm14-34v5a.5.5 0 0 1-.5.5H42a1.8 1.8 0 0 0 0 3.5h55.6v1.2a21.9 21.9 0 0 1-21.9 21.8h-.1H51a21.9 21.9 0 0 1-21.8-21.9v-1h5a1.8 1.8 0 0 0 0-3.5h-9.5a.5.5 0 0 1-.5-.5v-5a.5.5 0 0 1 .5-.5h77.5a.5.5 0 0 1 .5.5zm15.3-4H110v-3.5a1.3 1.3 0 0 1 1.3-1.3h6.5a2.4 2.4 0 0 1 0 4.8zm-73-8.3a1.8 1.8 0 0 0 0 3.5h37a1.8 1.8 0 0 0 0-3.6z"/></svg>