<svg xmlns="http://www.w3.org/2000/svg" viewBox="0 0 128 128" fill="#0e7490"><path d="M14.8 109.8a7.8 7.8 0 0 0 6.3 7v2a5.9 5.9 0 0 0 5.8 5.8h11.7a5.9 5.9 0 0 0 5.9-5.8v-2h39v2a5.9 5.9 0 0 0 5.8 5.8H101a5.9 5.9 0 0 0 5.8-5.8v-2a7.8 7.8 0 0 0 6.3-7l5.3-59.6a4.3 4.3 0 0 0 2.1-5.9L113 29.6a4.3 4.3 0 0 0-3.9-2.4h-7.6L90 10.6a6.8 6.8 0 0 0-5.6-2.9h-41a6.8 6.8 0 0 0-5.6 2.9L26.3 27.2h-7.6a4.3 4.3 0 0 0-3.9 2.4L7.4 44.3a4.3 4.3 0 0 0 2.1 5.9zm25.8 9a2 2 0 0 1-2 2H27a2 2 0 0 1-1.9-2v-2h15.6zm62.4 0a2 2 0 0 1-2 2H89.3a2 2 0 0 1-2-2v-2H103zm6.3-9.4a3.9 3.9 0 0 1-3.9 3.6h-83a3.9 3.9 0 0 1-3.9-3.6l-5.2-58.8H21a5.9 5.9 0 0 0 5.9 5.9h9.8a5.9 5.9 0 0 0 5.9-5.9h43a5.9 5.9 0 0 0 5.8 5.9h9.8a5.9 5.9 0 0 0 5.8-5.9h7.6zM38.6 50.6a2 2 0 0 1-2 2H27a2 2 0 0 1-1.9-2v-4a2 2 0 0 1 1.9-2h9.8a2 2 0 0 1 2 2zm64.4 0a2 2 0 0 1-2 2h-9.8a2 2 0 0 1-2-2v-4a2 2 0 0 1 2-2h9.8a2 2 0 0 1 2 2zM41 13a2.9 2.9 0 0 1 2.4-1.3h41a2.9 2.9 0 0 1 2.4 1.3l10 14.3h-7l-6.2-9a2 2 0 0 0-1.6-.8H46a2 2 0 0 0-1.6.8l-6.2 9h-7zm44.2 14.8a5.9 5.9 0 0 0-3.8 5.4 2 2 0 0 1-2 2h-31a2 2 0 0 1-2-2 5.9 5.9 0 0 0-3.8-5.4l4.4-6.3h34zM11 46l7.4-14.7a.5.5 0 0 1 .4-.2h22a1.9 1.9 0 0 1 1.4.6 1.9 1.9 0 0 1 .6 1.4 5.9 5.9 0 0 0 5.9 5.9H80a5.9 5.9 0 0 0 5.8-5.9 2 2 0 0 1 2-1.9h22a.5.5 0 0 1 .4.3l7 14.5a.4.4 0 0 1 0 .2.5.5 0 0 1-.5.5H107a5.9 5.9 0 0 0-5.8-5.9h-9.8a5.9 5.9 0 0 0-5.8 5.9h-43a5.9 5.9 0 0 0-5.9-5.9H27a5.9 5.9 0 0 0-5.9 5.9h-9.7a.5.5 0 0 1-.4-.2.4.4 0 0 1 0-.4zm23.7 59.2H26l-.7-7.5a2 2 0 1 0-3.9.3l.8 9.3a2 2 0 0 0 1.9 1.8h10.4a2 2 0 0 0 0-3.9zM64 54.5a27.3 27.3 0 1 0 27.3 27.3A27.3 27.3 0 0 0 64 54.5zm0 50.7a23.4 23.4 0 1 1 23.4-23.4A23.4 23.4 0 0 1 64 105.2zm14.2-36a2 2 0 0 0-3.8-1l-1.7 6.3-6.8 4v-8l4.6-4.6a2 2 0 0 0-2.8-2.8L64 67l-3.8-3.8a2 2 0 0 0-2.8 2.8l4.6 4.6v8l-6.8-4-1.7-6.3a2 2 0 0 0-3.8 1l1.4 5.2L46 76a2 2 0 0 0 .5 3.8 1.9 1.9 0 0 0 .5-.1l6.3-1.7 6.8 4-6.8 4-6.2-2a2 2 0 1 0-1 3.8l5.2 1.4-1.4 5.2a2 2 0 0 0 1.4 2.4 1.9 1.9 0 0 0 .5.1 2 2 0 0 0 1.9-1.4l1.7-6.3 6.8-4v8l-4.6 4.6a2 2 0 1 0 2.8 2.8l3.8-3.8 3.8 3.8a2 2 0 1 0 2.8-2.8L66 93v-8l6.8 4 1.7 6.3a2 2 0 0 0 1.9 1.4 1.9 1.9 0 0 0 .5-.1 2 2 0 0 0 1.4-2.4l-1.3-5 5-1.2a2 2 0 1 0-1-3.8L74.7 86l-7-4 6.8-4 6.3 1.7a1.9 1.9 0 0 0 .5.1 2 2 0 0 0 .5-3.8L77 74.4z"/></svg>