<svg xmlns="http://www.w3.org/2000/svg" viewBox="0 0 128 128" fill="#0e7490"><path d="M83.6 111A13.7 13.7 0 1 0 70 97.5a13.7 13.7 0 0 0 13.7 13.7zm2-23.2v9.6a2 2 0 1 1-3.9 0V88a9.8 9.8 0 0 1 3.9 0zm-7.8 1.8v7.8a5.9 5.9 0 1 0 11.7 0v-7.8a9.8 9.8 0 1 1-11.7 0zM115 37h-10v-4H92.6l7.8-15.6h2.7a3.9 3.9 0 0 0 3.9-3.9v-4a3.9 3.9 0 0 0-3.9-3.9H60a3.9 3.9 0 0 0-3.9 3.9v4a3.9 3.9 0 0 0 3.9 3.9h3L70.7 33H58.3v4H30.6a5.8 5.8 0 0 0-5.5-3.9h-4a5.9 5.9 0 0 0-5.9 5.9v2h-6a5.9 5.9 0 1 0 0 11.7h6v2a5.9 5.9 0 0 0 5.9 5.9h4a5.8 5.8 0 0 0 5.5-3.9h27.7v7.8H3.6v7l7.8 4v18.3a13.6 13.6 0 0 0 4.9 10.5 17.6 17.6 0 0 0-12.7 16.9 5.9 5.9 0 0 0 5.9 5.9h89.8a5.9 5.9 0 0 0 5.9-5.9V48.7h7.8v48.8a5.9 5.9 0 1 0 11.7 0V46.7a9.8 9.8 0 0 0-9.8-9.8zM60.2 9.6h43v4h-43zm7 7.8H96L88.3 33H75zm34 19.5v19.5h-39V37zM9.5 48.7a2 2 0 0 1 0-3.9h6v4zm17.6 6a2 2 0 0 1-2 2h-4a2 2 0 0 1-2-2V39a2 2 0 0 1 2-2h4a2 2 0 0 1 2 2zm4-2V41h27.3v11.7zM7.5 69v-.7h50.7v14C55.5 81 51.5 80 46.5 80A30 30 0 0 0 28.8 86c-4.3-2-8.7-3.7-13.4-4v-9zm50.7 18.8c0 2.3-5 4-11.7 4-4.7 0-9-1.7-13.7-3.8a26.6 26.6 0 0 1 13.7-4c6.8 0 11.7 1.6 11.7 4zm-43 6V86c4.7.5 9.2 2.5 13.8 4.6 5.5 2.5 11 5 17.4 5 5 0 9-.8 11.7-2.2v.3a9.8 9.8 0 0 1-9.8 9.8H25a9.8 9.8 0 0 1-9.8-9.8zm6 13.7h27.3a13.7 13.7 0 0 0 13.7-13.7V60.4h39V115H9a13.7 13.7 0 0 1 12.3-7.8zm78 15.6H9.5a2 2 0 0 1-2-2 13.7 13.7 0 0 1 .2-2h93.5v2a2 2 0 0 1-2 2zm21.5-25.4a2 2 0 1 1-3.9 0v-49a3.9 3.9 0 0 0-3.9-3.9h-8v-4h9.8a5.9 5.9 0 0 1 5.9 5.9zm-27.3-49h4v4h-4zm0-7.7h4v4h-4zm-7.8 0h4v4h-4zm0 7.7h4v4h-4z"/></svg>