<svg xmlns="http://www.w3.org/2000/svg" viewBox="0 0 128 128" fill="#0e7490"><path d="M124 76.5a3 3 0 0 0-.9-2.2l-4.4-4.4a3.1 3.1 0 0 0-4.3 0L98 86.3 95.7 84a4.2 4.2 0 0 0-5.9 0l-.3.3-3-3L108 59.5a3.4 3.4 0 0 0 0-4.9l-5.6-5.6a3.4 3.4 0 0 0-4.9 0L76 70.6l-2-2L95.6 47a3.4 3.4 0 0 0 0-4.9L90 36.6a3.4 3.4 0 0 0-4.9 0l-3.7 3.7a1.8 1.8 0 0 0 2.5 2.5l3.6-3.6 5.5 5.5-12.8 12.8-5.5-5.5 3.6-3.6a1.8 1.8 0 1 0-2.5-2.5L63.5 58.2l-.8-.8a4.2 4.2 0 0 0-5.9 0l-3.2 3.2V45.8a3.6 3.6 0 0 0-3.5-3.5h-2V10a3.5 3.5 0 0 0-3.5-3.5H36a3.6 3.6 0 0 0-3.5 3.5v32.3H32a3.6 3.6 0 0 0-3.5 3.5v5.4a1.8 1.8 0 1 0 3.5 0v-5.4a0 0 0 0 1 0 0h11.6v39.8a39.4 39.4 0 0 1-11.6 28.1V59.2a1.8 1.8 0 0 0-3.5 0v26.6l-23 23a4.1 4.1 0 0 0 2.9 7h20v6.8a3.5 3.5 0 0 0 5.5 3 43.3 43.3 0 0 0 10.7-9.8H107a4.1 4.1 0 0 0 4.1-4.1V101a4.1 4.1 0 0 0-1.2-2.9l-3-3 16-16.4a3 3 0 0 0 .9-2.2zM107.8 89l-3.8-3.8.6-.6 3.8 3.8zm-23-22.2l5.5 5.5-1.5 1.5-5.5-5.5zM100 51.5l5.5 5.5-12.8 13-5.7-5.6zM80.6 70.8l5.5 5.5-2.2 2.2-5.5-5.5zm-3-11L76 61.3l-5.5-5.5 1.5-1.5zM68 58.3l5.5 5.5-2.2 2.2-5.5-5.5zM36 33h8.6v2.5H36zm0-23h8.5a0 0 0 0 1 0 0v19.5H36V10a0 0 0 0 1 0 0zm0 29h8.6v3.2H36zm-17 73l5.5-5.5A1.8 1.8 0 1 0 22 104l-8 8H8.3a.6.6 0 0 1-.4-1l20.4-20.4V112zm12.7 10.3a.1.1 0 0 1 0 0v-4a42.9 42.9 0 0 0 15.2-32.8V45.7h3a0 0 0 0 1 0 0V89a39.5 39.5 0 0 1-18.2 33.3zm75.7-21.6v10.7a.6.6 0 0 1-.6.6H68a.6.6 0 0 1-.4-1l6.5-6.5a1.8 1.8 0 1 0-2.5-2.5l-6.5 6.5a4.1 4.1 0 0 0-1.2 3.5H47q.7-1 1.4-2.3A43.2 43.2 0 0 0 53.7 89V65.5l5.7-5.7a.7.7 0 0 1 .9 0l5.6 5.6-4.8 4.8a1.8 1.8 0 1 0 2.5 2.5l4.8-4.8 2.5 2.5L57 84a1.8 1.8 0 1 0 2.5 2.5L73.3 73 87 86.7l-10 10a1.8 1.8 0 0 0 2.5 2.5l12.7-12.7a.7.7 0 0 1 .9 0l14 14a.7.7 0 0 1 .2.5zm-7-12.2l1-1 3.8 3.8-1 1zM111 86l-3.8-3.8 9.4-9.4 3.8 3.8zm-35 1.6a1.8 1.8 0 0 0-2.5 0L56 105.3a1.8 1.8 0 0 0 2.5 2.5L76 90a1.8 1.8 0 0 0 0-2.5zm-14.5 7.8a1.8 1.8 0 0 0 1.2-.5l2.7-2.7a1.8 1.8 0 0 0-2.5-2.5l-2.7 2.7a1.8 1.8 0 0 0 1.2 3zm22 8.2v3.3a2.9 2.9 0 0 0 2.9 2.9h10.7a2.9 2.9 0 0 0 2.9-2.9v-3.3a2.9 2.9 0 0 0-2.9-2.9H86.5a2.9 2.9 0 0 0-2.9 2.9zm3.5.6h9.5v2.2H87z"/></svg>