<svg xmlns="http://www.w3.org/2000/svg" viewBox="0 0 128 128" fill="#0e7490"><path d="M113 62.3H14a9.9 9.9 0 0 0-10 9.9v43.6a9.9 9.9 0 0 0 9.9 9.9h99a9.9 9.9 0 0 0 9.9-9.9V72.2a9.9 9.9 0 0 0-9.9-9.9zm6 53.6a6 6 0 0 1-6 6H14a6 6 0 0 1-5.9-6V72.2a6 6 0 0 1 6-6h99a6 6 0 0 1 6 6zM53.6 70.2H20a7.9 7.9 0 0 0-7.9 7.9v32a7.9 7.9 0 0 0 7.9 7.9h47.6a7.9 7.9 0 0 0 7.9-7.9v-2a2 2 0 0 0-4 0v2a4 4 0 0 1-4 4H20a4 4 0 0 1-4-4V78a4 4 0 0 1 4-4h33.7a17.9 17.9 0 0 1 17.7 18v2a2 2 0 0 0 4 0v-2a21.8 21.8 0 0 0-21.8-21.8zM37.7 88a6 6 0 1 0 6-6 6 6 0 0 0-6 6zm8 0a2 2 0 1 1-2-2 2 2 0 0 1 2 2zm45.6 0a6 6 0 1 0 6-6 6 6 0 0 0-6 6zm8 0a2 2 0 1 1-2-2 2 2 0 0 1 2 2z"/><path d="M107 70.2H87.3a7.9 7.9 0 0 0-7.9 7.9v32a7.9 7.9 0 0 0 7.9 7.9H107a7.9 7.9 0 0 0 7.9-7.9v-2a2 2 0 0 0-4 0v2a4 4 0 0 1-4 4H87.3a4 4 0 0 1-4-4V78a4 4 0 0 1 4-4H107a4 4 0 0 1 4 4v16a2 2 0 0 0 4 0V78a7.9 7.9 0 0 0-7.9-7.9zm12-43.6H79.4a7.9 7.9 0 0 0-7.9 7.9v2a2 2 0 1 0 4 0v-2a4 4 0 0 1 4-4H119v16h-8v-8a4 4 0 0 0-4-4H85.4a2 2 0 0 0 0 4H107v10a2 2 0 0 0 2 2h12a2 2 0 0 0 2-2v-18a4 4 0 0 0-4-4zM73.5 55a6.8 6.8 0 0 0 5.9 3.3h0a6.9 6.9 0 0 0 6.1-10l-3-6h.8a2 2 0 1 0 0-4h-8a2 2 0 0 0 0 4h.8l-3 6a6.8 6.8 0 0 0 .3 6.7zm8.3-2a2.9 2.9 0 0 1-2.5 1.4h0a2.9 2.9 0 0 1-2.6-4.2l2.6-5.2 2.7 5a2.9 2.9 0 0 1-.1 2.8zm39.2 1.3h-12a2 2 0 1 0 0 4h12a2 2 0 0 0 0-4zm0-47.6H81.4a2 2 0 0 0-2 2v6a2 2 0 0 0 1.8 2l26 1.8v2a2 2 0 0 0 2 2h12a2 2 0 0 0 2-2v-12a2 2 0 0 0-2-2zm-2 12h-8v-2a2 2 0 0 0-1.8-2l-26-1.8v-2H119z"/></svg>