<svg xmlns="http://www.w3.org/2000/svg" viewBox="0 0 128 128" fill="#0e7490"><path d="M70.7 89H102l-9.2-3.7a64 64 0 0 1-32-28.3l-.6-1H45.6A34.8 34.8 0 0 0 11 86.8l-.3 2.2h56v-4H15.2a31 31 0 0 1 30.4-25.2H58A68 68 0 0 0 83.5 85H70.7zm46.5-50.4a5.8 5.8 0 0 0-5.8 5.8v2h-7.7v19.4h-4V46.3H88.2v19.4h-4V46.3H72.7v15A59.4 59.4 0 0 1 61 40l-1.3-4.2-4 6.8a11.8 11.8 0 0 1-10.1 5.7A42.6 42.6 0 0 0 3 90.9a5.8 5.8 0 0 0 5.8 5.8H123V44.4a5.8 5.8 0 0 0-5.8-5.8zM92 69.6V50.2h4v19.4h11.6V50.2h4V82h-.3a59.3 59.3 0 0 1-30-12.4zM76.5 50.2h4V69c-1.3-1-2.6-2.2-4-3.4zM119 92.8H8.8a1.9 1.9 0 0 1-1.9-1.9 38.8 38.8 0 0 1 38.7-38.7 15.7 15.7 0 0 0 13-7 63.3 63.3 0 0 0 52 40.7l4.6.5v-42a2 2 0 1 1 3.9 0z"/></svg>