<svg xmlns="http://www.w3.org/2000/svg" viewBox="0 0 128 128" fill="#0e7490"><g id="surface1"><path d="M90.4,56.2846V34.9711a2.4674,2.4674,0,0,0-.68-1.62L65.8242,8.2591a2.3817,2.3817,0,0,0-1.7134-.7278H26.2252A12.6225,12.6225,0,0,0,13.6442,20.23V91.8692a12.5425,12.5425,0,0,0,12.581,12.605H56.13a32.28,32.28,0,1,0,34.27-48.19ZM66.4583,15.7705,82.49,32.6469H72.0915a5.67,5.67,0,0,1-5.6332-5.6564ZM26.2252,99.7794a7.8639,7.8639,0,0,1-7.8861-7.91V20.23a7.9287,7.9287,0,0,1,7.8861-8.0038H61.7634V26.9905A10.3484,10.3484,0,0,0,72.0915,37.3418H85.7053V55.6737c-.7037-.0232-1.2674-.0937-1.8775-.0937a32.7524,32.7524,0,0,0-21.4071,8.0752H32.61a2.347,2.347,0,1,0,0,4.694H58.0549a37.3459,37.3459,0,0,0-4.1312,7.2769H32.61a2.3475,2.3475,0,0,0,0,4.6949H52.3977A32.2145,32.2145,0,0,0,53.806,99.8034H26.2252Zm57.5794,15.7034a27.5808,27.5808,0,1,1,27.58-27.5807A27.6092,27.6092,0,0,1,83.8046,115.4828Z"/><path d="M32.61,56.59H56.388a2.3475,2.3475,0,0,0,0-4.6949H32.61a2.3475,2.3475,0,0,0,0,4.6949Z"/><path d="M93.3577,85.6955H86.1753v-7.3a2.3475,2.3475,0,0,0-4.6949,0v7.3h-7.3a2.3475,2.3475,0,1,0,0,4.6949h7.3v7.1824a2.3475,2.3475,0,1,0,4.6949,0V90.39h7.1824a2.3475,2.3475,0,0,0,0-4.6949Z"/></g></svg>