<svg xmlns="http://www.w3.org/2000/svg" viewBox="0 0 128 128" fill="#0e7490"><path d="M115 75.4h-14.6a1.8 1.8 0 1 0 0 3.5H115a1.8 1.8 0 1 0 0-3.5zm0 7.4h-14.6a1.8 1.8 0 1 0 0 3.5H115a1.8 1.8 0 1 0 0-3.5zm0 7.2h-14.6a1.8 1.8 0 1 0 0 3.5H115a1.8 1.8 0 1 0 0-3.5zm7.2-26a1.8 1.8 0 0 0 1.8-1.8V27.6a3.4 3.4 0 0 0-3.4-3.4H6.8a3.4 3.4 0 0 0-3.4 3.4v70a3.4 3.4 0 0 0 3.4 3.4h4v5.6a1.8 1.8 0 0 0 1.8 1.8H27a1.8 1.8 0 0 0 1.8-1.8V101h12.7a1.8 1.8 0 0 0 0-3.5H7V27.7h84.3v69.6h-42a1.8 1.8 0 1 0 0 3.5h49.3v5.6a1.8 1.8 0 0 0 1.8 1.8H115a1.8 1.8 0 0 0 1.8-1.8V101h4a3.4 3.4 0 0 0 3.4-3.4V70a1.8 1.8 0 0 0-3.5 0v27.3h-26V27.7h25.7v34.6a1.8 1.8 0 0 0 1.8 1.8zm-97 36.8v3.8h-11V101zm87.8 0v3.8h-11V101zM67.2 35a1.8 1.8 0 1 0 0-3.5H12.5a1.8 1.8 0 0 0-1.8 1.8v58.5a1.8 1.8 0 0 0 1.8 1.8h73.2a1.8 1.8 0 0 0 1.8-1.8V33.3a1.8 1.8 0 0 0-1.8-1.8H75a1.8 1.8 0 1 0 0 3.5h9v18.4h-4v-13a1.8 1.8 0 0 0-1.8-1.8H19.8a1.8 1.8 0 0 0-1.8 1.8v44a1.8 1.8 0 0 0 1.8 1.8h58.5a1.8 1.8 0 0 0 1.8-1.8v-13h4V90H14.2V35zm9.4 47.7h-55V42.4h55zM80 68V57h4v11zm34-33.7v-.1-.1a9.1 9.1 0 1 0 .2.2zm-6.5 12a5.6 5.6 0 1 1 2.5-10.5l-3.7 3.7a1.8 1.8 0 1 0 2.5 2.5l3.7-3.7a5.6 5.6 0 0 1-5 8zm.1 7.2a9.1 9.1 0 1 0 9.1 9.1 9.1 9.1 0 0 0-9.1-9.1zm1.8 14.3v-5.3a1.8 1.8 0 1 0-3.5 0v5.3a5.6 5.6 0 1 1 3.5 0z"/></svg>