<svg xmlns="http://www.w3.org/2000/svg" viewBox="0 0 128 128" fill="#0e7490"><path d="M33.8 42.8a6 6 0 0 0 5.6-4.1H54a1.9 1.9 0 1 0 0-3.8H39.5a6 6 0 1 0-5.6 7.9zm0-8a2.2 2.2 0 1 1-2.2 2.2 2.2 2.2 0 0 1 2.2-2.2zM121 61.3H92.6V57H103a6 6 0 0 0 6-6V38.8A30.3 30.3 0 0 0 78.5 8.5h-52C15.3 8.5 6 17.3 5.7 28.2a20.2 20.2 0 0 0 16.7 20.4L23 51a6 6 0 0 0 .9 1.7 1.9 1.9 0 0 0-.1.3l-5.6 54.4A8.3 8.3 0 0 1 15 113l-3 2.2a6 6 0 0 0-2.4 4.8v2a1.9 1.9 0 0 0 1.9 1.9H111a1.9 1.9 0 0 0 1.9-1.9v-2a8 8 0 0 0-8-8h-2c-.6-.2-1.7-.8-2.3-3a9.4 9.4 0 0 1-.2-1.6A24.3 24.3 0 0 0 121 83.5V65h.1a1.9 1.9 0 0 0 0-3.8zm-32.3 0H60.2a1.9 1.9 0 0 0 0 3.8h.1v18.4a24.3 24.3 0 0 0 20.3 23.9 6.6 6.6 0 0 1-1.2 3.7 46.9 46.9 0 0 1-37.6-45.9V53a1.9 1.9 0 0 0-.1-.5 6 6 0 0 0 .9-1.7l.7-2h29.2V51a6 6 0 0 0 6 6h10.3v4.3zm14-8H78.5a2.2 2.2 0 0 1-2.2-2.2v-2H105v2a2.2 2.2 0 0 1-2.2 2.2zM13.5 39.5a16.3 16.3 0 0 1-4.1-11.2c.2-8.8 7.8-16 17-16h52a26.5 26.5 0 0 1 26.2 22.6H62.3a1.9 1.9 0 0 0 0 3.8H105v.1V45H42a1.9 1.9 0 0 0-1.8 1.3l-1 3.3a2.2 2.2 0 0 1-2 1.5H29a2.2 2.2 0 0 1-2-1.5l-1-3.4a1.9 1.9 0 0 0-1.6-1.3 16.3 16.3 0 0 1-10.5-5.4zM109 120h0-95.6 0a2.2 2.2 0 0 1 .9-1.7l3-2.2a12.1 12.1 0 0 0 4.8-8.4l5.5-53a6 6 0 0 0 1.2.1H37a6 6 0 0 0 1-.1V65a50.7 50.7 0 0 0 50.6 50.6h14.2 0 0 2a4.2 4.2 0 0 1 4.2 4.2zm-12-10.3a9.8 9.8 0 0 0 .8 2.3h-9.3a47.1 47.1 0 0 1-5.1-.3 10.8 10.8 0 0 0 .8-2.9 14 14 0 0 0 .1-1.1h.1 12.2.1a13.3 13.3 0 0 0 .3 2zm20-26.3a20.4 20.4 0 0 1-20.4 20.4h-12a20.4 20.4 0 0 1-20.4-20.4V65h24.6v1.6c-2 2.7-10 15-10 23a12 12 0 0 0 24.1 0c0-7.6-8.3-20.2-10-23V65h24.6zm-34.7 6c0-4.2 3.4-11 6.3-16v24a8.3 8.3 0 0 1-6.3-8zm10-15.8c3 5 6.3 11.7 6.3 15.8a8.3 8.3 0 0 1-6.3 8zm-10-52.8a18.4 18.4 0 0 1 12.2 8.8 1.9 1.9 0 0 0 3.3-1.9 22.2 22.2 0 0 0-14.8-10.6 1.9 1.9 0 0 0-.8 3.7zm-11.8-.4h4a1.9 1.9 0 1 0 0-3.8h-4a1.9 1.9 0 1 0 0 3.8zm37.6 72a1.9 1.9 0 0 0 2.6-.6 16.1 16.1 0 0 0 2.3-8.3V71.3a1.9 1.9 0 1 0-3.8 0v12.2a12.3 12.3 0 0 1-1.8 6.3 1.9 1.9 0 0 0 .6 2.6z"/></svg>