<svg xmlns="http://www.w3.org/2000/svg" viewBox="0 0 128 128" fill="#0e7490"><path d="M121.8 26.7L115 15.3V10a1.7 1.7 0 0 0-1.7-1.7H61a1.7 1.7 0 0 0-1.7 1.7v5.4l-6.7 11.3a1.7 1.7 0 0 0-.2.9V79h-.6a6.1 6.1 0 0 0-6.2-2.9 6.1 6.1 0 0 0-9.4 0 6.2 6.2 0 0 0-1-.1 6.1 6.1 0 0 0-3.3 1l-5.3-12.8a4.6 4.6 0 0 0-4.3-2.9 4.6 4.6 0 0 0-1.8.4 4.7 4.7 0 0 0-2.5 6.1l5 12.7a8.1 8.1 0 0 0-2 2.2 9.1 9.1 0 0 0-8.1 5.1H7.7A1.7 1.7 0 0 0 6 89.4v.2L8.3 112a13.4 13.4 0 0 0 13.4 12.1h98.6a1.7 1.7 0 0 0 1.7-1.7v-95a1.7 1.7 0 0 0-.2-.9zm-46.2 63a1.7 1.7 0 0 0-1.5-1.9 1.7 1.7 0 0 0-.2 0h-5.4a9.1 9.1 0 0 0-8.1-5.1 8 8 0 0 0-4.6-3.5v-28h62.8v50h-44zm43-60.3V48H55.8V29.3zm-7-17.6V14h-49v-2.4zm-49.7 6h50.4l5 8.3H57zm-27 62a2.6 2.6 0 0 1 1.1.2 1.7 1.7 0 0 0 2.2-.8 2.7 2.7 0 0 1 4.8 0 1.7 1.7 0 0 0 2.2.8 2.6 2.6 0 0 1 1.1-.2 2.7 2.7 0 0 1 2.6 2.1 1.7 1.7 0 0 0 2.4 1.2 4.6 4.6 0 0 1 2-.5 4.6 4.6 0 0 1 4.3 2.9 1.7 1.7 0 0 0 1.8 1h.7a5.7 5.7 0 0 1 4 1.7H36l-3-7.5a2.7 2.7 0 0 1 2-.9zm-13.2-15a1.3 1.3 0 0 1 1.6.7l9.3 22.2H30l-9-21.3a1.2 1.2 0 0 1 .7-1.6zM21.3 86h.7a1.7 1.7 0 0 0 1.8-1 4.6 4.6 0 0 1 .8-1.2l1.6 4h-9a5.7 5.7 0 0 1 4-1.7zM72 91l-.2 2.4H10L9.6 91zm-60.3 20.6L10.2 97h61.2L70 111.8a10 10 0 0 1-10 9H21.7a10 10 0 0 1-10-9zm57.3 9a13.4 13.4 0 0 0 4.4-8.7l.7-7.3h44.5v16zm45.4-77a1.7 1.7 0 0 0 1.7-1.7v-6a1.7 1.7 0 1 0-3.4 0v6a1.7 1.7 0 0 0 1.7 1.7zm-13 30.8a1.7 1.7 0 0 0-1.5-1.6 17.5 17.5 0 0 0 1.5-7.6 1.7 1.7 0 0 0-1.6-1.6 17.8 17.8 0 0 0-6.5 1v-.2c0-5.6-4.8-10-5-10a1.7 1.7 0 0 0-2.3 0c-.2.2-5 4.5-5 10v.2a17.9 17.9 0 0 0-6.5-1 1.7 1.7 0 0 0-1.6 1.6 17.5 17.5 0 0 0 1.5 7.6 1.7 1.7 0 0 0-1.5 1.6c0 .3-.3 6.7 3.6 10.7 2.7 2.7 6.6 3.4 8.8 3.6v8.7a1.7 1.7 0 0 0 3.4 0v-8.7c2.3-.2 6-1 8.8-3.6 4-4 3.6-10.4 3.6-10.7zM95.6 73a12.7 12.7 0 0 0-6.5 3.2l-.2.2a14 14 0 0 1 .7-3.6 8.3 8.3 0 0 1 1.9-3.3l.4-.4a11.1 11.1 0 0 1 5.9-2.2 11 11 0 0 1-2.2 6zM87 58a10.6 10.6 0 0 1 2.7 6.3 7.6 7.6 0 0 1-.5 2.6l-.3.3a10.8 10.8 0 0 0-1.9 2.7 10.7 10.7 0 0 0-1.9-2.7L85 67a7.6 7.6 0 0 1-.5-2.6 10.6 10.6 0 0 1 2.7-6.3zm-4.7 11l.4.4a8.3 8.3 0 0 1 1.9 3.3 14 14 0 0 1 .7 3.6l-.2-.2a12.7 12.7 0 0 0-6.5-3.2 10.9 10.9 0 0 1-2.3-6.1 11.1 11.1 0 0 1 5.9 2.2zM79 82.5c-1.8-1.8-2.4-4.6-2.6-6.4a10.6 10.6 0 0 1 6.4 2.6 10.5 10.5 0 0 1 2.6 6.4c-1.8-.2-4.6-.7-6.4-2.5zM89 85a10.6 10.6 0 0 1 2.6-6.4c1.8-1.8 4.6-2.4 6.4-2.5-.2 1.8-.7 4.5-2.5 6.4S90.7 85 89 85z"/></svg>