<svg xmlns="http://www.w3.org/2000/svg" xmlns:xlink="http://www.w3.org/1999/xlink" viewBox="0 0 128 128" fill="#0e7490"><path d="M122.2 20.5a5.3 5.3 0 0 0-5.3-5.3h-11.4v-3.4a4.1 4.1 0 0 0-4.1-4.1H77.8a4.1 4.1 0 0 0-4.1 4.1v3.4h-20v-3.4a4.1 4.1 0 0 0-4.1-4.1H26a4.1 4.1 0 0 0-4.1 4.1v3.4H10.4a5.3 5.3 0 0 0-5.3 5.3V32a5.3 5.3 0 0 0 1.4 3.6A5.3 5.3 0 0 0 5.1 39v70a5.3 5.3 0 0 0 5.3 5.3h.5v5a5.3 5.3 0 0 0 5.3 5.3h53.2a1.7 1.7 0 1 0 0-3.4H16.2a1.9 1.9 0 0 1-1.9-1.9v-5H113v5a1.9 1.9 0 0 1-1.9 1.9H77.4a1.7 1.7 0 1 0 0 3.4H111a5.3 5.3 0 0 0 5.3-5.3v-5h.5a5.3 5.3 0 0 0 5.3-5.3V39a5.3 5.3 0 0 0-1.4-3.6 5.3 5.3 0 0 0 1.4-3.6zm-45-8.7a.7.7 0 0 1 .7-.7h23.6a.7.7 0 0 1 .7.7v3.4H77zm-52 0a.7.7 0 0 1 .7-.7h23.6a.7.7 0 0 1 .7.7v3.4h-25zm93.5 97.2a1.9 1.9 0 0 1-1.9 1.9H10.4a1.9 1.9 0 0 1-1.9-1.9V39a1.9 1.9 0 0 1 1.9-1.9H117a1.9 1.9 0 0 1 1.9 1.9zm0-77a1.9 1.9 0 0 1-1.9 1.9H10.4a1.9 1.9 0 0 1-1.9-1.9V20.5a1.9 1.9 0 0 1 1.9-1.9H117a1.9 1.9 0 0 1 1.9 1.9z"/><use xlink:href="#B"/><use xlink:href="#B" x="16.6"/><use xlink:href="#B" x="51.8"/><use xlink:href="#B" x="68.6"/><path d="M104.5 47h-50a1.7 1.7 0 1 0 0 3.4h50a.6.6 0 0 1 .6.6v4.5a.6.6 0 0 1-.6.6H22.8a.6.6 0 0 1-.6-.6V51a.6.6 0 0 1 .6-.6h24a1.7 1.7 0 1 0 0-3.4h-24a4 4 0 0 0-4 4v4.5a4 4 0 0 0 4 4H25v38a5.9 5.9 0 0 0 5.9 5.9h65.3a5.9 5.9 0 0 0 5.9-5.9v-38h2.3a4 4 0 0 0 4-4V51a4 4 0 0 0-4-4zm-5.7 50.7a2.5 2.5 0 0 1-2.5 2.5H31a2.5 2.5 0 0 1-2.5-2.5v-38h70.3zM40 75a1.7 1.7 0 0 0 1.3-.6l5.3-5.7a1.7 1.7 0 0 0-2.5-2.3L38.8 72a1.7 1.7 0 0 0 1.3 2.9zm.4 6.8a1.7 1.7 0 0 0 2.4-.1L53.6 70a1.7 1.7 0 0 0-2.5-2.3L40.3 79.4a1.7 1.7 0 0 0 .1 2.4z"/><defs ><path id="B" d="M29.4 20.3a5.9 5.9 0 1 0 5.9 5.9 5.9 5.9 0 0 0-5.9-5.9zm0 8.4a2.5 2.5 0 1 1 2.5-2.5 2.5 2.5 0 0 1-2.5 2.5z"/></defs></svg>