<svg xmlns="http://www.w3.org/2000/svg" viewBox="0 0 128 128" fill="#0e7490"><path d="M93.5052,20.8308H95.16v1.6543a2.3633,2.3633,0,0,0,4.7265,0V20.8308H101.54a2.3633,2.3633,0,0,0,0-4.7266H99.886V14.45a2.3633,2.3633,0,1,0-4.7265,0v1.6543H93.5052a2.3633,2.3633,0,1,0,0,4.7266Z"/><path d="M21.0706,79.1962H19.4163V77.5419a2.3633,2.3633,0,0,0-4.7266,0v1.6543H13.0355a2.3633,2.3633,0,0,0,0,4.7266H14.69v1.6543a2.3633,2.3633,0,0,0,4.7266,0V83.9228h1.6543a2.3633,2.3633,0,1,0,0-4.7266Z"/><path d="M120.64,83.2138h-1.6543V81.56a2.3633,2.3633,0,0,0-4.7266,0v1.6543h-1.6543a2.3633,2.3633,0,0,0,0,4.7266h1.6543v1.6543a2.3633,2.3633,0,1,0,4.7266,0V87.94H120.64a2.3633,2.3633,0,0,0,0-4.7266Z"/><path d="M95.0933,73.6676l23.668-17.117a10.21,10.21,0,0,0-5.9833-18.4828H83.5643l-8.94-27.6558a10.21,10.21,0,0,0-19.43,0l-8.94,27.6556H17.0408A10.21,10.21,0,0,0,11.0574,56.55l23.668,17.117-9.0582,27.6738A10.1068,10.1068,0,0,0,30,113.1927v8.7865a2.3634,2.3634,0,0,0,2.3633,2.3633H54.2747a2.3633,2.3633,0,0,0,0-4.7266H34.7268V112.25a12.9545,12.9545,0,0,1,12.94-12.94h8.959l6.1332,13.47a2.3632,2.3632,0,0,0,4.3016,0l6.1332-13.47h8.9592a12.9546,12.9546,0,0,1,12.94,12.94v7.3659H75.5443a2.3633,2.3633,0,0,0,0,4.7266H97.4556a2.3634,2.3634,0,0,0,2.3633-2.3633v-8.7865a10.107,10.107,0,0,0,4.3329-11.8516Zm-41.3468-.9009H70.117a12.8212,12.8212,0,0,0,5.9557-1.4622v5.3023c0,7.217-4.6947,12.4552-11.163,12.4552a11.1757,11.1757,0,0,1-11.163-11.1632V72.7667ZM78.2951,59.862A8.1873,8.1873,0,0,1,70.117,68.04H53.7465V64.5179A8.1871,8.1871,0,0,1,61.9244,56.34H78.2951ZM64.9095,106.0984l-4.4-9.6634V93.1642a15.8648,15.8648,0,0,0,8.8.0045V96.435ZM99.1364,107.4A17.694,17.694,0,0,0,82.1527,94.584H74.036V90.8453a17.3434,17.3434,0,0,0,6.763-14.2385V67.0939a12.83,12.83,0,0,0,2.2224-7.2321V53.9763a2.3633,2.3633,0,0,0-2.3633-2.3633H61.9242A12.9192,12.9192,0,0,0,49.02,64.5177V77.8986a15.8787,15.8787,0,0,0,6.763,12.9952v3.69H47.6663A17.6943,17.6943,0,0,0,30.6823,107.4a5.2843,5.2843,0,0,1-.5232-4.589l9.5951-29.313a2.3629,2.3629,0,0,0-.8611-2.65L13.8276,52.7206a5.4831,5.4831,0,0,1,3.2132-9.9262H47.9747a2.3638,2.3638,0,0,0,2.2489-1.6363l9.4685-29.292a5.4831,5.4831,0,0,1,10.4348,0l9.4685,29.2921a2.3639,2.3639,0,0,0,2.2489,1.6364h30.9339a5.4831,5.4831,0,0,1,3.2131,9.9262L90.9257,70.8482a2.3639,2.3639,0,0,0-.8612,2.65L99.66,102.8113a5.2852,5.2852,0,0,1-.5233,4.5891Z"/><path d="M64.9095,119.6159a2.3647,2.3647,0,1,0,1.6706.6925A2.3812,2.3812,0,0,0,64.9095,119.6159Z"/></svg>