<svg xmlns="http://www.w3.org/2000/svg" viewBox="0 0 128 128" fill="#0e7490"><path d="M105 21.3a38.9 38.9 0 0 0-24.2-8.5H46.3A38.9 38.9 0 0 0 22 21.3a2 2 0 0 0-.8 1.6v4a2 2 0 0 0 2 2H104a2 2 0 0 0 2-2v-4a2 2 0 0 0-.8-1.6zM55.5 25v-2h16v2zm46.3 0h-26v-4a2 2 0 0 0-2-2h-20a2 2 0 0 0-2 2v4H25.3v-1a34.9 34.9 0 0 1 21-7H81a34.9 34.9 0 0 1 21 7zm17.7-3.6l-4.4-2.2A50.2 50.2 0 0 0 79.9 4.7H47.3A50.2 50.2 0 0 0 12 19.2l-4.4 2.2a8 8 0 0 0-4.5 7.2v24A6 6 0 0 0 6.5 58l4.7 2.4V114a5.5 5.5 0 0 0 4 5.3v4.2a2 2 0 0 0 2 2h8a2 2 0 0 0 2-2v-4h72.5v4a2 2 0 0 0 2 2h8a2 2 0 0 0 2-2v-4.2a5.5 5.5 0 0 0 4-5.3V60.4l4.7-2.4a6 6 0 0 0 3.3-5.4v-24a8 8 0 0 0-4.5-7.2zM112 59v48.3H15.2V49h30.2v30.2a18.1 18.1 0 0 0 36.3 0V49H112zM49.5 49h28.2v30.2a14.1 14.1 0 1 1-28.2 0zM7.2 45v-8H120v8zm0-16.4A4 4 0 0 1 9.4 25l4.7-2.4a2 2 0 0 0 .5-.4A45.8 45.8 0 0 1 47.3 8.8H80a45.8 45.8 0 0 1 32.6 13.5 2 2 0 0 0 .5.4l4.7 2.4a4 4 0 0 1 2.2 3.6V33H7.2zm1 25.8a2 2 0 0 1-1.1-1.8V49h4v7zm15 67.2h-4v-2h4zm84.6 0h-4v-2h4zm4-7.6a1.5 1.5 0 0 1-1.5 1.5H16.7a1.5 1.5 0 0 1-1.5-1.5v-2.5H112zm8-61.4a2 2 0 0 1-1.1 1.8l-3 1.5v-7h4zM21.3 81.3a2 2 0 0 0-2 2v2a2 2 0 1 0 4 0v-2a2 2 0 0 0-2-2zm0 10a2 2 0 0 0-2 2v8a2 2 0 1 0 4 0v-8a2 2 0 0 0-2-2zm42.3-22a8.1 8.1 0 1 0-8.1-8.1 8.1 8.1 0 0 0 8.1 8.1zm0-12a4 4 0 1 1-4 4 4 4 0 0 1 4-4zm0 32a8.1 8.1 0 1 0-8.1-8.1 8.1 8.1 0 0 0 8.1 8.1zm0-12a4 4 0 1 1-4 4 4 4 0 0 1 4-4z"/></svg>