<svg xmlns="http://www.w3.org/2000/svg" xmlns:xlink="http://www.w3.org/1999/xlink" viewBox="0 0 128 128" fill="#0e7490"><use xlink:href="#B"/><use xlink:href="#B" x="24.8"/><path d="M119 81h-3.2v-4a5.3 5.3 0 0 0-5.3-5.3h-22a1.8 1.8 0 1 0 0 3.5h22a1.8 1.8 0 0 1 1.8 1.8v4H69v-4a1.8 1.8 0 0 1 1.8-1.8h10.7a1.8 1.8 0 1 0 0-3.5H71a5.3 5.3 0 0 0-5.3 5.3v4h-4v-4a5.3 5.3 0 0 0-5.3-5.3h-40a5.3 5.3 0 0 0-5.3 5.3v4H8a5 5 0 0 0-5 5v22.6a5 5 0 0 0 5 5h2.8v4.3a4.4 4.4 0 0 0 4.4 4.4h75a1.8 1.8 0 1 0 0-3.5H15a.8.8 0 0 1-.8-.8v-4.3h98.3v4.3a.8.8 0 0 1-.8.8H97a1.8 1.8 0 1 0 0 3.5h14.6a4.4 4.4 0 0 0 4.4-4.4v-4.3h3a5 5 0 0 0 5-5V86a5 5 0 0 0-5-5zM14.7 77a1.8 1.8 0 0 1 1.8-1.8H56a1.8 1.8 0 0 1 1.8 1.8v4h-43zm105.8 31.5a1.4 1.4 0 0 1-1.4 1.4H8a1.4 1.4 0 0 1-1.4-1.4V86A1.4 1.4 0 0 1 8 84.6h111a1.4 1.4 0 0 1 1.4 1.4zm-12.3-16h-9a1.8 1.8 0 0 0 0 3.5h9a1.8 1.8 0 1 0 0-3.5z"/><path d="M108.2 99.3h-9a1.8 1.8 0 0 0 0 3.5h9a1.8 1.8 0 1 0 0-3.5zm-23.2-7h-9a1.8 1.8 0 1 0 0 3.5h9a1.8 1.8 0 0 0 0-3.5zm0 7h-9a1.8 1.8 0 1 0 0 3.5h9a1.8 1.8 0 0 0 0-3.5zm34.2-71h-4l-9-21.2a1.8 1.8 0 0 0-1.6-1.1H36.3a1.8 1.8 0 0 0 0 3.5h67l8 18.8H15.6l8-18.8h5.7a1.8 1.8 0 0 0 0-3.5h-6.8a1.8 1.8 0 0 0-1.6 1.1l-9 21.2H8A4.8 4.8 0 0 0 3 33.2V45a4.8 4.8 0 0 0 4.8 4.8h111.4A4.8 4.8 0 0 0 124 45V33.2a4.8 4.8 0 0 0-4.8-4.8zM43.8 46.2v-5a.5.5 0 0 1 .5-.5h38.4a.5.5 0 0 1 .5.5v5zm76.6-1.3a1.3 1.3 0 0 1-1.3 1.3H86.7v-5a4 4 0 0 0-4-4H44.3a4 4 0 0 0-4 4v5H7.8a1.3 1.3 0 0 1-1.3-1.3V33.2a1.3 1.3 0 0 1 1.3-1.3h111.4a1.3 1.3 0 0 1 1.3 1.3V45zM58 17.7h11a1.8 1.8 0 1 0 0-3.5H58a1.8 1.8 0 0 0 0 3.5zm0 7h11a1.8 1.8 0 1 0 0-3.5H58a1.8 1.8 0 1 0 0 3.5z"/><defs ><path id="B" d="M31 89l-1.4 1.3a8.8 8.8 0 0 0-12.6 11.7l-1.5 1.4a1.8 1.8 0 0 0 2.4 2.6l1.6-1.4a8.8 8.8 0 0 0 12.5-11.6l1.5-1.4a1.8 1.8 0 0 0-2.4-2.6zm-12 8.3a5.2 5.2 0 0 1 7.9-4.5l-7.3 6.8a5.2 5.2 0 0 1-.6-2.3zm10.4 0a5.2 5.2 0 0 1-7.3 4.8l7-6.5a5.2 5.2 0 0 1 .3 1.7z"/></defs></svg>