<svg xmlns="http://www.w3.org/2000/svg" viewBox="0 0 128 128" fill="#0e7490"><path d="M54 74a4.5 4.5 0 0 0 4.5-4.5V21a4.5 4.5 0 0 0-4.5-4.5H25.2a4.5 4.5 0 0 0-4.5 4.5v48.6a4.5 4.5 0 0 0 4.5 4.5zm-29.3-4.5V21a.5.5 0 0 1 .5-.5H54a.5.5 0 0 1 .5.5v48.6a.5.5 0 0 1-.5.5H25.2a.5.5 0 0 1-.5-.5zm4-3.5h21.8a2 2 0 0 0 2-2v-8a2 2 0 0 0-2-2H28.6a2 2 0 0 0-2 2v8a2 2 0 0 0 2 2zm2-8h18v4h-18zm-2-15.7h21.8a2 2 0 0 0 2-2v-14a2 2 0 0 0-2-2H28.6a2 2 0 0 0-2 2v14a2 2 0 0 0 2 2zm2-14h18v10h-18zm52 2a4.5 4.5 0 0 0-4.5 4.5v34.7a4.5 4.5 0 0 0 4.5 4.5h19a4.5 4.5 0 0 0 4.5-4.5V35a4.5 4.5 0 0 0-4.5-4.5zM102 69.6a.5.5 0 0 1-.5.5h-19a.5.5 0 0 1-.5-.5v-.4l4.6-3h10.7l4.6 3zm0-5.2l-3-2a2 2 0 0 0-1.1-.3H86a2 2 0 0 0-1.1.3l-3 2v-18h8v4h4v-4h8zm0-29.5v7.4H82V35a.5.5 0 0 1 .5-.5h19a.5.5 0 0 1 .5.5zm4-20.4a2 2 0 0 0-2-2H93a7 7 0 0 0-6.9 6.9v3a2 2 0 0 0 2 2h11a7 7 0 0 0 6.9-6.9zm-4 3a3 3 0 0 1-3 3h-9v-1a3 3 0 0 1 3-3h9zM26.7 46.3h4v4h-4zm21.8 0h4v4h-4zm-14 0h10v4h-10zM116 74V9a4.5 4.5 0 0 0-4.5-4.5H17.2A4.5 4.5 0 0 0 12.7 9v7.4h4V9a.5.5 0 0 1 .5-.5h45.2V84H16.7V20.5h-4v98.8a4.5 4.5 0 0 0 4.5 4.5h6a4.4 4.4 0 0 0 4-2.5l2.7-5.5h69l2.7 5.5a4.4 4.4 0 0 0 4 2.5h6a4.5 4.5 0 0 0 4.5-4.5V78h-4v6H66.4V74H68a4.5 4.5 0 0 0 4.5-4.5V42.3h-4v27.3a.5.5 0 0 1-.5.5h-1.5V28.4H68a.5.5 0 0 1 .5.5v9.4h4V29a4.5 4.5 0 0 0-4.5-4.5h-1.5v-16h45.2a.5.5 0 0 1 .5.5v65zm-92.4 45.4a.5.5 0 0 1-.4.3h-6a.5.5 0 0 1-.5-.5v-3.5h8.7zM62.4 106H61a.5.5 0 0 1-.5-.5v-11a.5.5 0 0 1 .5-.5h1.5zm0-16H61a4.5 4.5 0 0 0-4.5 4.5v11A4.5 4.5 0 0 0 61 110h1.5v2H16.7V88h45.7zm4 4H68a.5.5 0 0 1 .5.5v11a.5.5 0 0 1-.5.5h-1.5zm45.7 25.3a.5.5 0 0 1-.5.5h-6a.5.5 0 0 1-.4-.3l-1.8-3.7h8.7zm0-31.3v23.8H66.4v-2H68a4.5 4.5 0 0 0 4.5-4.5v-11a4.5 4.5 0 0 0-4.5-4.5h-1.5v-2zm-91.4 16h4v4h-4zm0-12h4v4h-4zm83.3 12h4v4h-4zm0-12h4v4h-4z"/></svg>