<svg xmlns="http://www.w3.org/2000/svg" viewBox="0 0 128 128" fill="#0e7490"><path d="M55.5 5.7l1 .4a9.1 9.1 0 0 1 6.6 8.9q0 14.4 0 29 0 34.6 0 69.2c0 4.5-2.6 8-6.7 9.3a3 3 0 0 0-1 .4H23a1.3 1.3 0 0 0-.3-.2c-5-1.7-7-4.7-7-9.8q0-19 0-37.8 0-30 0-59.7a9.1 9.1 0 0 1 6.5-9A5.7 5.7 0 0 0 23 6zm4 89.6v-73h-40v73zm0 3.7h-40v10.8h40zm-40-80.6h40.2v-3.6a5.5 5.5 0 0 0-5.5-5.5h-5q-12 0-24 0a5.5 5.5 0 0 0-5.6 5.1v4zm0 95.2a5.3 5.3 0 0 0 5.2 5.4q14.8.1 29.7 0a5.4 5.4 0 0 0 5.2-5.4zm55 9a7.2 7.2 0 0 0-.9-.4 9.1 9.1 0 0 1-6.4-8.9q0-12.5 0-25c0-1.6.6-2.3 2.3-2.3q21.5 0 43 0c1.7 0 2.3.6 2.3 2.4q0 12.3 0 24.7c0 5-2.8 8.3-7.7 9.3 0 0-.1.1-.1.2zm-3.6-13h40V99h-40zm0-14.6H111v-5.4H70.6V95zm0 18.4a5.4 5.4 0 0 0 5.5 5.4h14 15.2a5.3 5.3 0 0 0 5.5-5.4zM70.6 80a7.4 7.4 0 0 1 1.8-4.4 29.7 29.7 0 0 0 2.3-2.5 9.9 9.9 0 0 0 1.4-3.1c.3-1.3 1-2 2-2s1.8 1 1.7 2.3a7.5 7.5 0 0 1-1.7 4.6l-2.3 2.5a4.9 4.9 0 0 0-1.4 3.2 1.8 1.8 0 0 1-1.9 2c-1 0-1.8-1-1.8-2.5zm20-9.8a7.8 7.8 0 0 1-2 4.9l-2 2.2a4.9 4.9 0 0 0-1.4 3.2 1.8 1.8 0 0 1-1.9 2 1.9 1.9 0 0 1-1.7-2.1 7.5 7.5 0 0 1 1.8-4.8c.7-.8 1.5-1.6 2.2-2.4a4.9 4.9 0 0 0 1.5-3.2c.1-1.3 1-2 2-2 1 .1 1.7 1 1.7 2.4zm22 .1a7.9 7.9 0 0 1-2.1 4.9l-2 2.2a4.8 4.8 0 0 0-1.4 3.2c-.1 1.3-.8 2-2 2-1 0-1.8-1-1.8-2.2a7.5 7.5 0 0 1 1.7-4.7 32.1 32.1 0 0 0 2.3-2.5 9.8 9.8 0 0 0 1.4-3.1c.3-1.3 1-2 2-2 1 .1 1.8 1 1.7 2.4zm-20 9.7a7.5 7.5 0 0 1 1.7-4.4c.7-1 1.5-1.7 2.3-2.5a5 5 0 0 0 1.4-3.3 1.8 1.8 0 0 1 1.9-2 1.8 1.8 0 0 1 1.8 2.1 7.6 7.6 0 0 1-1.8 4.8l-2.3 2.5a4.8 4.8 0 0 0-1.4 3.1c-.1 1.3-1 2-2 2s-1.7-1-1.7-2.5zm-60.3-9.8V57.6a1.4 1.4 0 0 0-.7-1.4 14.6 14.6 0 0 1 8.9-26.8 14.6 14.6 0 0 1 7.3 26.7 1.7 1.7 0 0 0-.9 1.6v24.7a6.9 6.9 0 0 1-4.3 6.6 6.9 6.9 0 0 1-7.7-1 7 7 0 0 1-2.7-5.7v-12zm3.7-1v13.3a3.7 3.7 0 1 0 7.3-.1V56.6a3 3 0 0 1 1.8-3.1 10.8 10.8 0 0 0 5.2-12.2 10.9 10.9 0 0 0-21.2-.1 10.8 10.8 0 0 0 5.3 12.3 2.8 2.8 0 0 1 1.7 2.9V69zm3.5-17.8a7.3 7.3 0 0 1-7-9.2c.4-1.3 1.3-2 2.3-1.7s1.6 1.2 1.3 2.6a3.6 3.6 0 1 0 7 0c-.3-1.4.1-2.4 1.2-2.6 1-.3 2 .4 2.4 1.8a7.3 7.3 0 0 1-7.2 9.2zm2 27.4v1.8a1.8 1.8 0 0 1-3.6 0V77a1.8 1.8 0 0 1 3.6 0v1.8zm-.1-38.4v2a1.8 1.8 0 0 1-1.8 1.7 1.8 1.8 0 0 1-1.8-1.7v-4a1.8 1.8 0 0 1 3.6 0 16.3 16.3 0 0 1 0 2zm-1.7 29.3a1.8 1.8 0 1 1-1.9 1.8 1.8 1.8 0 0 1 1.9-1.7zm1.7-9.2a1.8 1.8 0 1 1-3.6 0 1.8 1.8 0 0 1 3.6 0zm-1.8 7.3a1.8 1.8 0 1 1 1.8-1.8 1.8 1.8 0 0 1-1.8 1.8z"/></svg>