<svg xmlns="http://www.w3.org/2000/svg" viewBox="0 0 128 128" fill="#0e7490"><path d="M63.4187,17.0458a1.95,1.95,0,0,0,1.95-1.95V7.2966a1.95,1.95,0,0,0-3.9,0v7.7993A1.95,1.95,0,0,0,63.4187,17.0458Z"/><path d="M39.307,14.2809l3.9,6.7523a1.95,1.95,0,1,0,3.39-1.9277l-.0129-.0224-3.9-6.7523a1.95,1.95,0,1,0-3.39,1.9277Z"/><path d="M23.5845,31.3954l.0224.0129,6.7523,3.9a1.95,1.95,0,1,0,1.972-3.3642l-.0224-.0129-6.7523-3.9a1.95,1.95,0,0,0-1.972,3.3642Z"/><path d="M28.3216,52.1428a1.95,1.95,0,0,0-1.95-1.95H18.5724a1.95,1.95,0,0,0,0,3.9h7.7994A1.95,1.95,0,0,0,28.3216,52.1428Z"/><path d="M30.3819,68.9646l-.0227.0131-6.7523,3.9a1.95,1.95,0,1,0,1.9269,3.39l.0227-.0132,6.7523-3.9a1.95,1.95,0,1,0-1.9269-3.39Z"/><path d="M103.2531,72.8906l-.0227-.0132-6.7523-3.9a1.95,1.95,0,0,0-1.9727,3.364l.0227.0131,6.7523,3.9a1.95,1.95,0,1,0,1.9727-3.3639Z"/><path d="M108.2649,50.193h-7.7993a1.95,1.95,0,1,0,0,3.9h7.7993a1.95,1.95,0,0,0,0-3.9Z"/><path d="M95.5052,35.5692a1.95,1.95,0,0,0,.9749-.2613l6.7523-3.9a1.95,1.95,0,1,0-1.9277-3.39l-.0224.013-6.7523,3.9a1.95,1.95,0,0,0,.9752,3.6384Z"/><path d="M80.9648,21.7476l.0022.0012a1.95,1.95,0,0,0,2.6632-.7151l0,0,3.9-6.7523a1.95,1.95,0,1,0-3.3639-1.9727l-.0132.0226-3.9,6.7523A1.95,1.95,0,0,0,80.9648,21.7476Z"/><path d="M67.3183,83.34a1.95,1.95,0,0,0,1.95-1.95V59.9422h3.9a7.7994,7.7994,0,1,0-7.7994-7.7994v3.9h-3.9v-3.9A7.7994,7.7994,0,1,0,53.67,59.9422h3.9V81.39a1.95,1.95,0,0,0,3.9,0V59.9422h3.9V81.39A1.95,1.95,0,0,0,67.3183,83.34Zm1.95-31.1974a3.9,3.9,0,1,1,3.9,3.9h-3.9Zm-11.699,3.9h-3.9a3.9,3.9,0,1,1,3.9-3.9Z"/><path d="M64.9337,20.9825a31.1974,31.1974,0,0,0-21.29,55.2759A5.8114,5.8114,0,0,1,45.87,80.7177V85.29a5.8494,5.8494,0,0,0,3.9,5.4908v2.3086a5.8125,5.8125,0,0,0,1.5209,3.9,5.76,5.76,0,0,0,0,7.7993,5.8243,5.8243,0,0,0,4.3286,9.7492,1.9012,1.9012,0,0,0,1.6028-2.9969,2.067,2.067,0,0,0-.2184-.3373,2.0132,2.0132,0,0,0-.542-.3549c-.0566-.0292-.1131-.0526-.1716-.076a2.0645,2.0645,0,0,0-.6142-.1229c-.02,0-.0371-.0117-.0566-.0117a1.95,1.95,0,0,1,0-3.9h7.7994a1.95,1.95,0,0,0,0-3.9H55.6193a1.95,1.95,0,0,1,0-3.9h7.7994a1.95,1.95,0,0,0,0-3.9H55.6193a1.95,1.95,0,0,1-1.95-1.95V91.14h9.7492a1.95,1.95,0,0,0,0-3.9H51.72a1.95,1.95,0,0,1-1.95-1.95V80.7177A9.6925,9.6925,0,0,0,46.1139,73.24a27.2977,27.2977,0,0,1,18.6346-48.356,27.6117,27.6117,0,0,1,25.9679,27.093A27.138,27.138,0,0,1,80.587,73.3532a9.6656,9.6656,0,0,0-3.52,7.5907V85.29a1.95,1.95,0,0,1-1.95,1.95h-5.85a1.95,1.95,0,0,0,0,3.9h3.9v1.95a1.95,1.95,0,0,1-1.95,1.95h-1.95a1.95,1.95,0,0,0,0,3.9h1.95a1.95,1.95,0,1,1,0,3.9h-1.95a1.95,1.95,0,1,0,0,3.9h1.95a1.95,1.95,0,1,1,0,3.9H61.4689a1.95,1.95,0,1,0,0,3.9h7.4659a5.85,5.85,0,0,1-9.8876,1.9362,1.95,1.95,0,1,0-2.9131,2.5933,9.7276,9.7276,0,0,0,16.868-4.8376,5.7929,5.7929,0,0,0,2.5446-9.4411,5.76,5.76,0,0,0,0-7.7993,5.8124,5.8124,0,0,0,1.5208-3.9V90.7808a5.8494,5.8494,0,0,0,3.9-5.4908V80.9439a5.8614,5.8614,0,0,1,2.0688-4.5568,31.0128,31.0128,0,0,0,11.58-24.4393A31.56,31.56,0,0,0,64.9337,20.9825Z"/></svg>