<svg xmlns="http://www.w3.org/2000/svg" xmlns:xlink="http://www.w3.org/1999/xlink" viewBox="0 0 128 128" fill="#0e7490"><use xlink:href="#B"/><use xlink:href="#B" y="-47"/><circle cx="100.5" cy="34.5" r="1.7"/><circle cx="107.4" cy="34.5" r="1.7"/><circle cx="100.5" cy="81.5" r="1.7"/><circle cx="107.4" cy="81.5" r="1.7"/><path d="M121.3 123.3H6.5a1.7 1.7 0 0 1-1.7-1.7V6.8A1.7 1.7 0 0 1 6.5 5h114.8a1.7 1.7 0 0 1 1.7 1.7v114.8a1.7 1.7 0 0 1-1.7 1.7zm-113-3.5h111.3V8.5H8.2z"/><path d="M121.3 109.4h-101a1.8 1.8 0 0 1 0-3.5h101a1.8 1.8 0 0 1 0 3.5zm-108 0h-7a1.8 1.8 0 0 1 0-3.5h7a1.8 1.8 0 0 1 0 3.5zm73.2-54H13.4a1.7 1.7 0 0 1-1.7-1.7v-40a1.7 1.7 0 0 1 1.7-1.7h73.2a1.7 1.7 0 0 1 1.7 1.7v40a1.7 1.7 0 0 1-1.7 1.7zM15 52h70V15.4H15zm57.8 43.6H27.3a1.7 1.7 0 0 1-1.7-1.7V81.5a1.7 1.7 0 0 1 1.7-1.7h45.5a1.7 1.7 0 0 1 1.7 1.7V94a1.7 1.7 0 0 1-1.7 1.7zM29 92h42v-9H29z"/><path d="M72.8 48.6H27.3a1.7 1.7 0 0 1-1.7-1.7V34.5a1.7 1.7 0 0 1 1.7-1.7h45.5a1.7 1.7 0 0 1 1.7 1.7V47a1.7 1.7 0 0 1-1.7 1.7zM29 45h42v-9H29zm57.6 57.5H13.4a1.7 1.7 0 0 1-1.7-1.7v-40a1.7 1.7 0 0 1 1.7-1.7h73.2a1.7 1.7 0 0 1 1.7 1.7v40a1.7 1.7 0 0 1-1.7 1.7zM15 99h70V62.4H15zm61.2-69.7H23.8a5.2 5.2 0 0 1 0-10.4h52.4a5.2 5.2 0 0 1 0 10.4zm-52.4-7a1.8 1.8 0 1 0 0 3.5h52.4a1.8 1.8 0 1 0 0-3.5zm52.4 54H23.8a5.2 5.2 0 1 1 0-10.4h52.4a5.2 5.2 0 0 1 0 10.4zm-52.4-7a1.8 1.8 0 1 0 0 3.5h52.4a1.8 1.8 0 1 0 0-3.5z"/><use xlink:href="#C"/><use xlink:href="#C" y="-47"/><path d="M114.3 55.5H93.6a1.7 1.7 0 0 1-1.7-1.7v-40a1.7 1.7 0 0 1 1.7-1.7h20.8a1.7 1.7 0 0 1 1.7 1.7v40a1.7 1.7 0 0 1-1.7 1.7zm-19-3.5h17.3V15.4H95.3zm19 50.5H93.6a1.7 1.7 0 0 1-1.7-1.7v-40a1.7 1.7 0 0 1 1.7-1.7h20.8a1.7 1.7 0 0 1 1.7 1.7v40a1.7 1.7 0 0 1-1.7 1.7zm-19-3.5h17.3V62.4H95.3z"/><defs ><path id="B" d="M104 74.7a3.6 3.6 0 1 1 3.6-3.6 3.6 3.6 0 0 1-3.6 3.6zm0-7a3.3 3.3 0 1 0 3.3 3.3 3.4 3.4 0 0 0-3.3-3.3z"/><path id="C" d="M104 76.3a5.2 5.2 0 1 1 5.2-5.2 5.2 5.2 0 0 1-5.2 5.2zm0-7a1.7 1.7 0 1 0 1.7 1.7 1.7 1.7 0 0 0-1.7-1.7z"/></defs></svg>