<svg xmlns="http://www.w3.org/2000/svg" viewBox="0 0 128 128" fill="#0e7490"><path d="M121.4 9.2H115a5.9 5.9 0 0 0-5.5-3.9h-59A5.9 5.9 0 0 0 45 9.2h-6a2 2 0 0 0-2 2v8a2 2 0 0 0 2 2h6.3a5.9 5.9 0 0 0 5.5 3.9h8v4H41a2 2 0 0 0-2 2v6h-2a5.9 5.9 0 0 0-5.9 5.9v55a3.9 3.9 0 0 1-7.9 0V76h4V56.3h-4V27.8a8.9 8.9 0 1 0-17.7 0v5h4v-5a4.9 4.9 0 1 1 9.8 0v28.5h-4v8h-4v-12h-4V72h4v-4h4v8h4v21.6a7.9 7.9 0 0 0 15.7 0v-55a2 2 0 0 1 2-2h2v6a2 2 0 0 0 2 2h2v6a2 2 0 0 0 2 2h2v53a13.7 13.7 0 0 0 27.5 0v-53h2a2 2 0 0 0 2-2v-6h4v6a2 2 0 0 0 2 2h2v53a13.7 13.7 0 1 0 27.5 0v-53h2a2 2 0 0 0 2-2v-6h2a2 2 0 0 0 2-2V30.8a2 2 0 0 0-2-2h-17.7v-4h8a5.9 5.9 0 0 0 5.5-3.9h6.3a2 2 0 0 0 2-2v-8a2 2 0 0 0-2-2zm-102 51h4V72h-4zM41 13h4v4h-4zm29.4 96.2a9.8 9.8 0 1 1-19.6 0v-53h19.6zm4-57H46.8v-4h27.5zm35.3 57a9.8 9.8 0 1 1-19.6 0v-53h19.6zm4-57H86v-4h27.5zm4-8h-75v-4h13.7v-4H42.8v-4h74.6zm-20-15.4H62.5v-4h35.3zm11.8-8h-8v-6h-4v6h-35v-6h-4v6h-8a2 2 0 0 1-2-2v-8a2 2 0 0 1 2-2h59a2 2 0 0 1 2 2v8a2 2 0 0 1-2 2zm9.8-4h-4v-4h4zM74.2 13H86v4H74.2zM90 13h4v4h-4zm-23.6 0h4v4h-4zm33.4 102.2a5.9 5.9 0 0 0 5.9-5.9V91.6H94v17.7a5.9 5.9 0 0 0 5.9 5.9zm-2-19.6h4v13.7a2 2 0 1 1-3.9 0zm-37.3 19.6a5.9 5.9 0 0 0 5.9-5.9V91.6H54.6v17.7a5.9 5.9 0 0 0 5.9 5.9zm-2-19.6h4v13.7a2 2 0 1 1-3.9 0zm2-59h4v4h-4zm-2 27.5h4v-4h-6a2 2 0 0 0-2 2V72h4zm39.3 0h4v-4h-6a2 2 0 0 0-2 2V72h4z"/></svg>