<svg xmlns="http://www.w3.org/2000/svg" viewBox="0 0 24 24" fill="#0f766e"><path d="M12 5.8c-3.4 0-6.2 2.8-6.2 6.2s2.8 6.2 6.2 6.2 6.2-2.8 6.2-6.2-2.8-6.2-6.2-6.2zM12 16a4 4 0 1 1 0-8 4 4 0 1 1 0 8zM16.9.1A162 162 0 0 0 7 .1C5.1.2 3.4.6 2 2-.3 4.3 0 7.4 0 12c0 4.7-.3 7.7 2 10s5.5 2 10 2c4.6 0 6.2 0 7.9-.6 2.2-.9 3.9-2.9 4.1-6.4.1-2.2.1-7.7 0-9.9-.2-4.2-2.5-6.8-7-7zm3.5 20.4c-1.5 1.5-3.6 1.4-8.5 1.4-5 0-7 .1-8.5-1.4C1.7 18.8 2 16.1 2 12c0-5.5-.6-9.5 5-9.8l4.9-.1h0c5.3 0 9.5-.6 9.8 5a84 84 0 0 1 .1 4.8c0 4.9.1 7-1.4 8.5z"/><circle cx="18.4" cy="5.6" r="1.4"/></svg>