<svg xmlns="http://www.w3.org/2000/svg" viewBox="0 0 490.2 490.2" fill="#0f766e"><path d="M341.1 34.3h90.5l-206.9 207a17.2 17.2 0 0 0 0 24.3 17.1 17.1 0 0 0 24.2 0l207-207v90.5a17.2 17.2 0 0 0 17.1 17.2 17.2 17.2 0 0 0 17.2-17.2V17.2A17.2 17.2 0 0 0 473 0H341.1a17.2 17.2 0 0 0-17.2 17.2c.1 9.4 7.7 17.1 17.2 17.1zM102.9 490.2h284.3c56.8 0 102.9-46.2 102.9-102.9V253.4a17.15 17.15 0 1 0-34.3 0v133.8c0 37.8-30.8 68.6-68.6 68.6H102.9c-37.8 0-68.6-30.8-68.6-68.6V161.4 103c0-37.8 30.8-68.6 68.6-68.6h132.7a17.1 17.1 0 0 0 17.1-17.2A17.2 17.2 0 0 0 235.6 0H102.9C46.1 0 0 46.2 0 102.9v58.4 225.9c0 56.8 46.2 103 102.9 103z"/></svg>